<svg width="160" height="160" viewBox="0 0 160 160" fill="none" xmlns="http://www.w3.org/2000/svg">
<path d="M160 0H0V160H160V0Z" fill="#CC2913"/>
<path d="M92.4441 69.3336C83.6074 69.3336 76.444 62.1701 76.444 53.3338C76.444 44.4974 83.6074 37.3333 92.4441 37.3333C95.9038 37.3333 99.1046 38.4352 101.722 40.302L107.906 31.6149C103.545 28.5035 98.2105 26.6675 92.4441 26.6675C81.8877 26.6675 72.7657 32.8024 68.4442 41.7009C64.1231 32.8024 55.0007 26.6675 44.4441 26.6675C29.7164 26.6675 17.7775 38.6068 17.7775 53.3341C17.7775 68.062 29.7164 80.0006 44.4441 80.0006C55.0007 80.0006 64.1231 73.8657 68.4442 64.9679C72.7654 73.8657 81.8877 80.0006 92.4441 80.0006C98.2105 80.0006 103.544 78.1649 107.906 75.0539L101.722 66.3662C99.1046 68.2323 95.9038 69.3336 92.4441 69.3336ZM44.4441 69.3336C35.6074 69.3336 28.4439 62.1701 28.4439 53.3338C28.4439 44.4974 35.6077 37.3333 44.4441 37.3333C53.2811 37.3333 60.4442 44.4974 60.4442 53.3338C60.4442 62.1701 53.2811 69.3336 44.4441 69.3336Z" fill="white"/>
<path d="M142.223 27.1109H126.667L105.778 53.3334L126.667 79.5553H142.222L118.667 53.3334L142.223 27.1109Z" fill="white"/>
<path d="M59.5709 97.9958C59.3827 98.3564 59.1297 98.6603 58.8104 98.9049C58.4937 99.1498 58.1287 99.3348 57.7167 99.4599C57.3049 99.5838 56.88 99.6468 56.4423 99.6468C56.0045 99.6468 55.5796 99.5872 55.167 99.4665C54.7552 99.3464 54.3921 99.1648 54.0791 98.9253C53.7662 98.6835 53.515 98.3853 53.3259 98.0278C53.1378 97.6712 53.0428 97.2514 53.0428 96.77V90.6678H54.8107V96.4448C54.8107 96.738 54.8574 96.9851 54.9521 97.1874C55.0456 97.39 55.1704 97.5559 55.3244 97.6851C55.4793 97.8146 55.6546 97.9099 55.8518 97.9701C56.0491 98.0297 56.2507 98.0607 56.4561 98.0607C56.6527 98.0607 56.8493 98.0297 57.0469 97.9701C57.2438 97.9099 57.4191 97.8146 57.574 97.6851C57.7277 97.5559 57.8525 97.3903 57.9465 97.1874C58.0406 96.9848 58.088 96.7377 58.088 96.4448V90.6678H59.8556V96.7308C59.8547 97.2128 59.7597 97.6343 59.5709 97.9958Z" fill="white"/>
<path d="M65.6261 93.9565V99.5558H63.8585V90.6667H65.4577L67.5223 93.711L69.2128 96.2918H69.264V90.6667H71.0316V99.5558H69.4233L67.1708 96.2018L65.7036 93.9565H65.6261Z" fill="white"/>
<path d="M76.9141 90.6678V99.5568H75.1467V90.6678H76.9141Z" fill="white"/>
<path d="M84.5513 92.2538V99.5558H82.7853V92.2538H80.4243V90.6667H86.9003V92.2538H84.5513Z" fill="white"/>
<path d="M90.4096 90.6671H96.5373V92.2541H92.1773V94.2917H95.9061V95.8791H92.1773V97.9697H96.5373V99.5564H90.4096V90.6671Z" fill="white"/>
<path d="M106.958 96.7044C106.958 97.1691 106.869 97.5796 106.693 97.9368C106.517 98.2943 106.281 98.5931 105.984 98.8339C105.688 99.0741 105.347 99.2544 104.965 99.3749C104.582 99.4953 104.188 99.5561 103.784 99.5561H100.43V90.6671H103.797C104.201 90.6671 104.594 90.7244 104.978 90.8408C105.361 90.9571 105.698 91.1352 105.99 91.377C106.282 91.6172 106.517 91.9167 106.693 92.2732C106.869 92.6301 106.958 93.0449 106.958 93.5181V96.7044ZM105.166 93.8533C105.166 93.5617 105.116 93.3134 105.017 93.1114C104.919 92.9098 104.792 92.7439 104.638 92.6147C104.483 92.4861 104.31 92.393 104.118 92.3375C103.926 92.2817 103.73 92.2538 103.534 92.2538H102.198V97.9951H103.534C103.722 97.9951 103.912 97.9672 104.106 97.9104C104.297 97.8549 104.474 97.7631 104.632 97.6332C104.79 97.5047 104.919 97.3391 105.017 97.1365C105.116 96.9349 105.166 96.6828 105.166 96.383V93.8533H105.166Z" fill="white"/>
<path d="M33.2997 114.767C33.2997 115.196 33.2132 115.577 33.0417 115.908C32.8695 116.24 32.6306 116.515 32.3251 116.734C32.0206 116.953 31.6616 117.119 31.248 117.23C30.8353 117.342 30.3885 117.398 29.9062 117.398C29.2605 117.398 28.6553 117.308 28.088 117.127C27.5198 116.947 26.9651 116.629 26.4226 116.173L27.4167 114.883C27.8036 115.183 28.2059 115.414 28.623 115.573C29.0394 115.732 29.4549 115.812 29.8679 115.812C30.1517 115.812 30.3922 115.783 30.5907 115.727C30.788 115.672 30.9476 115.594 31.0677 115.495C31.1887 115.397 31.2768 115.285 31.3326 115.16C31.3878 115.035 31.4164 114.909 31.4164 114.781C31.4164 114.582 31.3665 114.418 31.2677 114.29C31.169 114.161 31.0272 114.051 30.8422 113.96C30.6575 113.87 30.438 113.789 30.1843 113.716C29.93 113.643 29.6493 113.563 29.3395 113.477C28.9946 113.391 28.6666 113.286 28.3527 113.16C28.0382 113.036 27.761 112.877 27.5208 112.683C27.2796 112.49 27.088 112.254 26.9466 111.974C26.8042 111.694 26.7337 111.357 26.7337 110.961C26.7337 110.574 26.8064 110.217 26.9516 109.89C27.0965 109.563 27.2984 109.282 27.5596 109.045C27.8199 108.808 28.136 108.624 28.5085 108.49C28.882 108.357 29.2956 108.29 29.7525 108.29C30.2941 108.282 30.8356 108.334 31.3778 108.445C31.92 108.557 32.4443 108.78 32.9513 109.116L32.1781 110.535C31.7648 110.286 31.3737 110.113 31.0028 110.019C30.634 109.924 30.268 109.877 29.9068 109.877C29.7353 109.877 29.5653 109.898 29.3975 109.941C29.2301 109.985 29.0793 110.047 28.946 110.128C28.8121 110.21 28.7055 110.318 28.6239 110.451C28.5421 110.584 28.5007 110.741 28.5007 110.922C28.5007 111.102 28.5459 111.255 28.6368 111.38C28.728 111.505 28.8591 111.612 29.0313 111.702C29.2044 111.793 29.4132 111.873 29.6591 111.942C29.9046 112.011 30.1834 112.079 30.4935 112.148C31.4327 112.354 32.136 112.668 32.6023 113.089C33.0671 113.51 33.2997 114.07 33.2997 114.767Z" fill="white"/>
<path d="M41.8539 117.334V113.618H38.5757V117.334H36.809V108.445H38.5757V112.032H41.8539V108.445H43.6466V117.334H41.8539Z" fill="white"/>
<path d="M49.5169 108.445V117.334H47.7489V108.445H49.5169Z" fill="white"/>
<path d="M57.5931 108.445C58.0315 108.445 58.4097 108.529 58.7277 108.696C59.0463 108.864 59.3106 109.081 59.5213 109.348C59.7317 109.615 59.8873 109.914 59.9857 110.244C60.0842 110.576 60.1347 110.9 60.1347 111.218C60.1347 111.546 60.0757 111.873 59.9597 112.198C59.8434 112.526 59.6766 112.822 59.4567 113.089C59.2369 113.356 58.9663 113.573 58.6436 113.74C58.3209 113.908 57.9531 113.992 57.5401 113.992H55.3861V117.334H53.6188V108.445H57.5931V108.445ZM55.3868 112.405H57.193C57.5969 112.405 57.9026 112.293 58.1093 112.068C58.3159 111.843 58.4185 111.563 58.4185 111.225C58.4185 110.879 58.3125 110.594 58.1021 110.369C57.8916 110.145 57.5881 110.032 57.193 110.032H55.3868V112.405Z" fill="white"/>
<path d="M70.2683 114.693C70.2683 115.054 70.2113 115.393 70.1006 115.711C69.9883 116.028 69.8252 116.308 69.6101 116.547C69.3947 116.788 69.1288 116.979 68.8102 117.121C68.4913 117.263 68.1222 117.334 67.7001 117.334H63.5336V108.445H67.533C67.9801 108.445 68.3646 108.509 68.6879 108.638C69.0099 108.768 69.2768 108.945 69.4878 109.168C69.6986 109.392 69.8553 109.651 69.9585 109.944C70.062 110.238 70.1141 110.542 70.1141 110.861C70.1141 111.189 70.0247 111.525 69.8494 111.869C69.6728 112.214 69.395 112.481 69.0171 112.67C69.2326 112.774 69.4167 112.905 69.5716 113.064C69.7262 113.223 69.8553 113.395 69.9585 113.579C70.062 113.764 70.1395 113.952 70.1903 114.145C70.242 114.339 70.2683 114.521 70.2683 114.693ZM68.294 111.038C68.294 110.711 68.1971 110.462 68.004 110.289C67.8102 110.118 67.5073 110.031 67.0937 110.031H65.3006V111.98H67.1197C67.4894 111.98 67.7773 111.894 67.9839 111.722C68.1906 111.549 68.294 111.322 68.294 111.038ZM68.3975 114.631C68.3975 114.289 68.289 114.013 68.0742 113.803C67.8588 113.593 67.5631 113.489 67.1849 113.489H65.3006V115.746H67.1971C67.5932 115.746 67.8923 115.647 68.094 115.446C68.2956 115.245 68.3975 114.973 68.3975 114.631Z" fill="white"/>
<path d="M80.4214 115.773C80.2333 116.134 79.9799 116.437 79.6623 116.683C79.3443 116.927 78.9793 117.112 78.5676 117.237C78.1549 117.361 77.7306 117.424 77.2929 117.424C76.8551 117.424 76.4305 117.364 76.0182 117.243C75.6058 117.123 75.2439 116.943 74.93 116.702C74.6168 116.461 74.3656 116.162 74.1768 115.805C73.9877 115.448 73.8933 115.028 73.8933 114.547V108.445H75.6613V114.222C75.6613 114.515 75.708 114.763 75.8018 114.964C75.8968 115.167 76.0204 115.334 76.1749 115.463C76.3286 115.592 76.5048 115.687 76.7011 115.746C76.899 115.807 77.1006 115.838 77.3054 115.838C77.503 115.838 77.7002 115.807 77.8965 115.746C78.0941 115.687 78.27 115.592 78.4246 115.463C78.5792 115.334 78.7027 115.167 78.7971 114.964C78.8918 114.762 78.9379 114.515 78.9379 114.222V108.445H80.7052V114.508C80.7046 114.991 80.6102 115.411 80.4214 115.773Z" fill="white"/>
<path d="M86.4764 108.445V117.334H84.7087V108.445H86.4764Z" fill="white"/>
<path d="M90.6301 117.334V108.445H92.372V115.746H96.7712V117.334H90.6301Z" fill="white"/>
<path d="M106.375 114.482C106.375 114.946 106.287 115.358 106.111 115.715C105.934 116.071 105.697 116.371 105.401 116.611C105.104 116.853 104.764 117.033 104.381 117.153C103.998 117.273 103.605 117.334 103.201 117.334H99.8462V108.445H103.213C103.618 108.445 104.011 108.503 104.394 108.62C104.777 108.736 105.115 108.914 105.407 109.154C105.699 109.396 105.933 109.695 106.11 110.051C106.287 110.408 106.374 110.823 106.374 111.296V114.482H106.375ZM104.581 111.631C104.581 111.339 104.532 111.091 104.433 110.89C104.335 110.687 104.208 110.521 104.054 110.393C103.9 110.263 103.727 110.171 103.535 110.116C103.342 110.06 103.147 110.031 102.95 110.031H101.613V115.773H102.95C103.139 115.773 103.329 115.745 103.522 115.689C103.714 115.632 103.89 115.54 104.049 115.411C104.207 115.282 104.335 115.117 104.433 114.914C104.532 114.713 104.582 114.46 104.582 114.16V111.631H104.581Z" fill="white"/>
<path d="M112.036 108.445V117.334H110.267V108.445H112.036Z" fill="white"/>
<path d="M117.931 111.735V117.334H116.164V108.445H117.764L119.828 111.489L121.518 114.07H121.569V108.445H123.337V117.334H121.729L119.476 113.98L118.008 111.735H117.931Z" fill="white"/>
<path d="M132.919 116.759C132.678 116.919 132.428 117.048 132.171 117.146C131.914 117.245 131.653 117.316 131.39 117.36C131.128 117.402 130.881 117.424 130.649 117.424C130.237 117.424 129.826 117.364 129.417 117.243C129.008 117.123 128.642 116.945 128.319 116.708C127.998 116.472 127.735 116.175 127.533 115.818C127.331 115.461 127.229 115.042 127.229 114.56V111.27C127.229 110.798 127.327 110.377 127.52 110.012C127.713 109.647 127.972 109.341 128.294 109.096C128.617 108.851 128.984 108.666 129.397 108.541C129.81 108.417 130.237 108.353 130.675 108.353C131.191 108.353 131.694 108.425 132.184 108.567C132.675 108.709 133.091 108.93 133.435 109.232L132.571 110.599C132.296 110.367 131.99 110.205 131.655 110.115C131.319 110.025 131.001 109.98 130.7 109.98C130.492 109.98 130.29 110.007 130.088 110.063C129.885 110.12 129.705 110.212 129.545 110.341C129.385 110.469 129.255 110.637 129.152 110.844C129.049 111.051 128.997 111.3 128.997 111.592V114.186C128.997 114.478 129.044 114.725 129.139 114.927C129.233 115.129 129.358 115.295 129.513 115.424C129.668 115.552 129.844 115.647 130.042 115.708C130.24 115.768 130.442 115.798 130.649 115.798C130.819 115.798 131.008 115.775 131.21 115.726C131.412 115.68 131.611 115.575 131.81 115.411V113.928H130.519V112.418H133.577V116.159C133.379 116.4 133.16 116.6 132.919 116.759Z" fill="white"/>
<path d="M32.9629 128.378C32.6873 128.146 32.3913 127.983 32.0727 127.894C31.7547 127.803 31.4455 127.759 31.1439 127.759C30.9457 127.759 30.7478 127.786 30.5503 127.842C30.3527 127.898 30.1765 127.99 30.0216 128.119C29.867 128.249 29.74 128.416 29.6399 128.623C29.5415 128.83 29.4922 129.079 29.4922 129.371V131.963C29.4922 132.256 29.5412 132.504 29.6399 132.706C29.7397 132.908 29.8688 133.074 30.0281 133.202C30.1868 133.332 30.3624 133.427 30.5562 133.487C30.75 133.548 30.9454 133.576 31.1436 133.576C31.4452 133.576 31.7484 133.535 32.0529 133.448C32.3584 133.362 32.6663 133.199 32.9755 132.957L33.8143 134.326C33.4866 134.6 33.0871 134.816 32.6139 134.97C32.1417 135.126 31.6425 135.203 31.1175 135.203C30.6964 135.203 30.284 135.143 29.8792 135.022C29.4756 134.901 29.1134 134.724 28.7958 134.486C28.4772 134.25 28.2194 133.953 28.0219 133.596C27.8243 133.239 27.7255 132.82 27.7255 132.338V129.009C27.7255 128.537 27.8221 128.121 28.015 127.765C28.2088 127.408 28.4621 127.108 28.777 126.868C29.0909 126.627 29.4499 126.448 29.8541 126.327C30.2583 126.206 30.6716 126.146 31.0928 126.146C31.6089 126.146 32.1053 126.215 32.5823 126.353C33.0598 126.49 33.4703 126.709 33.8149 127.01L32.9629 128.378Z" fill="white"/>
<path d="M44.0584 132.273C44.0584 132.755 43.9684 133.177 43.7887 133.538C43.6077 133.898 43.3628 134.204 43.0536 134.454C42.7451 134.703 42.3816 134.891 41.9652 135.015C41.5491 135.139 41.1094 135.202 40.6457 135.202C40.1819 135.202 39.7425 135.139 39.3258 135.015C38.9094 134.891 38.5469 134.703 38.2383 134.454C37.9291 134.204 37.6839 133.899 37.5036 133.538C37.323 133.177 37.2333 132.755 37.2333 132.273V129.009C37.2333 128.536 37.328 128.119 37.5168 127.759C37.7055 127.397 37.9586 127.097 38.2762 126.855C38.5939 126.614 38.9583 126.434 39.371 126.313C39.7827 126.193 40.2076 126.132 40.6453 126.132C41.0831 126.132 41.5083 126.197 41.9201 126.326C42.3324 126.455 42.6971 126.643 43.0144 126.887C43.3324 127.132 43.5858 127.438 43.7746 127.803C43.9627 128.169 44.0577 128.588 44.0577 129.062V132.273H44.0584ZM42.291 129.371C42.291 129.079 42.2434 128.832 42.1483 128.629C42.0543 128.427 41.9295 128.262 41.7749 128.132C41.6206 128.004 41.4462 127.909 41.2521 127.85C41.0593 127.788 40.8586 127.76 40.6529 127.76C40.4462 127.76 40.2443 127.788 40.0455 127.85C39.8476 127.909 39.672 128.004 39.5171 128.132C39.3615 128.262 39.2367 128.427 39.143 128.629C39.047 128.832 39.0009 129.079 39.0009 129.371V131.963C39.0009 132.256 39.047 132.506 39.143 132.713C39.2371 132.919 39.3615 133.086 39.5171 133.216C39.6717 133.345 39.8476 133.437 40.0455 133.494C40.2443 133.548 40.4459 133.577 40.6529 133.577C40.8586 133.577 41.0593 133.548 41.2521 133.494C41.4462 133.437 41.6206 133.345 41.7749 133.216C41.9295 133.086 42.0546 132.919 42.1483 132.713C42.2434 132.506 42.291 132.256 42.291 131.963V129.371Z" fill="white"/>
<path d="M51.912 126.223C52.361 126.223 52.7449 126.307 53.0672 126.475C53.3896 126.643 53.6568 126.86 53.8675 127.127C54.0782 127.393 54.2325 127.693 54.3322 128.023C54.4304 128.354 54.4805 128.679 54.4805 128.997C54.4805 129.228 54.4479 129.468 54.3833 129.713C54.319 129.958 54.224 130.191 54.0992 130.41C53.9754 130.629 53.8223 130.831 53.6414 131.017C53.4617 131.202 53.2551 131.354 53.0221 131.474L54.6223 135.113H52.7129C52.6787 135.017 52.6248 134.883 52.5514 134.706C52.478 134.53 52.3965 134.334 52.3065 134.12C52.2162 133.904 52.1208 133.678 52.023 133.442C51.9242 133.205 51.8298 132.979 51.7383 132.764C51.6483 132.55 51.5661 132.354 51.4937 132.178C51.4212 132.002 51.3629 131.865 51.3196 131.771H49.7198V135.113H47.9515V126.223H51.912V126.223ZM49.7198 130.183H51.5138C51.9255 130.183 52.2356 130.073 52.4419 129.853C52.6486 129.633 52.7511 129.349 52.7511 129.003C52.7511 128.657 52.6464 128.372 52.4347 128.147C52.2243 127.922 51.9164 127.81 51.5134 127.81H49.7194V130.183H49.7198Z" fill="white"/>
<path d="M62.6753 126.223C63.1137 126.223 63.4925 126.307 63.8108 126.475C64.1291 126.643 64.3931 126.86 64.6045 127.127C64.8152 127.393 64.9695 127.693 65.0683 128.023C65.1667 128.354 65.2172 128.679 65.2172 128.997C65.2172 129.324 65.1583 129.65 65.0422 129.977C64.9265 130.304 64.7594 130.601 64.5393 130.868C64.3201 131.135 64.0485 131.351 63.7268 131.519C63.4035 131.687 63.0363 131.771 62.6226 131.771H60.4687V135.113H58.7013V126.223H62.6753V126.223ZM60.4693 130.183H62.2758C62.68 130.183 62.9855 130.071 63.1915 129.847C63.3981 129.622 63.5007 129.341 63.5007 129.003C63.5007 128.657 63.3959 128.372 63.1846 128.147C62.9739 127.923 62.6709 127.81 62.2758 127.81H60.4693V130.183V130.183Z" fill="white"/>
<path d="M75.2282 132.273C75.2282 132.755 75.1386 133.177 74.9573 133.538C74.7779 133.898 74.5327 134.204 74.2232 134.454C73.915 134.703 73.5518 134.891 73.1357 135.015C72.7193 135.139 72.2787 135.202 71.8159 135.202C71.3521 135.202 70.9121 135.139 70.4957 135.015C70.0786 134.891 69.7171 134.703 69.4076 134.454C69.0987 134.204 68.8535 133.899 68.6728 133.538C68.4935 133.177 68.4032 132.755 68.4032 132.273V129.009C68.4032 128.536 68.4979 128.119 68.686 127.759C68.8751 127.397 69.1279 127.097 69.4464 126.855C69.7641 126.614 70.1291 126.434 70.5408 126.313C70.9529 126.193 71.3778 126.132 71.8155 126.132C72.2533 126.132 72.6779 126.197 73.0906 126.326C73.5026 126.455 73.8673 126.643 74.1843 126.887C74.5017 127.132 74.7554 127.438 74.9441 127.803C75.1332 128.169 75.2276 128.588 75.2276 129.062V132.273H75.2282ZM73.4609 129.371C73.4609 129.079 73.4139 128.832 73.3198 128.629C73.2248 128.427 73.0997 128.262 72.9454 128.132C72.7902 128.004 72.6158 127.909 72.4226 127.85C72.2285 127.788 72.0288 127.76 71.8228 127.76C71.6164 127.76 71.4139 127.788 71.216 127.85C71.0181 127.909 70.8422 128.004 70.687 128.132C70.5321 128.262 70.4069 128.427 70.3135 128.629C70.2185 128.832 70.1708 129.079 70.1708 129.371V131.963C70.1708 132.256 70.2185 132.506 70.3135 132.713C70.4073 132.919 70.5321 133.086 70.687 133.216C70.8419 133.345 71.0181 133.437 71.216 133.494C71.4139 133.548 71.6161 133.577 71.8228 133.577C72.0288 133.577 72.2285 133.548 72.4226 133.494C72.6158 133.437 72.7902 133.345 72.9454 133.216C73.0997 133.086 73.2251 132.919 73.3198 132.713C73.4139 132.506 73.4609 132.256 73.4609 131.963V129.371Z" fill="white"/>
<path d="M83.0816 126.223C83.5287 126.223 83.9138 126.307 84.2368 126.475C84.5588 126.643 84.8254 126.86 85.0367 127.127C85.2468 127.393 85.4017 127.693 85.5005 128.023C85.5996 128.354 85.6495 128.679 85.6495 128.997C85.6495 129.228 85.6175 129.468 85.5519 129.713C85.4889 129.958 85.3939 130.191 85.2685 130.41C85.1443 130.629 84.9909 130.831 84.8116 131.017C84.6303 131.202 84.424 131.354 84.1916 131.474L85.7921 135.113H83.8818C83.8483 135.017 83.7943 134.883 83.7213 134.706C83.6479 134.53 83.5651 134.334 83.4757 134.12C83.3857 133.904 83.2907 133.678 83.1923 133.442C83.0925 133.205 82.9988 132.979 82.9081 132.764C82.8181 132.55 82.736 132.354 82.6632 132.178C82.5905 132.002 82.5309 131.865 82.4886 131.771H80.8893V135.113H79.122V126.223H83.0816V126.223ZM80.889 130.183H82.6817C83.0944 130.183 83.4039 130.073 83.6109 129.853C83.8172 129.633 83.9207 129.349 83.9207 129.003C83.9207 128.657 83.8147 128.372 83.604 128.147C83.3939 127.922 83.0859 127.81 82.6817 127.81H80.889V130.183V130.183Z" fill="white"/>
<path d="M94.2183 133.28H91.1217L90.541 135.112H88.6576L91.7793 126.222H93.5855L96.6821 135.112H94.7596L94.2183 133.28ZM91.599 131.797H93.7401L93.3924 130.662L92.6953 128.313H92.6439L91.9596 130.622L91.599 131.797Z" fill="white"/>
<path d="M102.851 127.81V135.112H101.084V127.81H98.7233V126.222H105.2V127.81H102.851Z" fill="white"/>
<path d="M110.477 126.223V135.113H108.709V126.223H110.477Z" fill="white"/>
<path d="M121.194 132.273C121.194 132.755 121.104 133.177 120.924 133.538C120.744 133.898 120.498 134.204 120.191 134.454C119.881 134.703 119.518 134.891 119.102 135.015C118.685 135.139 118.246 135.202 117.782 135.202C117.319 135.202 116.879 135.139 116.462 135.015C116.045 134.891 115.683 134.703 115.374 134.454C115.064 134.204 114.82 133.899 114.64 133.538C114.459 133.177 114.37 132.755 114.37 132.273V129.009C114.37 128.536 114.464 128.119 114.653 127.759C114.842 127.397 115.094 127.097 115.413 126.855C115.731 126.614 116.095 126.434 116.506 126.313C116.918 126.193 117.345 126.132 117.781 126.132C118.22 126.132 118.644 126.197 119.057 126.326C119.468 126.455 119.834 126.643 120.151 126.887C120.468 127.132 120.721 127.438 120.911 127.803C121.099 128.169 121.194 128.588 121.194 129.062V132.273H121.194ZM119.427 129.371C119.427 129.079 119.379 128.832 119.285 128.629C119.19 128.427 119.066 128.262 118.911 128.132C118.757 128.004 118.582 127.909 118.389 127.85C118.195 127.788 117.995 127.76 117.789 127.76C117.582 127.76 117.38 127.788 117.182 127.85C116.984 127.909 116.808 128.004 116.653 128.132C116.499 128.262 116.374 128.427 116.279 128.629C116.184 128.832 116.137 129.079 116.137 129.371V131.963C116.137 132.256 116.184 132.506 116.279 132.713C116.374 132.919 116.499 133.086 116.653 133.216C116.808 133.345 116.984 133.437 117.182 133.494C117.38 133.548 117.582 133.577 117.789 133.577C117.995 133.577 118.195 133.548 118.389 133.494C118.582 133.437 118.757 133.345 118.911 133.216C119.066 133.086 119.191 132.919 119.285 132.713C119.379 132.506 119.427 132.256 119.427 131.963V129.371Z" fill="white"/>
<path d="M126.869 129.513V135.112H125.101V126.222H126.7L128.765 129.268L130.456 131.848H130.507V126.222H132.274V135.112H130.666L128.413 131.758L126.947 129.513H126.869V129.513Z" fill="white"/>
</svg>
