<?xml version="1.0" encoding="UTF-8"?>
<!DOCTYPE svg PUBLIC "-//W3C//DTD SVG 1.1//EN" "http://www.w3.org/Graphics/SVG/1.1/DTD/svg11.dtd">
<!-- Creator: CorelDRAW 2019 (64-Bit Не для перепродажи) -->
<svg xmlns="http://www.w3.org/2000/svg" xml:space="preserve" width="250px" height="268px" version="1.1" style="shape-rendering:geometricPrecision; text-rendering:geometricPrecision; image-rendering:optimizeQuality; fill-rule:evenodd; clip-rule:evenodd"
viewBox="0 0 95.49 102.18"
 xmlns:xlink="http://www.w3.org/1999/xlink"
 xmlns:xodm="http://www.corel.com/coreldraw/odm/2003">
 <defs>
  <style type="text/css">
   <![CDATA[
    .fil5 {fill:#898989;fill-rule:nonzero}
    .fil0 {fill:#2B2A29;fill-rule:nonzero}
    .fil4 {fill:#777772;fill-rule:nonzero}
    .fil3 {fill:url(#id0)}
    .fil1 {fill:url(#id1)}
    .fil2 {fill:url(#id2)}
   ]]>
  </style>
  <linearGradient id="id0" gradientUnits="userSpaceOnUse" x1="29.25" y1="58.62" x2="29.25" y2="19.52">
   <stop offset="0" style="stop-opacity:1; stop-color:#F1F1F1"/>
   <stop offset="1" style="stop-opacity:1; stop-color:#777772"/>
  </linearGradient>
  <linearGradient id="id1" gradientUnits="userSpaceOnUse" x1="24.6" y1="13.74" x2="68.36" y2="21.46">
   <stop offset="0" style="stop-opacity:1; stop-color:#E5F5F8"/>
   <stop offset="0.54902" style="stop-opacity:1; stop-color:#73C7D7"/>
   <stop offset="1" style="stop-opacity:1; stop-color:#0099B5"/>
  </linearGradient>
  <linearGradient id="id2" gradientUnits="userSpaceOnUse" x1="79.65" y1="37.07" x2="35.87" y2="44.79">
   <stop offset="0" style="stop-opacity:1; stop-color:#F6EDF8"/>
   <stop offset="0.529412" style="stop-opacity:1; stop-color:#D09AD9"/>
   <stop offset="1" style="stop-opacity:1; stop-color:#AA47BA"/>
  </linearGradient>
 </defs>
 <g id="Слой_x0020_1">
  <metadata id="CorelCorpID_0Corel-Layer"/>
  <polygon class="fil0" points="57.51,39.17 34.8,39.17 46.11,19.5 "/>
  <polygon class="fil1" points="46.15,19.52 57.43,39.06 68.7,19.55 57.42,0 34.85,0 23.58,19.52 "/>
  <polygon class="fil2" points="57.43,39.03 34.86,39.05 46.15,58.56 68.72,58.53 79.98,38.98 68.69,19.47 "/>
  <polygon class="fil3" points="34.87,39.07 46.15,19.52 23.61,19.53 12.34,39.08 23.63,58.62 46.17,58.61 "/>
  <polygon class="fil4" points="7.96,101.93 7.96,85.19 0,85.19 0,79.66 23.1,79.66 23.1,85.19 15.15,85.19 15.15,101.93 "/>
  <path class="fil4" d="M37.59 94.77c0.13,0.38 0.32,0.48 0.41,0.48 0.1,0 0.29,-0.1 0.42,-0.48l5.22 -15.11 7.7 0 -7.73 18.93c-0.8,1.94 -2.07,3.59 -5.61,3.59 -3.53,0 -4.8,-1.65 -5.6,-3.59l-7.73 -18.93 7.7 0 5.22 15.11z"/>
  <path class="fil4" d="M56.11 101.93c-0.92,0 -1.84,-0.06 -2.7,-0.76 -1.02,-0.86 -1.02,-1.75 -1.02,-2.8l0 -15.28c0,-0.86 0.13,-1.78 0.96,-2.54 0.82,-0.77 1.9,-0.89 2.7,-0.89l16.01 0 0 5.4 -11.01 0c-0.42,0 -0.86,0.1 -1.12,0.32 -0.35,0.29 -0.35,0.8 -0.35,1.09l0 1.68 12.16 0 0 4.84 -12.16 0 0 2.42c0,0.44 0.16,0.7 0.32,0.82 0.35,0.32 0.92,0.29 1.37,0.29l10.88 0 0 5.41 -16.04 0z"/>
  <path class="fil4" d="M78.66 101.93c-0.86,0 -1.82,-0.19 -2.42,-0.7 -0.51,-0.41 -0.99,-1.24 -0.99,-2.16l0 -19.41 7.19 0 0 15.36c0,0.26 0.04,0.8 0.35,1.09 0.29,0.25 0.77,0.28 1.15,0.28l11.55 0 0 5.54 -16.83 0z"/>
  <polygon class="fil5" points="2.62,70.17 2.62,71.12 1.01,71.12 1.01,72.98 0,72.98 0,68.12 2.92,68.12 2.92,69.06 1.01,69.06 1.01,70.17 "/>
  <path class="fil5" d="M4.78 68.12l0 2.83c0,0.95 0.21,1.22 0.73,1.22 0.51,0 0.72,-0.27 0.72,-1.22l0 -2.83 1.01 0 0 3.02c0,1.08 -0.27,1.98 -1.73,1.98 -1.47,0 -1.74,-0.9 -1.74,-1.98l0 -3.02 1.01 0z"/>
  <polygon class="fil5" points="11.46,70.05 11.46,70.94 9.56,70.94 9.56,72.04 11.77,72.04 11.77,72.98 8.55,72.98 8.55,68.12 11.72,68.12 11.72,69.06 9.56,69.06 9.56,70.05 "/>
  <polygon class="fil5" points="15.58,72.98 12.76,72.98 12.76,68.12 13.77,68.12 13.77,72.04 15.58,72.04 "/>
  <path class="fil5" d="M22.17 71.26c-0.12,1.22 -0.66,1.86 -1.82,1.86 -1.2,0 -1.95,-0.69 -1.95,-2.48 0,-1.2 0.34,-2.66 1.92,-2.66 1.65,0 1.79,1.35 1.8,1.79l-0.99 0c-0.08,-0.69 -0.37,-0.85 -0.77,-0.85 -0.31,0 -0.88,0.14 -0.88,1.68 0,1.42 0.59,1.57 0.91,1.57 0.42,0 0.69,-0.2 0.77,-0.91l1.01 0z"/>
  <path class="fil5" d="M25.9 70.55c0,-1.3 -0.41,-1.63 -0.94,-1.63 -0.52,0 -0.93,0.33 -0.93,1.63 0,1.45 0.52,1.62 0.93,1.62 0.42,0 0.94,-0.17 0.94,-1.62zm-2.95 0c0,-0.73 0.18,-2.57 2.01,-2.57 1.85,0 2.02,1.84 2.02,2.57 0,0.73 -0.17,2.57 -2.02,2.57 -1.83,0 -2.01,-1.84 -2.01,-2.57z"/>
  <polygon class="fil5" points="29.14,69.86 29.13,69.86 29.13,72.98 28.11,72.98 28.11,68.12 29.49,68.12 30.38,71.29 31.26,68.12 32.64,68.12 32.64,72.98 31.62,72.98 31.62,69.86 31.61,69.86 30.74,72.98 30.01,72.98 "/>
  <path class="fil5" d="M35.02 70.36l0.67 0c0.42,0 0.61,-0.2 0.61,-0.66 0,-0.66 -0.42,-0.64 -0.61,-0.64l-0.67 0 0 1.3zm0.85 -2.24c0.83,0 1.51,0.37 1.51,1.57 0,1.51 -1.03,1.62 -1.53,1.62l-0.83 0 0 1.67 -1.01 0 0 -4.86 1.86 0z"/>
  <path class="fil5" d="M40.24 71.24l-0.45 -1.82 -0.46 1.82 0.91 0zm0.06 -3.12l1.46 4.86 -1.07 0 -0.25 -0.91 -1.31 0 -0.25 0.91 -1.07 0 1.46 -4.86 1.03 0z"/>
  <polygon class="fil5" points="43.52,70.08 43.52,72.98 42.51,72.98 42.51,68.12 43.54,68.12 44.92,71 44.99,71 44.99,68.12 46,68.12 46,72.98 44.97,72.98 43.58,70.08 "/>
  <polygon class="fil5" points="49.47,68.12 50.56,68.12 49.2,71.14 49.2,72.98 48.19,72.98 48.19,71.14 46.79,68.12 47.92,68.12 48.7,70.24 "/>
  <path class="fil5" d="M56.15 70.55c0,-1.3 -0.4,-1.63 -0.93,-1.63 -0.52,0 -0.93,0.33 -0.93,1.63 0,1.45 0.52,1.62 0.93,1.62 0.42,0 0.93,-0.17 0.93,-1.62zm-2.94 0c0,-0.73 0.17,-2.57 2.01,-2.57 1.84,0 2.02,1.84 2.02,2.57 0,0.73 -0.18,2.57 -2.02,2.57 -1.84,0 -2.01,-1.84 -2.01,-2.57z"/>
  <polygon class="fil5" points="60.99,70.17 60.99,71.12 59.38,71.12 59.38,72.98 58.37,72.98 58.37,68.12 61.29,68.12 61.29,69.06 59.38,69.06 59.38,70.17 "/>
  <path class="fil5" d="M65.34 70.3l0.76 0c0.23,0 0.58,-0.05 0.58,-0.61 0,-0.53 -0.23,-0.63 -0.62,-0.63l-0.72 0 0 1.24zm-1.01 -2.18l2.03 0c1.13,0 1.38,0.74 1.38,1.38 0,0.47 -0.21,1.13 -0.75,1.2l0 0.04c1,0.1 0.22,1.23 0.77,2.24l-1.02 0c-0.18,-0.35 -0.09,-0.57 -0.15,-1.23 -0.05,-0.58 -0.46,-0.55 -0.59,-0.55l-0.66 0 0 1.78 -1.01 0 0 -4.86z"/>
  <path class="fil5" d="M71.59 70.55c0,-1.3 -0.41,-1.63 -0.94,-1.63 -0.52,0 -0.93,0.33 -0.93,1.63 0,1.45 0.52,1.62 0.93,1.62 0.42,0 0.94,-0.17 0.94,-1.62zm-2.95 0c0,-0.73 0.17,-2.57 2.01,-2.57 1.84,0 2.02,1.84 2.02,2.57 0,0.73 -0.18,2.57 -2.02,2.57 -1.84,0 -2.01,-1.84 -2.01,-2.57z"/>
  <path class="fil5" d="M74.55 71.4c-0.01,0.75 0.46,0.77 0.73,0.77 0.25,0 0.64,-0.02 0.64,-0.5 0,-0.53 -0.45,-0.61 -0.95,-0.75 -1,-0.28 -1.32,-0.59 -1.32,-1.5 0,-0.59 0.21,-1.44 1.64,-1.44 1.4,0 1.52,1.05 1.53,1.47l-0.96 0c-0.02,-0.49 -0.39,-0.53 -0.62,-0.53 -0.29,0 -0.55,0.07 -0.55,0.47 0,0.33 0.18,0.47 0.73,0.6 1.23,0.29 1.55,0.68 1.55,1.51 0,0.65 -0.18,1.62 -1.7,1.62 -0.91,0 -1.75,-0.31 -1.75,-1.72l1.03 0z"/>
  <path class="fil5" d="M79.89 71.24l-0.46 -1.82 -0.46 1.82 0.92 0zm0.06 -3.12l1.45 4.86 -1.06 0 -0.25 -0.91 -1.32 0 -0.25 0.91 -1.06 0 1.46 -4.86 1.03 0z"/>
  <polygon class="fil5" points="81.72,69.06 81.72,68.12 85.1,68.12 85.1,69.06 83.92,69.06 83.92,72.98 82.91,72.98 82.91,69.06 "/>
  <path class="fil5" d="M88.73 70.55c0,-1.3 -0.4,-1.63 -0.93,-1.63 -0.53,0 -0.93,0.33 -0.93,1.63 0,1.45 0.51,1.62 0.93,1.62 0.42,0 0.93,-0.17 0.93,-1.62zm-2.94 0c0,-0.73 0.17,-2.57 2.01,-2.57 1.84,0 2.02,1.84 2.02,2.57 0,0.73 -0.18,2.57 -2.02,2.57 -1.84,0 -2.01,-1.84 -2.01,-2.57z"/>
  <polygon class="fil5" points="91.98,69.86 91.96,69.86 91.96,72.98 90.95,72.98 90.95,68.12 92.33,68.12 93.21,71.29 94.09,68.12 95.47,68.12 95.47,72.98 94.46,72.98 94.46,69.86 94.45,69.86 93.57,72.98 92.85,72.98 "/>
 </g>
</svg>
