<?xml version="1.0" encoding="UTF-8" standalone="no"?>
<!-- Created with Inkscape (http://www.inkscape.org/) -->

<svg
   xmlns:dc="http://purl.org/dc/elements/1.1/"
   xmlns:cc="http://creativecommons.org/ns#"
   xmlns:rdf="http://www.w3.org/1999/02/22-rdf-syntax-ns#"
   xmlns:svg="http://www.w3.org/2000/svg"
   xmlns="http://www.w3.org/2000/svg"
   xmlns:sodipodi="http://sodipodi.sourceforge.net/DTD/sodipodi-0.dtd"
   xmlns:inkscape="http://www.inkscape.org/namespaces/inkscape"
   xml:space="preserve"
   height="84"
   viewBox="0 0 350 83.999748"
   width="350"
   version="1.1"
   id="svg48"
   sodipodi:docname="Russian-Helicopters.svg"
   inkscape:version="0.92.4 (5da689c313, 2019-01-14)"><defs
     id="defs52" /><sodipodi:namedview
     pagecolor="#ffffff"
     bordercolor="#666666"
     borderopacity="1"
     objecttolerance="10"
     gridtolerance="10"
     guidetolerance="10"
     inkscape:pageopacity="0"
     inkscape:pageshadow="2"
     inkscape:window-width="640"
     inkscape:window-height="480"
     id="namedview50"
     showgrid="false"
     inkscape:zoom="1.8608662"
     inkscape:cx="233.18492"
     inkscape:cy="74.941564"
     inkscape:current-layer="svg48" /><metadata
     id="metadata2"><rdf:RDF><cc:Work
         rdf:about=""><dc:format>image/svg+xml</dc:format><dc:type
           rdf:resource="http://purl.org/dc/dcmitype/StillImage" /><dc:title></dc:title></cc:Work></rdf:RDF></metadata><g
     transform="matrix(0.97714732,0,0,0.97714732,-241.53924,-87.917202)"
     id="g46"
     style="fill:#a41934;stroke-width:2.59735656"><path
       d="m 295.29,94.949 c -2.1892,-0.38812 -4.4419,-0.59107 -6.7453,-0.59107 -17.831,0 -32.836,12.103 -37.263,28.536 l 42.281,-5.8651 z"
       id="path4"
       inkscape:connector-curvature="0"
       style="stroke-width:2.59735656" /><path
       d="m 304.55,97.823 -8.3385,19.318 28.25,1.6464 c -3.6758,-9.2999 -10.858,-16.832 -19.911,-20.964"
       id="path6"
       inkscape:connector-curvature="0"
       style="stroke-width:2.59735656" /><path
       d="m 294.84,119.43 -40.442,31.522 c 6.4638,12.253 19.33,20.601 34.15,20.601 21.317,0 38.597,-17.281 38.597,-38.595 0,-0.53526 -0.0152,-1.0604 -0.0329,-1.5855 z"
       id="path8"
       inkscape:connector-curvature="0"
       style="stroke-width:2.59735656" /><path
       d="m 351.96,117.4 h 4.6626 l 4.6677,10.738 h 6.2329 l -4.8275,-10.979 c 2.415,-0.68241 3.9396,-2.7347 3.9396,-5.4668 v -6.7986 c 0,-3.3765 -2.3288,-5.7078 -5.7078,-5.7078 h -14.757 v 28.952 h 5.789 z m 0,-12.745 h 7.5216 c 0.88281,0 1.3648,0.48198 1.3648,1.3699 v 4.6195 c 0,0.88535 -0.48198,1.3699 -1.3648,1.3699 H 351.96 Z"
       id="path10"
       inkscape:connector-curvature="0"
       style="stroke-width:2.59735656" /><path
       d="m 386.83,128.3 c 3.3765,0 5.7079,-2.3313 5.7079,-5.7078 v -23.405 h -5.7891 v 22.278 c 0,0.88281 -0.48198,1.3673 -1.3648,1.3673 h -6.3572 c -0.88534,0 -1.3648,-0.48452 -1.3648,-1.3673 v -22.278 h -5.794 v 23.405 c 0,3.3765 2.3339,5.7078 5.7129,5.7078 z"
       id="path12"
       inkscape:connector-curvature="0"
       style="stroke-width:2.59735656" /><path
       d="m 412.28,111.57 -7.4786,-1.6083 c -0.88525,-0.20295 -1.3697,-0.482 -1.3697,-1.3699 v -2.7296 c 0,-0.88535 0.48449,-1.3699 1.3697,-1.3699 h 5.7891 c 0.88525,0 1.3647,0.48453 1.3647,1.3699 v 2.2501 h 5.6318 v -3.379 c 0,-3.3765 -2.3314,-5.7078 -5.7104,-5.7078 h -8.5235 c -3.3791,0 -5.7104,2.3313 -5.7104,5.7078 v 4.9061 c 0,3.2167 2.6534,5.1066 5.7891,5.7915 l 7.4784,1.6083 c 0.88779,0.2004 1.37,0.48451 1.37,1.3699 v 3.0543 c 0,0.88281 -0.48221,1.3673 -1.37,1.3673 h -6.2708 c -0.88549,0 -1.3675,-0.48452 -1.3675,-1.3673 v -2.5749 h -5.6292 v 3.7012 c 0,3.374 2.3314,5.7078 5.7104,5.7078 h 9.0055 c 3.3791,0 5.7104,-2.3338 5.7104,-5.7078 v -5.2309 c 0,-3.2141 -2.656,-5.1066 -5.7889,-5.789"
       id="path14"
       inkscape:connector-curvature="0"
       style="stroke-width:2.59735656" /><path
       d="m 443.21,122.59 v -5.2283 c 0,-3.2167 -2.656,-5.1091 -5.7889,-5.7915 l -7.4837,-1.6083 c -0.88525,-0.20295 -1.3647,-0.482 -1.3647,-1.3699 v -2.7296 c 0,-0.88535 0.47943,-1.3699 1.3647,-1.3699 h 5.7916 c 0.88525,0 1.3672,0.48453 1.3672,1.3699 v 2.2501 h 5.6292 v -3.379 c 0,-3.3765 -2.3314,-5.7078 -5.7079,-5.7078 h -8.5261 c -3.3765,0 -5.7104,2.3313 -5.7104,5.7078 v 4.9061 c 0,3.2167 2.6537,5.1091 5.7916,5.7915 l 7.4784,1.6083 c 0.88297,0.20293 1.37,0.48198 1.37,1.3699 v 3.0543 c 0,0.88281 -0.48704,1.3699 -1.37,1.3699 h -6.2734 c -0.8855,0 -1.37,-0.48707 -1.37,-1.3699 v -2.5749 h -5.6267 v 3.7012 c 0,3.3765 2.3339,5.7078 5.7104,5.7078 h 9.0055 c 3.3816,0 5.713,-2.3313 5.713,-5.7078"
       id="path16"
       inkscape:connector-curvature="0"
       style="stroke-width:2.59735656" /><path
       d="m 448.71,128.14 h 5.794 V 99.188 h -5.794 z"
       id="path18"
       inkscape:connector-curvature="0"
       style="stroke-width:2.59735656" /><path
       d="m 466.25,121.63 h 9.3684 l 1.8898,6.5145 h 6.233 l -9.3278,-28.952 h -6.7556 l -9.3304,28.952 h 5.9919 z m 4.7463,-16.086 3.0544,10.617 h -6.1924 z"
       id="path20"
       inkscape:connector-curvature="0"
       style="stroke-width:2.59735656" /><path
       d="m 492.99,108.39 10.655,19.746 h 6.2328 V 99.184 h -5.4287 v 19.744 l -10.657,-19.744 h -6.233 v 28.952 h 5.4313 z"
       id="path22"
       inkscape:connector-curvature="0"
       style="stroke-width:2.59735656" /><path
       d="m 361.93,149.2 h -9.9747 v -11.421 h -5.7864 v 28.947 h 5.7864 v -12.057 h 9.9747 v 12.057 h 5.789 v -28.947 h -5.789 z"
       id="path24"
       inkscape:connector-curvature="0"
       style="stroke-width:2.59735656" /><path
       d="m 374.08,166.73 h 18.937 v -5.4694 h -13.148 v -6.5931 h 10.657 v -5.4668 h -10.657 v -5.9488 h 13.148 v -5.4694 H 374.08 Z"
       id="path26"
       inkscape:connector-curvature="0"
       style="stroke-width:2.59735656" /><path
       d="m 403.91,137.78 h -5.7891 v 28.947 h 17.933 v -5.4693 h -12.144 z"
       id="path28"
       inkscape:connector-curvature="0"
       style="stroke-width:2.59735656" /><path
       d="m 420.43,166.72 h 5.7915 V 137.773 H 420.43 Z"
       id="path30"
       inkscape:connector-curvature="0"
       style="stroke-width:2.59735656" /><path
       d="m 446.77,137.62 h -9.1682 c -3.3765,0 -5.7076,2.3313 -5.7076,5.7078 v 17.854 c 0,3.3765 2.3311,5.7103 5.7076,5.7103 h 9.1682 c 3.3763,0 5.7076,-2.3338 5.7076,-5.7103 v -4.6626 h -5.7863 v 3.5363 c 0,0.88281 -0.48449,1.3699 -1.37,1.3699 h -6.2683 c -0.88803,0 -1.3675,-0.48707 -1.3675,-1.3699 v -15.599 c 0,-0.8828 0.47943,-1.3673 1.3675,-1.3673 h 6.2683 c 0.8855,0 1.37,0.48453 1.37,1.3673 v 3.5388 h 5.7863 v -4.6677 c 0,-3.3765 -2.3314,-5.7078 -5.7076,-5.7078"
       id="path32"
       inkscape:connector-curvature="0"
       style="stroke-width:2.59735656" /><path
       d="m 472.34,137.62 h -9.6905 c -3.3791,0 -5.7104,2.3313 -5.7104,5.7078 v 17.851 c 0,3.3765 2.3314,5.7129 5.7104,5.7129 h 9.6905 c 3.3791,0 5.7077,-2.3364 5.7077,-5.7129 v -17.851 c 0,-3.3765 -2.3286,-5.7078 -5.7077,-5.7078 m -0.0813,22.435 c 0,0.88281 -0.47943,1.3674 -1.3675,1.3674 h -6.7959 c -0.8855,0 -1.3649,-0.48454 -1.3649,-1.3674 v -15.599 c 0,-0.88282 0.47943,-1.3724 1.3649,-1.3724 h 6.7959 c 0.88803,0 1.3675,0.48959 1.3675,1.3724 z"
       id="path34"
       inkscape:connector-curvature="0"
       style="stroke-width:2.59735656" /><path
       d="m 498.52,137.78 h -14.797 v 28.95 h 5.7889 v -10.213 h 9.0083 c 3.3765,0 5.7079,-2.3288 5.7079,-5.7078 v -7.3187 c 0,-3.3765 -2.3314,-5.7103 -5.7079,-5.7103 m -0.0838,11.903 c 0,0.88282 -0.47943,1.3699 -1.3647,1.3699 h -7.5599 v -7.8006 h 7.5599 c 0.88525,0 1.3647,0.47944 1.3647,1.3648 z"
       id="path36"
       inkscape:connector-curvature="0"
       style="stroke-width:2.59735656" /><path
       d="m 506.4,143.16 h 7.5571 v 23.562 h 5.7888 V 143.16 h 7.5622 v -5.3882 h -20.908 z"
       id="path38"
       inkscape:connector-curvature="0"
       style="stroke-width:2.59735656" /><path
       d="m 531.48,166.73 h 18.937 v -5.4694 h -13.148 v -6.5931 h 10.657 v -5.4668 h -10.657 v -5.9488 h 13.148 v -5.4694 H 531.48 Z"
       id="path40"
       inkscape:connector-curvature="0"
       style="stroke-width:2.59735656" /><path
       d="m 575.99,150.28 v -6.7986 c 0,-3.374 -2.3311,-5.7078 -5.7102,-5.7078 h -14.754 v 28.95 h 5.7889 v -10.736 h 4.6628 l 4.6676,10.736 h 6.2305 l -4.8224,-10.977 c 2.4123,-0.67984 3.9369,-2.7321 3.9369,-5.4668 m -5.7889,-1.0452 c 0,0.88535 -0.4845,1.3699 -1.37,1.3699 h -7.5165 v -7.3592 h 7.5165 c 0.8855,0 1.37,0.47945 1.37,1.3648 z"
       id="path42"
       inkscape:connector-curvature="0"
       style="stroke-width:2.59735656" /><path
       d="m 595.49,150.16 -7.48,-1.61 c -0.8827,-0.2004 -1.3647,-0.48198 -1.3647,-1.3673 v -2.7321 c 0,-0.8828 0.48197,-1.3673 1.3647,-1.3673 h 5.7942 c 0.88526,0 1.3621,0.48453 1.3621,1.3673 v 2.2527 h 5.6318 v -3.3816 c 0,-3.374 -2.3288,-5.7078 -5.7104,-5.7078 h -8.5235 c -3.3765,0 -5.7079,2.3338 -5.7079,5.7078 v 4.9087 c 0,3.2167 2.6537,5.1066 5.7891,5.789 l 7.4784,1.6083 c 0.8855,0.20293 1.3675,0.48198 1.3675,1.3673 v 3.0543 c 0,0.88281 -0.48196,1.3699 -1.3675,1.3699 h -6.2734 c -0.88297,0 -1.3649,-0.48707 -1.3649,-1.3699 v -2.5698 h -5.6292 v 3.6961 c 0,3.3765 2.3314,5.7103 5.7079,5.7103 h 9.0083 c 3.3763,0 5.7076,-2.3338 5.7076,-5.7103 v -5.2283 c 0,-3.2141 -2.6509,-5.104 -5.7889,-5.789"
       id="path44"
       inkscape:connector-curvature="0"
       style="stroke-width:2.59735656" /></g></svg>