<svg xmlns="http://www.w3.org/2000/svg" width="280" height="80" viewBox="0 0 280 80"><defs><style>.a{fill:#db2b36;}.b{fill:#fff;}</style></defs><g transform="translate(-1075 -1861)"><g transform="translate(1073.7 1860.5)"><rect class="a" width="79.8" height="80" transform="translate(1.3 0.5)"/><path class="b" d="M72.3,15.7l-9,14.5a4.4,4.4,0,0,0-.4,4.1L76.5,69.1H20.2a8.941,8.941,0,0,1-9-8.9l-.1-46.4c.1-6,8.9-6.1,9,0V57.2a2.948,2.948,0,0,0,2.8,2.9H64.2L53.5,35a9.818,9.818,0,0,1-.5-2.9,10.807,10.807,0,0,1,1.2-4.2L64,11.7a4.485,4.485,0,0,1,3.9-2.5,4.313,4.313,0,0,1,4.6,4.2,5.832,5.832,0,0,1-.2,2.3"/><path class="b" d="M41.2,45V13.9c0-6.1,8.8-6.1,8.9,0V45.3c0,7.2-5.4,11.9-12,11.9a11.7,11.7,0,0,1-12-11.9V13.9c0-6.1,8.9-6.1,8.9,0V45c.1,4.1,6.2,4.4,6.2,0"/></g><g transform="translate(1073.7 1860.5)"><path class="a" d="M92.2,44.1V7.5h9.9v28h12.5v8.6Z"/><path class="a" d="M119.2,7.5h10V25.3c0,2.7.1,4.6.2,5.7a11.211,11.211,0,0,0,.7,2.9,3.884,3.884,0,0,0,2,2,7.546,7.546,0,0,0,3.5.7,11.076,11.076,0,0,0,1.9-.2,4.418,4.418,0,0,0,1.6-.6,3.922,3.922,0,0,0,2-2.2,13.683,13.683,0,0,0,.7-2.9c.1-1.2.2-3.1.2-5.6V7.5h9.9V26.9c0,2-.1,3.7-.2,5.2a16.789,16.789,0,0,1-.6,3.7,11.413,11.413,0,0,1-2.5,4.9,10.639,10.639,0,0,1-5.2,3.3,26.645,26.645,0,0,1-8,1.1,26.175,26.175,0,0,1-8-1.1,11.956,11.956,0,0,1-5.2-3.3,11.85,11.85,0,0,1-2.4-4.9,37.791,37.791,0,0,1-.8-8.9V7.5Z"/><path class="a" d="M159.4,44.1V7.5h9.9V24.1L180.9,7.5h11.7L179,25.3l14.7,18.8H181.3l-12-16.4V44.1Z"/><path class="a" d="M214.7,36.6a8.778,8.778,0,0,0,6.9-3.1,11.13,11.13,0,0,0,2.7-7.7,11.582,11.582,0,0,0-.7-4.2,9.1,9.1,0,0,0-2.1-3.5,9.008,9.008,0,0,0-13.6,0,11.13,11.13,0,0,0-2.7,7.7,10.959,10.959,0,0,0,2.7,7.7,8.051,8.051,0,0,0,6.8,3.1m19.5-10.8a20.285,20.285,0,0,1-1.4,7.4,20,20,0,0,1-4.2,6.2,20.887,20.887,0,0,1-6.4,4.2,19.5,19.5,0,0,1-15,0,20.887,20.887,0,0,1-6.4-4.2,20,20,0,0,1-4.2-6.2,19,19,0,0,1,0-14.8,18.713,18.713,0,0,1,4.3-6.2,19.607,19.607,0,0,1,13.8-5.7A18.954,18.954,0,0,1,222.2,8a19.326,19.326,0,0,1,6.3,4.2,20,20,0,0,1,4.2,6.2,18.826,18.826,0,0,1,1.5,7.4"/><rect class="a" width="10.1" height="36.7" transform="translate(240.7 7.5)"/><path class="a" d="M258.9,44.1V7.5h10v28h12.4v8.6Z"/><path class="a" d="M109.8,63.7a8.21,8.21,0,0,0-.5-2.8,7.635,7.635,0,0,0-1.5-2.3,7.326,7.326,0,0,0-2.3-1.6,6.71,6.71,0,0,0-2.8-.6,7.635,7.635,0,0,0-2.7.5,7.326,7.326,0,0,0-2.3,1.6,7.476,7.476,0,0,0-1.5,2.4,7.366,7.366,0,0,0-.4,1.4,7.083,7.083,0,0,0-.1,1.5,8.675,8.675,0,0,0,.5,2.8c.2.5.4.9.6,1.3a4.811,4.811,0,0,0,.9,1.1,7.326,7.326,0,0,0,2.3,1.6,6.71,6.71,0,0,0,2.8.6,7.635,7.635,0,0,0,2.7-.5,7.326,7.326,0,0,0,2.3-1.6,7.759,7.759,0,0,0,1.6-2.4,16.521,16.521,0,0,0,.4-3m3.3,0a10.065,10.065,0,0,1-.8,3.9,10.375,10.375,0,0,1-2.3,3.3,9.49,9.49,0,0,1-3.4,2.2,10.686,10.686,0,0,1-11.4-2.2,12.269,12.269,0,0,1-2.3-3.3,10.571,10.571,0,0,1-.8-4,10.974,10.974,0,0,1,.8-4,9.38,9.38,0,0,1,2.3-3.3,9.49,9.49,0,0,1,3.4-2.2,10.4,10.4,0,0,1,8,0,9.49,9.49,0,0,1,3.4,2.2,10.375,10.375,0,0,1,2.3,3.3,11.941,11.941,0,0,1,.8,4.1"/><rect class="a" width="3.2" height="19.5" transform="translate(116.8 53.9)"/><path class="a" d="M124.6,73.4V53.9h3.1V70.6h7.1v2.8Z"/><path class="a" d="M161.3,58.6a8.525,8.525,0,0,0-2.9-1.7,8.331,8.331,0,0,0-1.5-.4,8.6,8.6,0,0,0-1.6-.1,6.856,6.856,0,0,0-5.2,2.1,7.408,7.408,0,0,0-2,5.3,7.168,7.168,0,0,0,2,5.2,6.416,6.416,0,0,0,4.9,2,9.7,9.7,0,0,0,1.7-.1,9.83,9.83,0,0,0,1.6-.5,10,10,0,0,0,3-1.9v3.6a10.493,10.493,0,0,1-2.8,1.4,7.58,7.58,0,0,1-1.6.3,9.7,9.7,0,0,1-1.7.1,10.7,10.7,0,0,1-4.1-.7,9.334,9.334,0,0,1-3.3-2.1,9.111,9.111,0,0,1-2.2-3.3,10.974,10.974,0,0,1-.8-4,10.571,10.571,0,0,1,.8-4,9.553,9.553,0,0,1,2.2-3.3,10.045,10.045,0,0,1,3.3-2.2,11.047,11.047,0,0,1,4.1-.7,9.7,9.7,0,0,1,1.7.1,9.363,9.363,0,0,1,1.6.4,8.469,8.469,0,0,1,3,1.5Z"/><path class="a" d="M182,63.7a8.21,8.21,0,0,0-.5-2.8,7.635,7.635,0,0,0-1.5-2.3,7.326,7.326,0,0,0-2.3-1.6,6.71,6.71,0,0,0-2.8-.6,7.635,7.635,0,0,0-2.7.5,7.326,7.326,0,0,0-2.3,1.6,7.76,7.76,0,0,0-1.6,2.4,7.366,7.366,0,0,0-.4,1.4,7.083,7.083,0,0,0-.1,1.5,8.675,8.675,0,0,0,.5,2.8c.2.5.4.9.6,1.3a4.811,4.811,0,0,0,.9,1.1,7.326,7.326,0,0,0,2.3,1.6,6.71,6.71,0,0,0,2.8.6,7.635,7.635,0,0,0,2.7-.5,7.326,7.326,0,0,0,2.3-1.6,7.76,7.76,0,0,0,1.6-2.4,11.07,11.07,0,0,0,.5-3m3.3,0a10.065,10.065,0,0,1-.8,3.9,10.375,10.375,0,0,1-2.3,3.3,9.49,9.49,0,0,1-3.4,2.2,10.686,10.686,0,0,1-11.4-2.2,12.269,12.269,0,0,1-2.3-3.3,10.571,10.571,0,0,1-.8-4,10.974,10.974,0,0,1,.8-4,9.38,9.38,0,0,1,2.3-3.3,9.49,9.49,0,0,1,3.4-2.2,10.4,10.4,0,0,1,8,0,9.49,9.49,0,0,1,3.4,2.2,10.375,10.375,0,0,1,2.3,3.3,11.941,11.941,0,0,1,.8,4.1"/><path class="a" d="M204.9,63.8l-.2-1.3-.2-1.4c-.1.5-.2.9-.3,1.4a6.944,6.944,0,0,1-.5,1.3l-5.1,10.4-5.1-10.6c-.2-.5-.4-.9-.6-1.3l-.4-1.2v.7a1.759,1.759,0,0,1-.1.6,5.769,5.769,0,0,1-.3,1.4L190,73.4h-2.9L191.7,53l5.8,12.3.4,1,.7,1.7c.2-.5.5-1.3.9-2.1l.2-.5,5.6-12.3L210,73.5h-2.9Z"/><path class="a" d="M215.7,62.1h.8c1.8,0,3-.2,3.5-.6a2.263,2.263,0,0,0,.9-2,2.531,2.531,0,0,0-.9-2.2,7.031,7.031,0,0,0-3.5-.6h-.8Zm-.2,2.6v8.8h-3V53.9h4.8a21.614,21.614,0,0,1,3.1.2,4.942,4.942,0,0,1,1.8.8,4.887,4.887,0,0,1,1.4,1.8,6.963,6.963,0,0,1,.5,2.5,7.511,7.511,0,0,1-.5,2.6,4.5,4.5,0,0,1-1.4,1.9,7.5,7.5,0,0,1-1.8.8,12.836,12.836,0,0,1-3.1.2h-1.8Z"/><path class="a" d="M231.2,65.8h5.4l-2-4.5-.4-1-.4-1.2c-.1.2-.1.5-.2.6a1.421,1.421,0,0,1-.2.6,4.18,4.18,0,0,1-.4,1Zm8.8,7.6-2.2-5H230l-2.3,5h-3.3l9.5-20.3,9.4,20.3Z"/><path class="a" d="M245.2,73.4V53.1l12.4,12,1,1.1c.3.4.7.8,1.1,1.3V53.9h2.9V74.2L250,62c-.2-.2-.4-.3-.5-.5L249,61a10.629,10.629,0,0,0-.9-1.1V73.5h-2.9Z"/><path class="a" d="M271.4,73.4V64.5l-6.6-10.6h3.3l4.1,6.6.4.7.5.9c0-.1.1-.2.1-.3.1-.2.1-.4.2-.5.1-.3.3-.5.4-.8l4.2-6.6h3.2l-6.7,10.6v9h-3.1Z"/></g></g></svg>