<?xml version="1.0" encoding="UTF-8" standalone="no"?>
<svg
   xmlns:dc="http://purl.org/dc/elements/1.1/"
   xmlns:cc="http://creativecommons.org/ns#"
   xmlns:rdf="http://www.w3.org/1999/02/22-rdf-syntax-ns#"
   xmlns:svg="http://www.w3.org/2000/svg"
   xmlns="http://www.w3.org/2000/svg"
   version="1.1"
   id="svg4765"
   viewBox="0 0 239.2685 252.63118"
   height="71.298134mm"
   width="67.526886mm">
  <defs
     id="defs4767">
    <clipPath
       id="clipPath30"
       clipPathUnits="userSpaceOnUse">
      <path
         id="path32"
         d="m 198.85,114.803 214.485,0 0,586.979 -214.485,0 0,-586.979 z" />
    </clipPath>
  </defs>
  <metadata
     id="metadata4770">
    <rdf:RDF>
      <cc:Work
         rdf:about="">
        <dc:format>image/svg+xml</dc:format>
        <dc:type
           rdf:resource="http://purl.org/dc/dcmitype/StillImage" />
        <dc:title></dc:title>
      </cc:Work>
    </rdf:RDF>
  </metadata>
  <g
     transform="translate(-170.5779,-332.13025)"
     id="layer1">
    <g
       transform="matrix(3.3706197,0,0,3.3706197,-404.37524,-1386.2469)"
       id="g5815">
      <g
         id="g186"
         transform="matrix(1.25,0,0,-1.25,217.4008,531.3337)"
         style="fill:#008490;fill-opacity:1">
        <path
           d="m 0,0 c -13.045,9.089 -28.057,9.262 -33.422,0.387 -5.366,-8.877 0.9,-23.529 13.942,-32.617 13.045,-9.091 28.059,-9.264 33.423,-0.388 C 19.309,-23.741 13.046,-9.087 0,0 m 1.481,0.02 c 14.527,-10.12 21.629,-26.21 15.825,-35.819 -5.807,-9.608 -22.391,-9.193 -36.915,0.926 -14.52,10.12 -21.631,26.213 -15.824,35.821 5.808,9.609 22.388,9.192 36.914,-0.928"
           style="fill:#008490;fill-opacity:1;fill-rule:evenodd;stroke:none"
           id="path188" />
      </g>
      <g
         id="g190"
         transform="matrix(1.25,0,0,-1.25,219.21742,516.8792)"
         style="fill:#008490;fill-opacity:1">
        <path
           d="m 0,0 c -1.907,2.027 -6.825,0.042 -10.954,-4.429 -4.126,-4.469 -5.938,-9.767 -4.033,-11.797 1.908,-2.029 6.826,-0.042 10.955,4.425 C 0.094,-7.33 1.907,-2.03 0,0 m -15.744,-5.678 1.572,0.222 -0.376,1.439 1.631,-0.083 -0.181,1.655 1.262,-0.485 0.352,0.355 -0.105,1.579 0.914,-0.67 0.688,0.555 -0.006,1.289 0.487,-0.397 0.089,-0.46 0.996,0.832 0.079,1.382 0.26,-0.397 0.175,-0.799 0.996,0.648 0.195,1.69 0.287,-0.304 0.073,-1.032 0.912,0.374 0.468,2.105 0.343,-0.613 -0.083,-1.166 0.7,0.203 0.866,2.443 0.331,-0.903 -0.44,-1.367 0.545,0.094 L -1.297,5.28 -0.99,4.099 -1.886,2.544 -1.487,2.548 0.473,5.655 0.793,4.398 -0.714,2.459 -0.316,2.399 2.331,5.633 2.65,4.437 0.418,2.021 0.674,1.838 4.077,5.365 4.339,4.105 1.233,1.27 1.377,1.087 5.279,4.327 5.554,4.527 5.936,3.283 1.879,0.217 2.008,-0.097 6.831,3.166 7.282,1.999 2.473,-0.861 2.654,-1.444 7.635,1.323 8.199,0.244 2.883,-2.195 2.999,-3.037 7.796,-1.183 8.585,-1.781 8.642,-2.227 2.987,-3.801 2.892,-4.925 7.463,-4.318 8.426,-4.692 8.428,-5.234 2.602,-5.902 2.342,-7.151 7.013,-7.851 7.475,-8.133 7.465,-8.6 2.92,-8.304 1.799,-8.22 1.205,-9.438 l 4.521,-2.185 0.074,-0.404 -0.139,-0.332 -0.39,-0.061 -4.886,1.554 -0.626,-0.888 3.452,-3.707 0.071,-0.286 -0.289,-0.345 -1.035,0.114 -3.74,2.279 -0.502,-0.36 2.505,-4.974 -0.223,-0.299 -0.322,-0.137 -1.839,0.492 -1.007,1.27 -1.007,1.268 0.887,-5.599 c -0.838,-0.182 -1.716,-0.085 -2.629,0.291 l -0.706,1.903 -0.224,-4.186 -2.7,0.602 -0.068,0.435 -0.511,-2.148 -2.555,0.603 -0.392,-0.871 -2.042,0.832 -0.238,-0.345 -2.238,1.098 0.093,0.225 -1.653,0.951 0.333,0.604 -1.247,0.942 0.457,0.797 -0.897,1.105 0.695,0.905 -0.844,1.045 0.948,0.997 -0.661,1.003 1.1,0.981 -0.532,1.015 1.195,0.939 -0.409,1.062 1.258,0.785 -0.318,1.172 1.37,0.666 -0.309,1.199 1.53,0.458 -0.26,1.295 z"
           style="fill:#008490;fill-opacity:1;fill-rule:evenodd;stroke:none"
           id="path192" />
      </g>
      <g
         id="g194"
         transform="matrix(1.25,0,0,-1.25,194.63193,551.12207)"
         style="fill:#008490;fill-opacity:1">
        <path
           d="m 0,0 0,-5.37 1.032,0 0,0.957 1.017,0 0,-2.14 -2.975,0 0.002,7.691 3.06,0 -0.002,-2.185 -1.017,0 L 1.117,0 0,0 Z"
           style="fill:#008490;fill-opacity:1;fill-rule:evenodd;stroke:none"
           id="path196" />
      </g>
      <g
         id="g198"
         transform="matrix(1.25,0,0,-1.25,201.14905,549.69232)"
         style="fill:#008490;fill-opacity:1">
        <path
           d="m 0,0 0.974,0 0,-7.691 L 0,-7.69 l 0,3.714 -1.131,-1.25 0,-2.464 -0.975,0 0,7.69 0.975,0 0,-3.984 L 0,-2.735 0,0 Z"
           style="fill:#008490;fill-opacity:1;fill-rule:evenodd;stroke:none"
           id="path200" />
      </g>
      <g
         id="g202"
         transform="matrix(1.25,0,0,-1.25,203.60905,559.3027)"
         style="fill:#008490;fill-opacity:1">
        <path
           d="m 0,0 1.015,0 0,6.568 0.999,0 0,-6.571 1.019,0 0,6.488 0,1.203 -2.018,0 0,-1.1 L 0,6.588 0,0 Z"
           style="fill:#008490;fill-opacity:1;fill-rule:evenodd;stroke:none"
           id="path204" />
      </g>
      <g
         id="g206"
         transform="matrix(1.25,0,0,-1.25,208.74842,559.3027)"
         style="fill:#008490;fill-opacity:1">
        <path
           d="m 0,0 3.041,0 0,7.688 L 0.002,7.684 0,0 Z m 1.025,6.684 0.999,0 0,-5.631 -0.999,0 0,5.631 z"
           style="fill:#008490;fill-opacity:1;fill-rule:evenodd;stroke:none"
           id="path208" />
      </g>
      <path
         d="m 221.57555,553.79445 1.27625,0 0,-4.0975 -1.27625,0 0,4.0975 z"
         style="fill:#008490;fill-opacity:1;fill-rule:evenodd;stroke:none"
         id="path210" />
      <path
         d="m 220.27305,557.9657 1.25125,0 0,-1.39875 -1.25125,0 0,1.39875 z m 0,-2.705 2.455,0 0.0675,0 0,3.75625 0,0.26125 -3.79375,0 0,-9.59375 1.27125,0 0,5.57625 z"
         style="fill:#008490;fill-opacity:1;fill-rule:evenodd;stroke:none"
         id="path212" />
      <path
         d="m 215.18305,558.0007 1.24375,0 0,-1.3975 -1.24375,0 0,1.3975 z m 0,-5.57375 1.24375,0 0,-1.42375 -1.24375,0 0,1.42375 z m 0,2.8675 2.515,0 -0.002,4.0125 -2.5125,0 -1.27625,0 0,-9.615 3.78875,0 0.002,4.04 -2.515,0 0,1.5625 z"
         style="fill:#008490;fill-opacity:1;fill-rule:evenodd;stroke:none"
         id="path214" />
      <g
         id="g216"
         transform="matrix(1.25,0,0,-1.25,225.31468,551.11957)"
         style="fill:#008490;fill-opacity:1">
        <path
           d="m 0,0 0,-2.213 1.112,0 0,-1.002 -1.112,0 0,-2.155 1.031,0 0,0.955 1.017,0 0,-0.955 0,-0.456 0,-0.724 -2.976,0 0,7.688 3.057,0 0.004,-2.184 -1.015,0 L 1.118,0 0,0 Z"
           style="fill:#008490;fill-opacity:1;fill-rule:evenodd;stroke:none"
           id="path218" />
      </g>
      <path
         d="m 202.30305,563.44445 1.24875,0 0,2.725 -1.24875,0 0,-2.725 z m -1.27125,8.135 1.27125,0 0,-4.1025 1.24875,0 0,4.1025 1.27125,0 0,-9.55375 -2.5225,0 0,1.36375 -1.26875,0 0,8.19 z"
         style="fill:#008490;fill-opacity:1;fill-rule:evenodd;stroke:none"
         id="path220" />
      <g
         id="g222"
         transform="matrix(1.25,0,0,-1.25,194.64842,561.88345)"
         style="fill:#008490;fill-opacity:1">
        <path
           d="m 0,0 1.061,0 0,-1.229 -1.028,0 0.002,-6.525 -1.019,0 0,6.664 L 0,-1.09 0,0 Z m 1.031,-7.754 1.017,0 0,6.477 0.997,0 0,-6.477 1.019,0 0.002,7.616 -2.018,0 0,-1.093 -1.017,0 0,-6.523 z"
           style="fill:#008490;fill-opacity:1;fill-rule:evenodd;stroke:none"
           id="path224" />
      </g>
      <g
         id="g226"
         transform="matrix(1.25,0,0,-1.25,212.4948,562.03582)"
         style="fill:#008490;fill-opacity:1">
        <path
           d="m 0,0 -1.017,0 0,-6.535 -0.999,0 0,6.535 -1.017,0 0,-6.535 -0.999,0 0,6.535 -1.019,0 0,-7.628 5.057,0 L 0,0 Z"
           style="fill:#008490;fill-opacity:1;fill-rule:evenodd;stroke:none"
           id="path228" />
      </g>
      <path
         d="m 226.72805,566.19445 1.26875,0 0,-4.1 -1.26875,0 0,4.1 z"
         style="fill:#008490;fill-opacity:1;fill-rule:evenodd;stroke:none"
         id="path230" />
      <path
         d="m 225.4268,570.3257 1.2475,0 0,-1.4025 -1.2475,0 0,1.4025 z m 0,-2.71125 2.52,0 0.002,4.0175 -3.79375,0 -0.005,-9.59 1.27625,0 0,5.5725 z"
         style="fill:#008490;fill-opacity:1;fill-rule:evenodd;stroke:none"
         id="path232" />
      <g
         id="g234"
         transform="matrix(1.25,0,0,-1.25,216.49105,562.03207)"
         style="fill:#008490;fill-opacity:1">
        <path
           d="m 0,0 0.975,0 0,-7.636 -0.975,0 0,3.727 -1.132,-1.25 0,-2.477 -0.975,0 0,7.636 0.975,0 0,-3.919 L 0,-2.666 0,0 Z"
           style="fill:#008490;fill-opacity:1;fill-rule:evenodd;stroke:none"
           id="path236" />
      </g>
      <g
         id="g238"
         transform="matrix(1.25,0,0,-1.25,221.63055,571.57807)"
         style="fill:#008490;fill-opacity:1">
        <path
           d="m 0,0 1.017,0 0,7.631 -1.017,0 0,-3.341 -1.086,0 0,3.341 -1.017,0 0,-7.631 1.017,0 0,3.241 L 0,3.241 0,0 Z"
           style="fill:#008490;fill-opacity:1;fill-rule:evenodd;stroke:none"
           id="path240" />
      </g>
    </g>
  </g>
</svg>
