<?xml version="1.0" encoding="UTF-8"?>
<!DOCTYPE svg PUBLIC "-//W3C//DTD SVG 1.1//EN" "http://www.w3.org/Graphics/SVG/1.1/DTD/svg11.dtd">
<!-- Creator: CorelDRAW 2019 (64-Bit Не для перепродажи) -->
<svg xmlns="http://www.w3.org/2000/svg" xml:space="preserve" width="1197px" height="629px" version="1.1" style="shape-rendering:geometricPrecision; text-rendering:geometricPrecision; image-rendering:optimizeQuality; fill-rule:evenodd; clip-rule:evenodd"
viewBox="0 0 629.45 330.52"
 xmlns:xlink="http://www.w3.org/1999/xlink"
 xmlns:xodm="http://www.corel.com/coreldraw/odm/2003">
 <defs>
  <style type="text/css">
   <![CDATA[
    .fil1 {fill:#787C7E;fill-rule:nonzero}
    .fil0 {fill:#006CB4;fill-rule:nonzero}
   ]]>
  </style>
 </defs>
 <g id="Слой_x0020_1">
  <metadata id="CorelCorpID_0Corel-Layer"/>
  <path class="fil0" d="M315.3 164.23c-12.12,0 -21.99,-9.87 -21.99,-22 0,-12.13 9.87,-21.99 21.99,-21.99 12.13,0 22,9.86 22,21.99 0,12.13 -9.87,22 -22,22zm0 -42c-11.03,0 -20,8.97 -20,20 0,11.03 8.97,20.01 20,20.01 11.03,0 20.01,-8.98 20.01,-20.01 0,-11.03 -8.98,-20 -20.01,-20z"/>
  <path class="fil0" d="M396.55 123.8c4.66,-13.59 5.33,-23.41 1.98,-29.2 -3.56,-6.17 -13.36,-10.64 -29.13,-13.29 1.51,7.43 2.7,15.03 3.53,22.65 8.33,6.31 16.24,12.95 23.62,19.84z"/>
  <path class="fil0" d="M292.08 221.43c9.35,10.67 17.45,16.08 24.09,16.08 6.97,0 15.51,-5.98 25.42,-17.79 -7.37,-2.44 -14.72,-5.27 -21.9,-8.44 -9.17,3.88 -18.41,7.28 -27.61,10.15z"/>
  <path class="fil0" d="M286.92 38.98c5.71,-6.19 11.55,-9.33 17.36,-9.33 13.49,0 27.8,20.86 33.96,49.04 -2.47,-1.41 -4.97,-2.8 -7.46,-4.14 -0.22,-0.12 -0.45,-0.24 -0.68,-0.35 0.62,-5.71 -2.09,-11.52 -7.37,-14.56 -2.26,-1.31 -4.84,-2 -7.44,-2 -5.32,0 -10.28,2.86 -12.94,7.46 -2.49,4.32 -2.57,9.38 -0.66,13.61 -9.58,-0.01 -22.71,0.4 -34.96,2.15 -1.16,3.67 -2.26,7.47 -3.26,11.39 -1.22,4.76 -2.29,9.57 -3.21,14.4 15.57,-10.59 31.04,-18.38 45.24,-22.82 0.71,0.61 1.48,1.17 2.32,1.65 0.24,0.14 0.49,0.27 0.74,0.4 -19.04,5.07 -37.83,16.31 -48.84,23.7 -2,11.33 -3.17,22.71 -3.45,33.66 0.01,1.37 0.04,2.75 0.08,4.13 23.79,-18.67 53.25,-29.4 83.17,-30.3 0.61,-9.85 0.2,-19.79 -1.27,-29.59 -3.72,-1.98 -7.48,-3.87 -11.27,-5.68 0.45,-0.56 0.85,-1.15 1.22,-1.78 0.7,-1.21 1.2,-2.48 1.53,-3.77 0.03,0.02 0.07,0.04 0.11,0.06 2.98,1.6 5.99,3.28 8.95,4.99 0,0 0,0 0,0 11.12,6.43 21.83,13.48 31.95,21.01 -2.93,-25.27 -9.86,-50.22 -19.22,-69.05 -10.65,-21.45 -23.62,-33.26 -36.49,-33.26 -7.34,0 -14.75,3.99 -22.01,11.86 -11.75,12.73 -21.91,34.41 -28.61,61.02 -3.78,15.02 -6.26,30.74 -7.42,46.66 4.38,-33.11 15.66,-65.11 29.93,-80.56zm39.55 40.04c-2.3,3.99 -6.59,6.47 -11.21,6.47 -2.25,0 -4.48,-0.6 -6.45,-1.73 -6.17,-3.56 -8.3,-11.49 -4.74,-17.66 2.31,-3.99 6.61,-6.47 11.22,-6.47 2.25,0 4.48,0.6 6.45,1.73 6.17,3.56 8.3,11.49 4.73,17.66z"/>
  <path class="fil0" d="M285.49 216.5l-0.03 0.02c0,0 0,0 -0.01,-0.01 -10.71,2.3 -20.92,3.55 -29.93,3.55 -5.63,0 -10.79,-0.48 -15.32,-1.49 -8.22,-1.84 -13.86,-5.32 -16.77,-10.35 -3.37,-5.82 -2.41,-14.74 2.72,-25.14 4.74,-9.59 12.71,-19.72 22.65,-28.81 0.01,2.77 0.06,5.55 0.14,8.29 0.01,0.28 0.02,0.55 0.03,0.83l0.08 -0.01c-5.29,2.3 -9,7.57 -9,13.69 0,8.23 6.69,14.92 14.92,14.92 5.16,0 9.72,-2.63 12.39,-6.62 4.68,8.18 11.65,19.58 19.42,29.61 3.69,-0.82 7.46,-1.76 11.27,-2.84 4.69,-1.32 9.36,-2.79 13.96,-4.41 -16.96,-8.2 -31.44,-17.73 -42.39,-27.83 0.17,-0.91 0.27,-1.86 0.27,-2.82 0,-0.42 -0.02,-0.82 -0.05,-1.23 13.85,14.1 33.09,24.88 45.16,30.81 10.73,-3.91 21.08,-8.57 30.64,-13.78 1.17,-0.7 2.35,-1.4 3.52,-2.12 -28.04,-11.29 -52,-31.43 -67.72,-56.93 -8.72,4.36 -17.36,9.93 -25.04,16.05 0,0 0.37,7.87 0.72,12.43 -0.7,-0.1 -1.42,-0.16 -2.15,-0.16 -1.4,0 -2.75,0.2 -4.03,0.56 0,-0.07 0,-0.14 -0.01,-0.21 -0.1,-3.31 -0.15,-6.67 -0.15,-10.01 0.01,0 0.01,0 0.01,0 0.01,-12.87 0.76,-25.69 2.22,-38.23 -20.51,15.28 -38.72,33.91 -50.32,51.52 -13.07,19.87 -16.73,36.92 -10.31,48.01 3.68,6.35 10.85,10.76 21.3,13.09 16.91,3.78 40.75,1.71 67.13,-5.84 14.9,-4.26 29.74,-9.99 44.09,-16.98 -13.08,5.43 -26.6,9.69 -39.41,12.44zm-17.59 -39.42c0,7.12 -5.8,12.92 -12.93,12.92 -7.13,0 -12.93,-5.8 -12.93,-12.93 0,-7.13 5.8,-12.93 12.93,-12.93 7.13,0 12.93,5.8 12.93,12.94z"/>
  <path class="fil0" d="M253.35 111.54c1.25,-9.97 2.95,-19.76 5.11,-29.24 -13.32,2.76 -21.71,7 -24.95,12.61 -3.45,5.97 -2.59,16.24 2.57,30.53 5.5,-4.86 11.29,-9.52 17.27,-13.9z"/>
  <path class="fil0" d="M439.36 188.08c-5.15,-16.54 -18.85,-36.17 -38.55,-55.27 -11.1,-10.76 -23.45,-20.75 -36.64,-29.69 26.46,20.33 48.51,46.06 54.76,66.13 2.5,8.04 2.3,14.66 -0.6,19.69 -3.93,6.81 -14.19,10.32 -27.51,10.33 -9.48,0 -20.53,-1.79 -31.95,-5.42 2.55,-1.48 5.08,-3 7.55,-4.53 0.17,-0.11 0.33,-0.21 0.5,-0.31 2.52,1.83 5.59,2.88 8.8,2.88 2.61,0 5.19,-0.7 7.46,-2.02 7.12,-4.12 9.56,-13.27 5.43,-20.39 -2.24,-3.86 -6.1,-6.48 -10.44,-7.22 4.66,-8.01 10.74,-19.25 15.38,-30.54 -2.83,-3.14 -5.86,-6.29 -9.05,-9.41 -3.49,-3.42 -7.11,-6.73 -10.81,-9.92 1.35,18.74 0.35,35.99 -2.91,50.49 -0.88,0.31 -1.74,0.7 -2.56,1.18 -0.35,0.2 -0.69,0.42 -1.01,0.64 5.27,-18.92 5.02,-40.84 4.14,-54.3 -8.77,-7.36 -17.99,-14.03 -27.29,-19.73 -1.21,-0.68 -2.42,-1.35 -3.64,-2.01 4.23,29.94 -1.25,60.79 -15.48,87.14 8.23,5.44 17.05,10.04 26.32,13.66 3.59,-2.24 7.12,-4.56 10.59,-6.96 0.26,0.66 0.58,1.31 0.94,1.95 0.7,1.19 1.55,2.27 2.52,3.21 -2.93,1.82 -5.95,3.62 -8.97,5.36 0,0 0,0 0,0 -11.12,6.42 -22.56,12.18 -34.13,17.19 23.42,10.11 48.58,16.59 69.59,17.87 23.79,1.44 40.43,-3.89 46.84,-15.01 3.67,-6.36 3.91,-14.77 0.72,-24.99zm-74.84 -4.63c-3.58,-6.17 -1.47,-14.1 4.7,-17.67 1.97,-1.14 4.2,-1.75 6.47,-1.75 4.6,0 8.89,2.47 11.2,6.45 3.57,6.17 1.46,14.1 -4.7,17.67 -1.97,1.14 -4.21,1.75 -6.47,1.75 -4.61,0 -8.9,-2.47 -11.2,-6.45z"/>
  <path class="fil1" d="M0 282.52l21.57 0c6,0 10.65,1.68 13.76,4.78 2.63,2.63 4.04,6.34 4.04,10.93 0,7.61 -4.11,12.4 -10.11,14.62l11.53 16.86 -12.14 0 -10.25 -15.1 -8.02 0 0 15.1 -10.38 0 0 -47.19zm20.9 22.92c5.05,0 7.95,-2.7 7.95,-6.81 0,-4.45 -3.1,-6.74 -8.15,-6.74l-10.32 0 0 13.55 10.52 0z"/>
  <path class="fil1" d="M45.05 306.11c0,-13.41 10.58,-24.4 25.14,-24.4 14.57,0 25.02,10.85 25.02,24.4 0,13.42 -10.59,24.41 -25.15,24.41 -14.56,0 -25.01,-10.86 -25.01,-24.41zm39.3 0c0,-8.09 -5.93,-14.83 -14.29,-14.83 -8.36,0 -14.16,6.61 -14.16,14.83 0,8.09 5.94,14.83 14.29,14.83 8.36,0 14.16,-6.6 14.16,-14.83z"/>
  <path class="fil1" d="M99.32 322.83l6.13 -7.34c4.25,3.5 8.7,5.72 14.09,5.72 4.25,0 6.81,-1.68 6.81,-4.58 0,-2.63 -1.61,-3.98 -9.5,-6 -9.51,-2.43 -15.64,-5.05 -15.64,-14.56 0,-8.56 6.87,-14.23 16.51,-14.23 6.88,0 12.75,2.16 17.53,6l-5.39 7.82c-4.18,-2.89 -8.29,-4.65 -12.27,-4.65 -3.98,0 -6.07,1.82 -6.07,4.25 0,3.1 2.02,4.11 10.18,6.2 9.57,2.5 14.97,5.94 14.97,14.29 0,9.37 -7.15,14.63 -17.33,14.63 -7.14,0 -14.36,-2.49 -20.02,-7.55z"/>
  <polygon class="fil1" points="144.92,282.52 180.52,282.52 180.52,291.75 155.23,291.75 155.23,301.33 177.48,301.33 177.48,310.56 155.23,310.56 155.23,320.47 180.85,320.47 180.85,329.71 144.92,329.71 "/>
  <polygon class="fil1" points="189.84,282.52 199.41,282.52 221.53,311.58 221.53,282.52 231.77,282.52 231.77,329.71 222.94,329.71 200.09,299.71 200.09,329.71 189.84,329.71 "/>
  <polygon class="fil1" points="242.54,282.52 278.14,282.52 278.14,291.75 252.86,291.75 252.86,301.33 275.1,301.33 275.1,310.56 252.86,310.56 252.86,320.47 278.48,320.47 278.48,329.71 242.54,329.71 "/>
  <path class="fil1" d="M287.46 282.52l21.58 0c5.99,0 10.65,1.68 13.75,4.78 2.63,2.63 4.04,6.34 4.04,10.93 0,7.61 -4.11,12.4 -10.11,14.62l11.53 16.86 -12.14 0 -10.24 -15.1 -8.03 0 0 15.1 -10.38 0 0 -47.19zm20.9 22.92c5.06,0 7.96,-2.7 7.96,-6.81 0,-4.45 -3.11,-6.74 -8.16,-6.74l-10.32 0 0 13.55 10.52 0z"/>
  <path class="fil1" d="M332.51 306.11c0,-13.41 10.45,-24.4 24.74,-24.4 8.5,0 13.62,2.29 18.54,6.47l-6.54 7.89c-3.64,-3.03 -6.87,-4.79 -12.34,-4.79 -7.54,0 -13.55,6.68 -13.55,14.83 0,8.63 5.94,14.97 14.3,14.97 3.77,0 7.14,-0.94 9.77,-2.83l0 -6.74 -10.45 0 0 -8.97 20.5 0 0 20.5c-4.86,4.11 -11.53,7.48 -20.16,7.48 -14.7,0 -24.81,-10.32 -24.81,-24.41z"/>
  <path class="fil1" d="M384.23 306.11c0,-13.41 10.58,-24.4 25.14,-24.4 14.56,0 25.01,10.85 25.01,24.4 0,13.42 -10.58,24.41 -25.14,24.41 -14.56,0 -25.01,-10.86 -25.01,-24.41zm39.3 0c0,-8.09 -5.93,-14.83 -14.29,-14.83 -8.36,0 -14.16,6.61 -14.16,14.83 0,8.09 5.93,14.83 14.29,14.83 8.36,0 14.16,-6.6 14.16,-14.83z"/>
  <path class="fil1" d="M455.49 282.18l9.58 0 20.22 47.53 -10.85 0 -4.32 -10.59 -19.95 0 -4.32 10.59 -10.58 0 20.22 -47.53zm10.92 27.78l-6.27 -15.31 -6.27 15.31 12.54 0z"/>
  <polygon class="fil1" points="496.06,292.09 481.7,292.09 481.7,282.52 520.8,282.52 520.8,292.09 506.44,292.09 506.44,329.71 496.06,329.71 "/>
  <path class="fil1" d="M523.88 306.11c0,-13.41 10.58,-24.4 25.14,-24.4 14.56,0 25.01,10.85 25.01,24.4 0,13.42 -10.58,24.41 -25.14,24.41 -14.57,0 -25.01,-10.86 -25.01,-24.41zm39.3 0c0,-8.09 -5.93,-14.83 -14.29,-14.83 -8.36,0 -14.16,6.61 -14.16,14.83 0,8.09 5.93,14.83 14.29,14.83 8.36,0 14.16,-6.6 14.16,-14.83z"/>
  <polygon class="fil1" points="582.26,282.52 593.45,282.52 605.85,302.47 618.26,282.52 629.45,282.52 629.45,329.71 619.13,329.71 619.13,298.9 605.85,319.06 605.59,319.06 592.44,299.1 592.44,329.71 582.26,329.71 "/>
 </g>
</svg>
