<?xml version="1.0" encoding="UTF-8"?>
<!DOCTYPE svg PUBLIC "-//W3C//DTD SVG 1.1//EN" "http://www.w3.org/Graphics/SVG/1.1/DTD/svg11.dtd">
<!-- Creator: CorelDRAW 2019 (64-Bit Не для перепродажи) -->
<svg xmlns="http://www.w3.org/2000/svg" xml:space="preserve" width="1360px" height="1215px" version="1.1" style="shape-rendering:geometricPrecision; text-rendering:geometricPrecision; image-rendering:optimizeQuality; fill-rule:evenodd; clip-rule:evenodd"
viewBox="0 0 386.73 345.34"
 xmlns:xlink="http://www.w3.org/1999/xlink"
 xmlns:xodm="http://www.corel.com/coreldraw/odm/2003">
 <defs>
  <style type="text/css">
   <![CDATA[
    .fil0 {fill:black}
    .fil1 {fill:black;fill-rule:nonzero}
   ]]>
  </style>
 </defs>
 <g id="Слой_x0020_1">
  <metadata id="CorelCorpID_0Corel-Layer"/>
  <path id="path12" class="fil0" d="M44.45 44.45l116.22 0 -44.45 -44.45 -116.22 0 0 116.22 44.45 44.45 0 -116.22zm140.22 0l116.22 0 0 116.22 44.45 -44.45 0 -116.22 -116.22 0 -44.45 44.45zm116.22 140.22l0 116.22 -116.22 0 44.45 44.45 116.22 0 0 -116.22 -44.45 -44.45zm-140.22 116.22l-116.22 0 0 -116.22 -44.45 44.45 0 116.22 116.22 0 44.45 -44.45z"/>
  <path id="path14" class="fil1" d="M357.75 1.88l11.12 0 0 2.4 -4.36 0 0 13.31 -2.4 0 0 -13.31 -4.36 0 0 -2.4zm21.1 11.7l5.21 -11.7 2.67 0 0 15.71 -2.4 0 0 -10.32 -4.61 10.32 -1.73 0 -4.62 -10.32 0 10.32 -2.39 0 0 -15.71 2.67 0 5.2 11.7z"/>
 </g>
</svg>
