<?xml version="1.0" encoding="utf-8"?>
<!-- Generator: Adobe Illustrator 16.2.0, SVG Export Plug-In . SVG Version: 6.00 Build 0)  -->
<!DOCTYPE svg PUBLIC "-//W3C//DTD SVG 1.1//EN" "http://www.w3.org/Graphics/SVG/1.1/DTD/svg11.dtd">
<svg version="1.1" id="Layer_1" xmlns="http://www.w3.org/2000/svg" xmlns:xlink="http://www.w3.org/1999/xlink" x="0px" y="0px"
	 width="190.107px" height="83px" viewBox="0 0 190.107 83" enable-background="new 0 0 190.107 83" xml:space="preserve">
<g>
	<path fill="#666666" d="M38.443,80.097h-1.177c-0.282,0-0.37-0.107-0.452-0.322l-0.689-1.938h-3.342l-0.691,1.985
		c-0.05,0.167-0.143,0.274-0.358,0.274h-1.176c-0.132,0-0.185-0.066-0.185-0.174c0-0.037,0-0.09,0.032-0.148l3.22-8.566
		c0.072-0.158,0.161-0.263,0.356-0.263h1.063c0.196,0,0.317,0.093,0.367,0.239l3.242,8.531c0.024,0.059,0.024,0.117,0.024,0.17
		C38.678,80.015,38.614,80.097,38.443,80.097z M34.737,73.764c-0.121-0.372-0.196-0.648-0.264-0.861h-0.028
		c-0.064,0.226-0.143,0.504-0.279,0.873l-0.938,2.775h2.447L34.737,73.764z"/>
	<path fill="#666666" d="M44.153,79.858c-0.634,0.292-1.216,0.398-1.915,0.398c-2.037,0-3.164-1.273-3.164-3.309
		c0-2.052,1.228-3.439,3.281-3.439c0.592,0,1.216,0.123,1.773,0.371c0.104,0.054,0.157,0.081,0.157,0.186
		c0,0.042-0.015,0.122-0.025,0.161l-0.172,0.698c-0.028,0.117-0.078,0.185-0.156,0.185c-0.043,0-0.096-0.027-0.146-0.05
		c-0.386-0.163-0.81-0.292-1.274-0.292c-1.137,0-1.783,0.804-1.783,2.104c0,1.268,0.582,2.14,1.72,2.14
		c0.57,0,0.923-0.108,1.388-0.289c0.039-0.016,0.096-0.04,0.131-0.04c0.083,0,0.133,0.065,0.161,0.158l0.171,0.582
		c0.025,0.092,0.04,0.171,0.04,0.224C44.339,79.753,44.271,79.809,44.153,79.858z"/>
	<path fill="#666666" d="M50.918,80.097h-1.159c-0.188,0-0.225-0.05-0.225-0.264v-3.678c0-0.713-0.2-1.24-0.991-1.24
		c-0.517,0-1.177,0.274-1.59,0.634v4.284c0,0.197-0.051,0.264-0.247,0.264h-1.141c-0.156,0-0.21-0.066-0.21-0.238v-8.742
		c0-0.234,0.103-0.304,0.289-0.331l0.913-0.118c0.054-0.016,0.121-0.016,0.175-0.016c0.146,0,0.221,0.067,0.221,0.254v3.321
		c0.556-0.463,1.387-0.718,2.09-0.718c1.483,0,2.092,0.943,2.092,2.368v3.956C51.136,80.03,51.093,80.097,50.918,80.097z"/>
	<path fill="#666666" d="M53.497,72.834c-0.435,0-0.895-0.287-0.895-0.819c0-0.528,0.438-0.845,0.895-0.845
		c0.453,0,0.893,0.305,0.893,0.831C54.39,72.519,53.937,72.834,53.497,72.834z"/>
	<path fill="#666666" d="M53.976,80.097h-0.924c-0.239,0-0.342-0.091-0.342-0.33v-5.782c0-0.221,0.127-0.302,0.342-0.302h0.924
		c0.214,0,0.333,0.064,0.333,0.302v5.782C54.308,80.006,54.201,80.097,53.976,80.097z"/>
	<path fill="#666666" d="M61.073,77.253h-3.877c0.104,1.018,0.845,1.72,1.891,1.72c0.553,0,1.138-0.132,1.626-0.317
		c0.058-0.017,0.093-0.038,0.146-0.038c0.094,0,0.161,0.054,0.186,0.156l0.19,0.677c0.01,0.064,0.025,0.119,0.025,0.159
		c0,0.092-0.058,0.157-0.215,0.224c-0.644,0.291-1.537,0.424-2.221,0.424c-2.08,0-3.31-1.324-3.31-3.385
		c0-1.986,1.312-3.363,3.281-3.363c0.81,0,1.473,0.304,1.937,0.795c0.603,0.632,0.777,1.467,0.777,2.368v0.2
		C61.507,77.19,61.401,77.253,61.073,77.253z M59.935,76.065c-0.029-0.69-0.428-1.327-1.23-1.327c-0.86,0-1.377,0.688-1.484,1.471
		h2.714C59.935,76.181,59.935,76.091,59.935,76.065z"/>
	<path fill="#666666" d="M67.935,74.001l-2.315,5.845c-0.079,0.201-0.186,0.251-0.385,0.251H64.55c-0.197,0-0.332-0.05-0.396-0.238
		l-2.276-5.897c-0.018-0.039-0.029-0.081-0.029-0.12c0-0.107,0.064-0.158,0.235-0.158h1.166c0.225,0,0.332,0.093,0.386,0.259
		l1.002,3.085c0.132,0.399,0.253,0.834,0.331,1.126h0.011c0.072-0.254,0.2-0.712,0.321-1.084l1.031-3.107
		c0.067-0.228,0.17-0.278,0.41-0.278h0.951c0.176,0,0.264,0.064,0.264,0.188C67.959,73.908,67.946,73.941,67.935,74.001z"/>
	<path fill="#666666" d="M73.83,77.253h-3.874c0.107,1.018,0.849,1.72,1.887,1.72c0.561,0,1.141-0.132,1.634-0.317
		c0.05-0.017,0.09-0.038,0.146-0.038c0.093,0,0.157,0.054,0.182,0.156l0.186,0.677c0.01,0.064,0.025,0.119,0.025,0.159
		c0,0.092-0.051,0.157-0.211,0.224c-0.649,0.291-1.534,0.424-2.222,0.424c-2.08,0-3.303-1.324-3.303-3.385
		c0-1.986,1.306-3.363,3.277-3.363c0.806,0,1.466,0.304,1.93,0.795c0.61,0.632,0.781,1.467,0.781,2.368v0.2
		C74.269,77.19,74.162,77.253,73.83,77.253z M72.696,76.065c-0.029-0.69-0.424-1.327-1.23-1.327c-0.86,0-1.377,0.688-1.484,1.471
		h2.714C72.696,76.181,72.696,76.091,72.696,76.065z"/>
	<path fill="#666666" d="M87.664,80.097h-0.927c-0.235,0-0.343-0.091-0.343-0.33v-3.625c0-0.716-0.186-1.256-0.992-1.256
		c-0.499,0-1.083,0.268-1.494,0.594c0.025,0.12,0.054,1.892,0.054,2.083v2.204c0,0.239-0.092,0.33-0.321,0.33h-0.87
		c-0.239,0-0.347-0.091-0.347-0.33v-3.625c0-0.699-0.145-1.256-0.952-1.256c-0.517,0-1.045,0.291-1.47,0.663v4.218
		c0,0.239-0.103,0.33-0.327,0.33h-0.924c-0.24,0-0.347-0.091-0.347-0.33v-5.782c0-0.209,0.122-0.302,0.317-0.302h0.863
		c0.196,0,0.314,0.064,0.328,0.251l0.015,0.331c0.542-0.477,1.251-0.756,1.94-0.756c0.81,0,1.38,0.361,1.684,0.863
		c0.595-0.569,1.452-0.863,2.261-0.863c0.963,0,1.572,0.476,1.85,0.991c0.25,0.49,0.314,1.071,0.314,1.919v3.348
		C87.979,80.006,87.889,80.097,87.664,80.097z"/>
	<path fill="#666666" d="M92.322,80.257c-2.154,0-3.146-1.455-3.146-3.385c0-1.908,1.163-3.363,3.227-3.363
		c2.155,0,3.15,1.427,3.15,3.374C95.554,78.789,94.387,80.257,92.322,80.257z M92.39,74.768c-1.177,0-1.562,1.017-1.562,2.073
		c0,1.087,0.332,2.156,1.509,2.156c1.167,0,1.562-1.029,1.562-2.114S93.553,74.768,92.39,74.768z"/>
	<path fill="#666666" d="M100.368,73.852l-0.145,0.941c-0.012,0.122-0.083,0.171-0.186,0.171c-0.015,0-0.029,0-0.058,0
		c-0.1-0.028-0.232-0.039-0.353-0.039c-0.449,0-0.941,0.237-1.27,0.634v4.208c0,0.212-0.096,0.33-0.316,0.33h-0.966
		c-0.214,0-0.314-0.107-0.314-0.33V75.64v-1.627c0-0.266,0.128-0.33,0.328-0.33h0.845c0.214,0,0.328,0.064,0.328,0.251l0.015,0.425
		c0.409-0.518,0.863-0.85,1.604-0.85c0.1,0,0.249,0.027,0.367,0.054c0.09,0.024,0.133,0.069,0.133,0.171
		C100.38,73.775,100.38,73.813,100.368,73.852z"/>
	<path fill="#666666" d="M106.304,77.253h-3.877c0.107,1.018,0.848,1.72,1.889,1.72c0.561,0,1.143-0.132,1.628-0.317
		c0.053-0.017,0.095-0.038,0.149-0.038c0.089,0,0.156,0.054,0.181,0.156l0.188,0.677c0.014,0.064,0.028,0.119,0.028,0.159
		c0,0.092-0.054,0.157-0.215,0.224c-0.647,0.291-1.533,0.424-2.221,0.424c-2.076,0-3.307-1.324-3.307-3.385
		c0-1.986,1.312-3.363,3.281-3.363c0.806,0,1.466,0.304,1.931,0.795c0.61,0.632,0.781,1.467,0.781,2.368v0.2
		C106.739,77.19,106.634,77.253,106.304,77.253z M105.166,76.065c-0.029-0.69-0.425-1.327-1.231-1.327
		c-0.858,0-1.373,0.688-1.483,1.471h2.714C105.166,76.181,105.166,76.091,105.166,76.065z"/>
	<path fill="#666666" d="M114.674,79.952c-0.41,0.172-0.951,0.305-1.483,0.305c-0.675,0-1.257-0.171-1.588-0.556
		c-0.406-0.465-0.421-1.007-0.421-1.973v-2.95h-0.624c-0.249,0-0.292-0.054-0.292-0.326v-0.511c0-0.153,0.081-0.259,0.243-0.259
		h0.673v-1.439c0-0.229,0.117-0.294,0.328-0.321l0.953-0.118c0.029,0,0.037,0,0.068,0c0.171,0,0.249,0.093,0.249,0.293v1.586h1.495
		c0.159,0,0.251,0.051,0.251,0.226v0.618c0,0.162-0.106,0.252-0.263,0.252h-1.483v3.028c0,0.396,0.024,0.687,0.171,0.9
		c0.121,0.177,0.307,0.276,0.625,0.276c0.33,0,0.61-0.08,0.844-0.158c0.056-0.012,0.094-0.023,0.133-0.023
		c0.093,0,0.147,0.05,0.171,0.156l0.137,0.662c0.011,0.04,0.011,0.052,0.011,0.081C114.871,79.833,114.806,79.901,114.674,79.952z"
		/>
	<path fill="#666666" d="M118.472,80.257c-2.15,0-3.144-1.455-3.144-3.385c0-1.908,1.159-3.363,3.226-3.363
		c2.154,0,3.146,1.427,3.146,3.374C121.699,78.789,120.537,80.257,118.472,80.257z M118.539,74.768
		c-1.176,0-1.562,1.017-1.562,2.073c0,1.087,0.332,2.156,1.51,2.156c1.162,0,1.561-1.029,1.561-2.114S119.703,74.768,118.539,74.768
		z"/>
	<path fill="#666666" d="M125.5,82.992c-0.641,0-1.317-0.132-1.954-0.41c-0.146-0.064-0.214-0.142-0.214-0.264
		c0-0.068,0.029-0.117,0.043-0.171l0.186-0.582c0.051-0.145,0.104-0.239,0.197-0.239c0.063,0,0.136,0.025,0.2,0.056
		c0.473,0.198,1.017,0.345,1.479,0.345c1.322,0,1.602-0.703,1.602-1.762v-0.53c-0.4,0.388-1.138,0.676-1.722,0.676
		c-0.821,0-1.48-0.265-1.942-0.753c-0.555-0.568-0.834-1.43-0.834-2.393c0-1.775,1.031-3.44,2.945-3.44
		c0.321,0,0.654,0.08,0.958,0.209c0.249,0.107,0.512,0.308,0.673,0.531l0.024-0.343c0.011-0.175,0.108-0.239,0.307-0.239h0.871
		c0.239,0,0.317,0.093,0.317,0.318v5.659C128.637,81.802,127.724,82.992,125.5,82.992z M127.039,75.458
		c-0.269-0.357-0.781-0.65-1.284-0.65c-0.41,0-0.742,0.156-0.98,0.382c-0.407,0.399-0.567,1.073-0.567,1.683
		c0,0.58,0.133,1.2,0.532,1.585c0.235,0.237,0.578,0.356,0.934,0.356c0.518,0,1.098-0.304,1.366-0.632V75.458z"/>
	<path fill="#666666" d="M135.398,77.253h-3.877c0.103,1.018,0.846,1.72,1.891,1.72c0.557,0,1.143-0.132,1.631-0.317
		c0.048-0.017,0.089-0.038,0.142-0.038c0.093,0,0.162,0.054,0.188,0.156l0.185,0.677c0.012,0.064,0.027,0.119,0.027,0.159
		c0,0.092-0.056,0.157-0.212,0.224c-0.653,0.291-1.538,0.424-2.225,0.424c-2.076,0-3.308-1.324-3.308-3.385
		c0-1.986,1.312-3.363,3.283-3.363c0.805,0,1.469,0.304,1.929,0.795c0.607,0.632,0.78,1.467,0.78,2.368v0.2
		C135.833,77.19,135.73,77.253,135.398,77.253z M134.26,76.065c-0.027-0.69-0.425-1.327-1.229-1.327
		c-0.861,0-1.378,0.688-1.48,1.471h2.709C134.26,76.181,134.26,76.091,134.26,76.065z"/>
	<path fill="#666666" d="M140.743,79.952c-0.405,0.172-0.946,0.305-1.476,0.305c-0.677,0-1.26-0.171-1.591-0.556
		c-0.405-0.465-0.42-1.007-0.42-1.973v-2.95h-0.624c-0.247,0-0.292-0.054-0.292-0.326v-0.511c0-0.153,0.08-0.259,0.242-0.259h0.674
		v-1.439c0-0.229,0.118-0.294,0.327-0.321l0.957-0.118c0.025,0,0.04,0,0.064,0c0.17,0,0.252,0.093,0.252,0.293v1.586h1.491
		c0.16,0,0.254,0.051,0.254,0.226v0.618c0,0.162-0.108,0.252-0.265,0.252h-1.48v3.028c0,0.396,0.025,0.687,0.172,0.9
		c0.117,0.177,0.305,0.276,0.624,0.276c0.329,0,0.607-0.08,0.841-0.158c0.059-0.012,0.098-0.023,0.133-0.023
		c0.092,0,0.149,0.05,0.175,0.156l0.13,0.662c0.016,0.04,0.016,0.052,0.016,0.081C140.947,79.833,140.884,79.901,140.743,79.952z"/>
	<path fill="#666666" d="M147.415,80.097h-1.167c-0.185,0-0.221-0.05-0.221-0.264v-3.678c0-0.713-0.204-1.24-0.995-1.24
		c-0.518,0-1.177,0.274-1.588,0.634v4.284c0,0.197-0.053,0.264-0.249,0.264h-1.138c-0.161,0-0.215-0.066-0.215-0.238v-8.742
		c0-0.234,0.108-0.304,0.293-0.331l0.913-0.118c0.054-0.016,0.118-0.016,0.171-0.016c0.146,0,0.225,0.067,0.225,0.254v3.321
		c0.557-0.463,1.387-0.718,2.091-0.718c1.482,0,2.09,0.943,2.09,2.368v3.956C147.625,80.03,147.585,80.097,147.415,80.097z"/>
	<path fill="#666666" d="M154.341,77.253h-3.874c0.104,1.018,0.849,1.72,1.891,1.72c0.556,0,1.142-0.132,1.629-0.317
		c0.05-0.017,0.094-0.038,0.144-0.038c0.097,0,0.157,0.054,0.185,0.156l0.187,0.677c0.011,0.064,0.029,0.119,0.029,0.159
		c0,0.092-0.058,0.157-0.216,0.224c-0.646,0.291-1.533,0.424-2.22,0.424c-2.077,0-3.308-1.324-3.308-3.385
		c0-1.986,1.313-3.363,3.28-3.363c0.811,0,1.468,0.304,1.93,0.795c0.61,0.632,0.781,1.467,0.781,2.368v0.2
		C154.778,77.19,154.673,77.253,154.341,77.253z M153.206,76.065c-0.025-0.69-0.425-1.327-1.229-1.327
		c-0.86,0-1.374,0.688-1.48,1.471h2.71C153.206,76.181,153.206,76.091,153.206,76.065z"/>
	<path fill="#666666" d="M159.573,73.852l-0.147,0.941c-0.014,0.122-0.078,0.171-0.185,0.171c-0.01,0-0.027,0-0.051,0
		c-0.107-0.028-0.242-0.039-0.362-0.039c-0.447,0-0.935,0.237-1.268,0.634v4.208c0,0.212-0.09,0.33-0.317,0.33h-0.963
		c-0.213,0-0.316-0.107-0.316-0.33V75.64v-1.627c0-0.266,0.13-0.33,0.328-0.33h0.849c0.206,0,0.33,0.064,0.33,0.251l0.014,0.425
		c0.409-0.518,0.857-0.85,1.599-0.85c0.107,0,0.247,0.027,0.372,0.054c0.093,0.024,0.13,0.069,0.13,0.171
		C159.585,73.775,159.585,73.813,159.573,73.852z"/>
	<path fill="#005DA2" d="M54.617,63.246H50.22l-9.027-21.594h6.301l5.083,13.748h0.089l4.99-13.748h5.945L54.617,63.246z"/>
	<path fill="#005DA2" d="M97.098,47.234c-1.094-0.632-2.136-0.774-2.725-0.774c-1.27,0-2.45,0.455-3.944,1.68v14.972h-6.124V41.652
		h5.168l0.682,2.226c1.954-1.726,3.631-2.724,5.895-2.724c1.048,0,2.314,0.316,3.268,0.998L97.098,47.234z"/>
	<path fill="#005DA2" d="M106.107,63.565c-3.674,0-6.437-0.862-8.481-2.137l1.905-4.443c1.812,1.271,3.948,1.995,5.988,1.995
		c2.089,0,3.406-0.678,3.406-1.947c0-3.406-9.937-2.045-9.937-9.299c0-3.948,3.175-6.58,8.391-6.58c2.858,0,4.855,0.406,6.623,1.09
		v5.08c-1.951-0.77-4.037-1.45-6.35-1.45c-1.771,0-2.722,0.499-2.722,1.542c0,2.95,10.115,1.858,10.115,9.346
		C115.045,61.708,110.69,63.565,106.107,63.565z"/>
	<path fill="#005DA2" d="M124.585,63.565c-3.991,0-5.489-2.271-5.489-5.169V47.034h-3.944v-4.818h3.944v-5.552l6.124-1.817v7.369
		h6.716l-1.21,4.818h-5.506v9.048c0,1.588,0.638,2.354,2.044,2.354c1.312,0,2.675-0.588,3.491-1.088l1.587,3.811
		C129.896,62.934,126.718,63.565,124.585,63.565z"/>
	<path fill="#005DA2" d="M146.64,63.111l-0.952-1.863c-1.404,1.273-3.31,2.317-6.077,2.317c-4.081,0-7.169-2.725-7.169-6.988
		c0-4.531,3.675-6.891,9.12-7.078l3.628-0.132c0-0.093,0-0.273,0-0.363c0-2.269-1.813-3.219-3.945-3.219
		c-2.18,0-4.041,0.629-5.489,1.449l-1.861-3.72c2.946-1.908,5.76-2.36,8.667-2.36c5.713,0,8.891,2.313,8.891,7.985v13.998
		L146.64,63.111z M145.143,53.401l-2.677,0.093c-2.631,0.089-3.899,0.999-3.899,2.631c0,1.631,1.177,2.675,3.267,2.675
		c1.633,0,2.721-0.544,3.31-0.996V53.401z"/>
	<polygon fill="#005DA2" points="160.317,63.138 160.317,46.769 160.317,28.658 154.149,30.523 154.149,46.769 154.149,63.138 	"/>
	<path fill="#005DA2" d="M9.997,63.565c-4.308,0-7.394-1.408-9.997-2.997l2.732-5.115c2.065,1.401,5.011,2.98,6.916,2.98
		c1.961,0,4.526-0.641,4.526-2.922c0-3.943-7.08-4.649-10.711-8.776c-1.133-1.315-1.904-2.994-1.904-5.306
		c0-4.537,3.584-8.528,10.161-8.528c3.178,0,5.811,0.814,7.533,1.813l-0.093,5.722c-2.539-1.357-4.951-2.546-7.401-2.546
		c-2.225,0-3.691,0.984-3.691,2.709c0,5.173,12.864,4.729,12.864,14.121C20.932,60.163,16.12,63.565,9.997,63.565z"/>
	<path fill="#005DA2" d="M68.548,54.062c0.135,2.892,2.846,4.61,5.692,4.61c2.08,0,3.664-0.409,6.067-1.54l1.397,3.89
		c-2.988,1.849-5.926,2.487-8.455,2.487c-7.683,0-10.846-5.421-10.846-11.027c0-6.06,3.613-11.299,10.033-11.299
		c5.874,0,9.939,4.384,9.939,11.027c0,0.407,0,1.038,0,1.852H68.548z M72.253,45.656c-2.442,0-3.84,2.259-3.84,4.203h7.724
		C76.006,47.824,74.878,45.656,72.253,45.656z"/>
	<path fill="#005DA2" d="M28.546,54.062c0.14,2.892,2.85,4.61,5.692,4.61c2.08,0,3.663-0.409,6.067-1.54l1.405,3.89
		c-2.996,1.849-5.935,2.487-8.463,2.487c-7.679,0-10.846-5.421-10.846-11.027c0-6.06,3.617-11.299,10.032-11.299
		c5.871,0,9.937,4.384,9.937,11.027c0,0.407,0,1.038,0,1.852H28.546z M32.251,45.656c-2.439,0-3.837,2.259-3.837,4.203h7.721
		C36,47.824,34.874,45.656,32.251,45.656z"/>
	
		<linearGradient id="SVGID_1_" gradientUnits="userSpaceOnUse" x1="-952.3135" y1="154.04" x2="-920.2707" y2="154.04" gradientTransform="matrix(0.9636 -0.2672 0.2672 0.9636 1035.479 -390.4518)">
		<stop  offset="0" style="stop-color:#E21F26"/>
		<stop  offset="0.3418" style="stop-color:#E01E25"/>
		<stop  offset="0.4649" style="stop-color:#D91D23"/>
		<stop  offset="0.5527" style="stop-color:#CE191F"/>
		<stop  offset="0.6237" style="stop-color:#BD1419"/>
		<stop  offset="0.6844" style="stop-color:#A70E11"/>
		<stop  offset="0.7372" style="stop-color:#8C0708"/>
		<stop  offset="0.7747" style="stop-color:#740000"/>
	</linearGradient>
	<path fill="url(#SVGID_1_)" d="M166.122,3.74c-1.806,0.832-3.323,1.722-4.581,2.634c-1.322,0.955-2.538,2.151-2.878,3.461
		s0.146,2.945,0.834,4.423c0.675,1.397,1.565,2.91,2.743,4.507c-0.05-0.454-0.032-0.893,0.058-1.298
		c0.277-1.275,1.361-2.425,2.545-3.337c0.86-0.661,1.859-1.306,3-1.918c1.847-0.987,4.084-1.889,6.782-2.64h0.003
		c2.695-0.743,5.08-1.128,7.171-1.229c0.043-1.301-0.016-2.485-0.159-3.563c-0.202-1.478-0.65-2.989-1.62-3.875
		c-0.308-0.283-0.688-0.515-1.113-0.706c-1.953,0.218-4.119,0.634-6.52,1.298l0,0C169.986,2.16,167.915,2.923,166.122,3.74"/>
	
		<linearGradient id="SVGID_2_" gradientUnits="userSpaceOnUse" x1="-922.8438" y1="149.5293" x2="-939.0723" y2="177.1042" gradientTransform="matrix(0.9636 -0.2672 0.2672 0.9636 1035.479 -390.4518)">
		<stop  offset="0" style="stop-color:#007DC4"/>
		<stop  offset="0.1558" style="stop-color:#007BC1"/>
		<stop  offset="0.2862" style="stop-color:#0074B6"/>
		<stop  offset="0.4074" style="stop-color:#0069A5"/>
		<stop  offset="0.5231" style="stop-color:#00598C"/>
		<stop  offset="0.6349" style="stop-color:#00456D"/>
		<stop  offset="0.7438" style="stop-color:#002C46"/>
		<stop  offset="0.8484" style="stop-color:#000F19"/>
		<stop  offset="0.8956" style="stop-color:#000002"/>
	</linearGradient>
	<path fill="url(#SVGID_2_)" d="M189.977,11.068c0.179-1.977,0.163-3.726,0.02-5.271c-0.146-1.624-0.595-3.27-1.556-4.218
		c-0.967-0.95-2.624-1.348-4.249-1.486c-1.556-0.136-3.309-0.114-5.285,0.106c0.425,0.19,0.806,0.422,1.113,0.706
		c0.97,0.886,1.418,2.397,1.62,3.875c0.144,1.079,0.202,2.263,0.159,3.563c-0.068,2.091-0.403,4.48-1.103,7.188v0.002
		c-0.703,2.71-1.568,4.965-2.524,6.829c1.103,0.682,2.16,1.222,3.16,1.634c1.379,0.572,2.918,0.934,4.162,0.54
		c0.405-0.127,0.795-0.342,1.176-0.615c0.785-1.799,1.509-3.883,2.129-6.287C189.423,15.212,189.794,13.032,189.977,11.068"/>
	
		<linearGradient id="SVGID_3_" gradientUnits="userSpaceOnUse" x1="-947.5" y1="156.8379" x2="-933.54" y2="176.7808" gradientTransform="matrix(0.9636 -0.2672 0.2672 0.9636 1035.479 -390.4518)">
		<stop  offset="0" style="stop-color:#595959"/>
		<stop  offset="0.1078" style="stop-color:#737373"/>
		<stop  offset="0.2876" style="stop-color:#979797"/>
		<stop  offset="0.4682" style="stop-color:#B4B4B4"/>
		<stop  offset="0.6477" style="stop-color:#C8C8C8"/>
		<stop  offset="0.8256" style="stop-color:#D5D5D5"/>
		<stop  offset="1" style="stop-color:#D9D9D9"/>
	</linearGradient>
	<path fill="url(#SVGID_3_)" d="M171.688,28.077c-1.599-1.137-3.292-2.553-5.064-4.293c-1.78-1.748-3.225-3.424-4.383-5.018
		c-0.05-0.454-0.032-0.893,0.058-1.298c0.277-1.275,1.361-2.425,2.545-3.337c0.86-0.661,1.859-1.306,3-1.918
		c1.138,1.757,2.658,3.632,4.651,5.591v0.003c1.997,1.963,3.897,3.45,5.678,4.555c1.103,0.682,2.16,1.222,3.16,1.634
		c1.379,0.572,2.918,0.934,4.162,0.54c0.405-0.127,0.795-0.342,1.176-0.615c-0.79,1.812-1.647,3.333-2.528,4.608
		c-0.938,1.349-2.122,2.605-3.437,2.972c-1.313,0.362-2.979-0.104-4.481-0.781C174.815,30.084,173.295,29.22,171.688,28.077"/>
</g>
</svg>
