<?xml version="1.0" encoding="UTF-8"?>
<!DOCTYPE svg PUBLIC "-//W3C//DTD SVG 1.1//EN" "http://www.w3.org/Graphics/SVG/1.1/DTD/svg11.dtd">
<!-- Creator: CorelDRAW 2019 (64-Bit Не для перепродажи) -->
<svg xmlns="http://www.w3.org/2000/svg" xml:space="preserve" width="300px" height="53px" version="1.1" style="shape-rendering:geometricPrecision; text-rendering:geometricPrecision; image-rendering:optimizeQuality; fill-rule:evenodd; clip-rule:evenodd"
viewBox="0 0 131.43 23.15"
 xmlns:xlink="http://www.w3.org/1999/xlink"
 xmlns:xodm="http://www.corel.com/coreldraw/odm/2003">
 <defs>
  <style type="text/css">
   <![CDATA[
    .fil1 {fill:#2B2A29;fill-rule:nonzero}
    .fil0 {fill:#E31E24;fill-rule:nonzero}
   ]]>
  </style>
 </defs>
 <g id="Слой_x0020_1">
  <metadata id="CorelCorpID_0Corel-Layer"/>
  <polygon class="fil0" points="7.06,22.91 0,22.91 0,0.59 13.1,0.59 21.74,7.03 21.74,13.66 7.15,3.3 "/>
  <polygon class="fil1" points="24.1,0.35 30.97,0.35 30.97,23.15 17.87,23.15 9.61,16.42 9.7,9.51 24.1,20.44 "/>
  <path class="fil0" d="M39.53 6.12l1.27 2.85 0 8.68c0,0.76 0.09,1.38 0.28,1.87 0.19,0.48 0.49,0.88 0.89,1.19l0.36 0.28c0.21,0.16 0.32,0.4 0.32,0.73 0,0.25 -0.08,0.45 -0.23,0.61 -0.13,0.14 -0.39,0.21 -0.79,0.21l-2.77 0c-0.73,0 -1.09,-0.28 -1.09,-0.84 0,-0.19 0.03,-0.35 0.11,-0.46 0.07,-0.11 0.24,-0.27 0.5,-0.46 0.76,-0.57 1.15,-1.62 1.15,-3.13l0 -11.53zm5.02 -5.68l6.38 14.96 0 7.14 -3.27 0 -8.14 -18.95c-0.18,-0.4 -0.32,-0.69 -0.44,-0.85 -0.11,-0.16 -0.25,-0.28 -0.43,-0.36l-0.45 -0.23c-0.12,-0.05 -0.22,-0.15 -0.29,-0.29 -0.07,-0.14 -0.11,-0.29 -0.11,-0.47 0,-0.18 0.04,-0.35 0.11,-0.51 0.07,-0.15 0.17,-0.26 0.29,-0.33 0.13,-0.07 0.5,-0.11 1.1,-0.11l5.25 0zm6.38 12.37l-1.27 -2.9 0 -4.48c0,-0.91 -0.1,-1.6 -0.3,-2.09 -0.19,-0.48 -0.54,-0.89 -1.03,-1.23 -0.17,-0.11 -0.29,-0.23 -0.35,-0.35 -0.06,-0.13 -0.1,-0.29 -0.1,-0.48 0,-0.29 0.07,-0.51 0.21,-0.64 0.14,-0.14 0.37,-0.2 0.68,-0.2l3 0c0.41,0 0.67,0.08 0.8,0.26 0.14,0.17 0.21,0.38 0.21,0.61 0,0.23 -0.04,0.4 -0.12,0.51 -0.08,0.12 -0.26,0.27 -0.54,0.46 -0.43,0.3 -0.75,0.74 -0.96,1.35 -0.16,0.44 -0.23,1.04 -0.23,1.8l0 7.38z"/>
  <path class="fil0" d="M58.23 4.55l0.61 3.35 -2.12 10.47c-0.06,0.3 -0.1,0.58 -0.1,0.84 0,0.68 0.24,1.16 0.71,1.46l0.42 0.25c0.26,0.17 0.4,0.44 0.4,0.81 0,0.54 -0.3,0.81 -0.88,0.81l-3.04 0c-0.3,0 -0.53,-0.08 -0.71,-0.25 -0.17,-0.17 -0.25,-0.39 -0.25,-0.69 0,-0.31 0.17,-0.57 0.52,-0.77 0.33,-0.2 0.57,-0.37 0.73,-0.53 0.16,-0.15 0.3,-0.37 0.45,-0.64 0.22,-0.44 0.41,-1.03 0.55,-1.76l2.71 -13.35zm0.83 -4.11l4.83 0 3.33 19.03c0.06,0.33 0.14,0.63 0.21,0.89 0.08,0.2 0.24,0.37 0.48,0.5 0.21,0.12 0.36,0.24 0.44,0.36 0.08,0.11 0.12,0.28 0.12,0.48 0,0.56 -0.31,0.84 -0.94,0.84l-5.98 0c-0.24,0 -0.43,-0.07 -0.58,-0.23 -0.14,-0.16 -0.21,-0.37 -0.21,-0.62 0,-0.22 0.03,-0.38 0.09,-0.49 0.07,-0.11 0.21,-0.24 0.44,-0.41 0.16,-0.1 0.27,-0.22 0.33,-0.35 0.07,-0.13 0.1,-0.29 0.1,-0.49 0,-0.18 -0.01,-0.34 -0.04,-0.48l-0.38 -2.35 -3.35 0 0.33 -1.93 2.68 0 -2.2 -13.17 0.3 -1.58z"/>
  <path class="fil0" d="M76.26 22.54l-5.35 0 -0.31 0c-0.29,0 -0.51,-0.07 -0.67,-0.21 -0.15,-0.15 -0.23,-0.36 -0.23,-0.63 0,-0.44 0.16,-0.73 0.48,-0.87 0.26,-0.12 0.42,-0.19 0.46,-0.22l0.14 -0.19c0.1,-0.17 0.14,-0.45 0.14,-0.82l0 -16.21c0,-0.38 -0.04,-0.66 -0.14,-0.83l-0.14 -0.19c-0.04,-0.02 -0.2,-0.1 -0.46,-0.22 -0.32,-0.14 -0.48,-0.43 -0.48,-0.87 0,-0.27 0.08,-0.48 0.23,-0.62 0.16,-0.15 0.38,-0.22 0.67,-0.22l0.31 0 5.35 0 0.31 0c0.29,0 0.51,0.07 0.67,0.22 0.15,0.14 0.23,0.35 0.23,0.62 0,0.44 -0.16,0.73 -0.48,0.87 -0.26,0.12 -0.42,0.2 -0.46,0.22l-0.14 0.19c-0.1,0.17 -0.14,0.45 -0.14,0.83l0 16.21c0,0.6 0.11,0.96 0.35,1.07l0.37 0.16c0.3,0.13 0.45,0.42 0.45,0.87 0,0.56 -0.28,0.84 -0.85,0.84l-0.31 0zm4.75 -15.69l3.62 12.79c0.09,0.35 0.19,0.61 0.29,0.79 0.11,0.18 0.25,0.32 0.41,0.41 0.17,0.11 0.28,0.19 0.33,0.25 0.11,0.15 0.17,0.35 0.17,0.6 0,0.57 -0.31,0.85 -0.91,0.85l-6.02 0c-0.29,0 -0.51,-0.08 -0.67,-0.24 -0.16,-0.16 -0.23,-0.39 -0.23,-0.69 0,-0.35 0.15,-0.62 0.44,-0.82 0.18,-0.11 0.31,-0.21 0.37,-0.29 0.07,-0.09 0.1,-0.2 0.11,-0.34 0,-0.07 -0.03,-0.25 -0.1,-0.52l-1.53 -6.18c-0.15,-0.57 -0.22,-1.06 -0.22,-1.46 0,-0.38 0.12,-0.79 0.35,-1.23l2.87 -5.46c0.27,-0.5 0.4,-1.03 0.4,-1.58 0,-0.31 -0.06,-0.59 -0.18,-0.85 -0.12,-0.25 -0.28,-0.44 -0.48,-0.55l-0.43 -0.24c-0.27,-0.15 -0.4,-0.41 -0.4,-0.76 0,-0.29 0.08,-0.53 0.25,-0.71 0.11,-0.12 0.29,-0.18 0.55,-0.18l4.27 0c0.28,0 0.49,0.08 0.65,0.25 0.16,0.17 0.23,0.4 0.23,0.7 0,0.46 -0.18,0.78 -0.55,0.97l-0.63 0.34c-0.27,0.13 -0.6,0.43 -1.01,0.88 -0.3,0.35 -0.68,0.92 -1.13,1.73l-0.82 1.54z"/>
  <path class="fil0" d="M92.99 0l0 1.86c-0.49,0.19 -0.87,0.47 -1.13,0.85 -0.26,0.39 -0.39,0.86 -0.39,1.42 0,0.54 0.11,1.01 0.32,1.42 0.22,0.4 0.57,0.79 1.06,1.15 0.34,0.25 1.1,0.73 2.28,1.43 0.72,0.42 1.27,0.8 1.67,1.14 0.39,0.34 0.77,0.77 1.12,1.27 0.94,1.34 1.42,2.93 1.42,4.78 0,1.39 -0.26,2.67 -0.77,3.82 -0.51,1.16 -1.22,2.07 -2.11,2.72 -0.48,0.35 -1.01,0.62 -1.58,0.82 -0.57,0.2 -1.1,0.3 -1.6,0.3l0 -1.84c0.7,-0.23 1.2,-0.55 1.5,-0.95 0.31,-0.41 0.47,-0.96 0.47,-1.65 0,-0.72 -0.24,-1.36 -0.72,-1.91 -0.32,-0.35 -0.93,-0.8 -1.82,-1.33 -0.99,-0.58 -1.66,-0.99 -2.02,-1.24 -0.37,-0.25 -0.72,-0.54 -1.05,-0.88 -1.51,-1.44 -2.26,-3.37 -2.26,-5.78 0,-1.23 0.19,-2.36 0.57,-3.41 0.37,-1.04 0.9,-1.88 1.57,-2.52 0.93,-0.88 2.09,-1.37 3.47,-1.47zm-0.62 21.14l0 1.84c-0.66,0 -1.38,-0.25 -2.17,-0.76 -0.3,-0.18 -0.5,-0.3 -0.61,-0.36l-0.32 -0.08c-0.16,0 -0.28,0.04 -0.36,0.11 -0.08,0.07 -0.21,0.24 -0.39,0.52 -0.14,0.24 -0.3,0.36 -0.47,0.36 -0.44,0 -0.67,-0.46 -0.67,-1.39l0 -5.9c0,-0.3 0.07,-0.56 0.2,-0.77 0.12,-0.21 0.28,-0.32 0.47,-0.33 0.18,-0.01 0.32,0.06 0.42,0.2 0.1,0.15 0.18,0.41 0.26,0.77 0.18,0.93 0.45,1.8 0.79,2.61 0.35,0.81 0.76,1.5 1.22,2.06 0.47,0.58 1.01,0.95 1.63,1.12zm1.57 -19.28l0 -1.78c0.48,0.04 0.89,0.13 1.25,0.25 0.35,0.13 0.85,0.37 1.5,0.74 0.16,0.09 0.29,0.13 0.39,0.13 0.15,0 0.26,-0.07 0.34,-0.21l0.26 -0.47c0.13,-0.24 0.28,-0.36 0.47,-0.36 0.21,0 0.37,0.11 0.47,0.32 0.1,0.21 0.15,0.54 0.15,0.99l0 5.35c0,0.31 -0.06,0.57 -0.2,0.77 -0.13,0.2 -0.3,0.3 -0.51,0.3 -0.16,0 -0.3,-0.07 -0.44,-0.21 -0.07,-0.09 -0.13,-0.19 -0.17,-0.32 -0.05,-0.12 -0.09,-0.33 -0.13,-0.62 -0.09,-0.53 -0.24,-1.08 -0.45,-1.64 -0.22,-0.56 -0.47,-1.06 -0.76,-1.5 -0.58,-0.88 -1.3,-1.46 -2.17,-1.74z"/>
  <path class="fil0" d="M105.2 4.55l0.61 3.35 -2.12 10.47c-0.07,0.3 -0.1,0.58 -0.1,0.84 0,0.68 0.24,1.16 0.71,1.46l0.42 0.25c0.26,0.17 0.39,0.44 0.39,0.81 0,0.54 -0.29,0.81 -0.87,0.81l-3.05 0c-0.29,0 -0.53,-0.08 -0.7,-0.25 -0.17,-0.17 -0.26,-0.39 -0.26,-0.69 0,-0.31 0.18,-0.57 0.53,-0.77 0.33,-0.2 0.57,-0.37 0.73,-0.53 0.15,-0.15 0.3,-0.37 0.45,-0.64 0.22,-0.44 0.4,-1.03 0.55,-1.76l2.71 -13.35zm0.82 -4.11l4.84 0 3.33 19.03c0.06,0.33 0.13,0.63 0.21,0.89 0.07,0.2 0.23,0.37 0.48,0.5 0.21,0.12 0.36,0.24 0.43,0.36 0.09,0.11 0.12,0.28 0.12,0.48 0,0.56 -0.31,0.84 -0.93,0.84l-5.98 0c-0.24,0 -0.43,-0.07 -0.58,-0.23 -0.14,-0.16 -0.21,-0.37 -0.21,-0.62 0,-0.22 0.03,-0.38 0.09,-0.49 0.07,-0.11 0.21,-0.24 0.43,-0.41 0.16,-0.1 0.28,-0.22 0.34,-0.35 0.06,-0.13 0.1,-0.29 0.1,-0.49 0,-0.18 -0.02,-0.34 -0.04,-0.48l-0.38 -2.35 -3.35 0 0.32 -1.93 2.69 0 -2.21 -13.17 0.3 -1.58z"/>
  <path class="fil0" d="M118.18 6.12l1.27 2.85 0 8.68c0,0.76 0.09,1.38 0.28,1.87 0.19,0.48 0.49,0.88 0.9,1.19l0.36 0.28c0.2,0.16 0.31,0.4 0.31,0.73 0,0.25 -0.08,0.45 -0.23,0.61 -0.13,0.14 -0.39,0.21 -0.79,0.21l-2.77 0c-0.73,0 -1.09,-0.28 -1.09,-0.84 0,-0.19 0.04,-0.35 0.11,-0.46 0.08,-0.11 0.24,-0.27 0.5,-0.46 0.77,-0.57 1.15,-1.62 1.15,-3.13l0 -11.53zm5.02 -5.68l6.38 14.96 0 7.14 -3.27 0 -8.14 -18.95c-0.18,-0.4 -0.32,-0.69 -0.43,-0.85 -0.12,-0.16 -0.26,-0.28 -0.43,-0.36l-0.46 -0.23c-0.12,-0.05 -0.22,-0.15 -0.29,-0.29 -0.07,-0.14 -0.11,-0.29 -0.11,-0.47 0,-0.18 0.04,-0.35 0.11,-0.51 0.07,-0.15 0.17,-0.26 0.29,-0.33 0.14,-0.07 0.5,-0.11 1.1,-0.11l5.25 0zm6.38 12.37l-1.27 -2.9 0 -4.48c0,-0.91 -0.1,-1.6 -0.29,-2.09 -0.2,-0.48 -0.54,-0.89 -1.04,-1.23 -0.17,-0.11 -0.28,-0.23 -0.35,-0.35 -0.06,-0.13 -0.09,-0.29 -0.09,-0.48 0,-0.29 0.07,-0.51 0.21,-0.64 0.14,-0.14 0.36,-0.2 0.67,-0.2l3 0c0.41,0 0.68,0.08 0.8,0.26 0.14,0.17 0.21,0.38 0.21,0.61 0,0.23 -0.04,0.4 -0.12,0.51 -0.07,0.12 -0.25,0.27 -0.54,0.46 -0.43,0.3 -0.75,0.74 -0.96,1.35 -0.15,0.44 -0.23,1.04 -0.23,1.8l0 7.38z"/>
 </g>
</svg>
