<?xml version="1.0" encoding="UTF-8"?>
<!DOCTYPE svg PUBLIC "-//W3C//DTD SVG 1.1//EN" "http://www.w3.org/Graphics/SVG/1.1/DTD/svg11.dtd">
<!-- Creator: CorelDRAW 2019 (64-Bit Не для перепродажи) -->
<svg xmlns="http://www.w3.org/2000/svg" xml:space="preserve" width="2248px" height="1422px" version="1.1" style="shape-rendering:geometricPrecision; text-rendering:geometricPrecision; image-rendering:optimizeQuality; fill-rule:evenodd; clip-rule:evenodd"
viewBox="0 0 2415.47 1527.12"
 xmlns:xlink="http://www.w3.org/1999/xlink"
 xmlns:xodm="http://www.corel.com/coreldraw/odm/2003">
 <defs>
  <style type="text/css">
   <![CDATA[
    .fil0 {fill:#727271}
    .fil1 {fill:#E41C3C}
    .fil2 {fill:#727271;fill-rule:nonzero}
   ]]>
  </style>
 </defs>
 <g id="Слой_x0020_1">
  <metadata id="CorelCorpID_0Corel-Layer"/>
  <g id="_2839503614544">
   <path class="fil0" d="M1202.95 231.17l6.54 -1.81c-325.55,101.02 -583.12,274.11 -588.42,401.23 -5.68,136.05 279.83,167.99 637.52,71.33 357.67,-96.67 652.34,-285.4 657.98,-421.45 2.93,-70.5 -72.41,-113.02 -195.39,-124.21 150.32,6.74 244.49,50.53 244.49,128.75 0,149.1 -341.55,366.76 -762.72,486.15 -421.17,119.35 -762.72,95.22 -762.72,-53.87 0,-149.07 341.55,-366.75 762.72,-486.12z"/>
   <polygon class="fil1" points="605.7,1015.07 1663.06,0 1567.22,797.95 1392.39,597.76 "/>
   <path class="fil2" d="M48.45 1387.82l48.45 0c23.49,0 42.38,-15.15 42.38,-36.34 0,-23.85 -18.89,-36.32 -42.38,-36.32l-48.45 0 0 72.66zm86.29 133.22l-57.16 -84.77 -29.13 0 0 84.77 -48.45 0 0 -254.34 90.83 0c66.23,0 96.89,35.57 96.89,84.78 0,35.58 -20.79,69.64 -58.26,81.01l64.33 88.55 -59.05 0z"/>
   <path class="fil2" d="M446.32 1393.86c0,-46.91 -37.86,-84.75 -84.81,-84.75 -46.92,0 -84.75,37.84 -84.75,84.75 0,46.94 37.83,84.82 84.75,84.82 46.95,0 84.81,-37.88 84.81,-84.82zm48.45 0c0,73.44 -59.82,133.25 -133.26,133.25 -73.41,0 -133.21,-59.81 -133.21,-133.25 0,-73.41 59.8,-133.2 133.21,-133.2 73.44,0 133.26,59.79 133.26,133.2z"/>
   <path class="fil2" d="M736.17 1445.35c0,45.4 -34.81,81.77 -102.18,81.77 -65.13,0 -99.16,-37.87 -103.7,-42.41l24.22 -42.41c22.33,25.39 55.99,36.38 80.22,36.38 33.7,0 52.98,-12.51 52.98,-30.29 0,-17.8 -18.15,-26.88 -51.45,-31.81 -72.3,-10.97 -96.89,-37.84 -96.89,-76.45 0,-42.39 34.43,-79.47 97.63,-79.47 11.38,0 49.97,0.74 87.08,31.03l-20.45 41.65c-5.67,-4.95 -30.67,-24.23 -67.37,-24.23 -25.76,0 -48.45,7.17 -48.45,27.62 0,17.38 14.75,23.83 51.46,29.89 55.65,9.09 96.9,24.23 96.9,78.73z"/>
   <path class="fil2" d="M972.41 1452.55l18.55 43.91c-21.58,19.67 -54.12,30.65 -82.51,30.65 -74.55,0 -135.5,-59.81 -135.5,-133.25 0,-73.41 60.95,-133.2 135.5,-133.2 28.39,0 60.93,10.58 82.51,30.27l-18.55 43.9c-16.28,-15.91 -38.6,-25.72 -63.2,-25.72 -48.44,0 -87.82,37.83 -87.82,84.75 0,46.94 39.38,84.82 87.82,84.82 24.96,0 47.29,-9.85 63.2,-26.13z"/>
   <path class="fil2" d="M1240.51 1393.86c0,-46.91 -37.84,-84.75 -84.79,-84.75 -46.91,0 -84.75,37.84 -84.75,84.75 0,46.94 37.84,84.82 84.75,84.82 46.95,0 84.79,-37.88 84.79,-84.82zm48.44 0c0,73.44 -59.79,133.25 -133.23,133.25 -73.41,0 -133.2,-59.81 -133.2,-133.25 0,-73.41 59.79,-133.2 133.2,-133.2 73.44,0 133.23,59.79 133.23,133.2z"/>
   <path class="fil2" d="M1530.4 1445.35c0,45.4 -34.83,81.77 -102.2,81.77 -65.1,0 -99.16,-37.87 -103.7,-42.41l24.22 -42.41c22.32,25.39 56.02,36.38 80.25,36.38 33.67,0 52.99,-12.51 52.99,-30.29 0,-17.8 -18.16,-26.88 -51.48,-31.81 -72.29,-10.97 -96.9,-37.84 -96.9,-76.45 0,-42.39 34.46,-79.47 97.66,-79.47 11.34,0 49.95,0.74 87.05,31.03l-20.45 41.65c-5.68,-4.95 -30.63,-24.23 -67.36,-24.23 -25.74,0 -48.45,7.17 -48.45,27.62 0,17.38 14.77,23.83 51.48,29.89 55.65,9.09 96.89,24.23 96.89,78.73z"/>
   <polygon class="fil2" points="1870.91,1521.04 1819.43,1521.04 1798.24,1354.52 1731.64,1521.04 1707.42,1521.04 1640.78,1354.52 1619.59,1521.04 1568.11,1521.04 1604.45,1266.7 1652.9,1266.7 1719.5,1430.22 1786.13,1266.7 1834.58,1266.7 "/>
   <path class="fil2" d="M2125.6 1393.86c0,-46.91 -37.84,-84.75 -84.78,-84.75 -46.94,0 -84.79,37.84 -84.79,84.75 0,46.94 37.85,84.82 84.79,84.82 46.94,0 84.78,-37.88 84.78,-84.82zm48.45 0c0,73.44 -59.79,133.25 -133.23,133.25 -73.44,0 -133.23,-59.81 -133.23,-133.25 0,-73.41 59.79,-133.2 133.23,-133.2 73.44,0 133.23,59.79 133.23,133.2z"/>
   <path class="fil2" d="M2415.47 1445.35c0,45.4 -34.83,81.77 -102.2,81.77 -65.1,0 -99.16,-37.87 -103.7,-42.41l24.23 -42.41c22.32,25.39 56.01,36.38 80.23,36.38 33.67,0 52.99,-12.51 52.99,-30.29 0,-17.8 -18.18,-26.88 -51.48,-31.81 -72.28,-10.97 -96.89,-37.84 -96.89,-76.45 0,-42.39 34.45,-79.47 97.66,-79.47 11.35,0 49.94,0.74 87.04,31.03l-20.44 41.65c-5.68,-4.95 -30.64,-24.23 -67.37,-24.23 -25.73,0 -48.45,7.17 -48.45,27.62 0,17.38 14.78,23.83 51.48,29.89 55.65,9.09 96.9,24.23 96.9,78.73z"/>
  </g>
 </g>
</svg>
