<?xml version="1.0" encoding="UTF-8"?>
<!DOCTYPE svg PUBLIC "-//W3C//DTD SVG 1.1//EN" "http://www.w3.org/Graphics/SVG/1.1/DTD/svg11.dtd">
<!-- Creator: CorelDRAW 2019 (64-Bit Не для перепродажи) -->
<svg xmlns="http://www.w3.org/2000/svg" xml:space="preserve" width="286px" height="300px" version="1.1" style="shape-rendering:geometricPrecision; text-rendering:geometricPrecision; image-rendering:optimizeQuality; fill-rule:evenodd; clip-rule:evenodd"
viewBox="0 0 5.15 5.37"
 xmlns:xlink="http://www.w3.org/1999/xlink"
 xmlns:xodm="http://www.corel.com/coreldraw/odm/2003">
 <defs>
  <style type="text/css">
   <![CDATA[
    .fil4 {fill:#F6FBFC}
    .fil0 {fill:#50C0DB}
    .fil3 {fill:#0CB8D7}
    .fil1 {fill:#323C80}
    .fil2 {fill:#36367D}
   ]]>
  </style>
 </defs>
 <g id="Слой_x0020_1">
  <metadata id="CorelCorpID_0Corel-Layer"/>
  <path class="fil0" d="M3.06 2.29c0.44,-0.15 0.38,-0.51 1.37,-0.77 -0.02,0.65 0,1.31 0,1.95 0,0.64 0,1.06 -0.71,1.16 -1.15,0.14 -2.57,-0.08 -3.7,0.04 0.91,0.87 0.4,0.66 1.91,0.66 1.37,0 2.24,0.24 2.9,-0.45 0,0 0,-0.02 0.02,-0.03l0.18 -0.32c0.2,-0.55 0.07,-2.9 0.11,-3.79 -0.77,0.05 -1.53,0.28 -2.15,0.75l-0.31 0.32c0.07,0.25 0.25,0.28 0.38,0.48z"/>
  <path class="fil1" d="M0 4.56c0.8,0.22 2.22,-0.62 2.44,-1.05l-0.44 -0.45c-0.16,0.13 -0.14,0.14 -0.25,0.25 -0.24,0.2 -0.73,0.47 -1.04,0.5 -0.02,-0.61 -0.02,-1.25 0,-1.86 0,-0.68 -0.04,-1.08 0.64,-1.21 0.47,-0.09 3.13,-0.06 3.75,-0.05 -0.05,-0.11 -0.53,-0.61 -0.64,-0.64 -0.12,-0.05 -3.29,-0.12 -3.73,0.11 -0.69,0.35 -0.73,0.91 -0.73,1.83 0,0.85 0.02,1.73 0,2.57z"/>
  <path class="fil2" d="M2.42 2.78c0.04,0.09 0.04,-0.06 0.04,0.11 0.02,0.19 -0.02,0.12 -0.02,0.15 -0.27,-0.11 -0.16,-0.2 -0.02,-0.26zm0.28 0.15l-0.08 -0.01c-0.09,-0.05 -0.05,0.14 -0.07,-0.13 -0.07,-0.06 -0.07,-0.07 -0.2,-0.09 -0.24,0.09 -0.22,0.33 -0.02,0.42 0.11,0.07 0.04,-0.03 0.24,0.14l0.05 -0.18c0.04,-0.08 0.04,-0.05 0.08,-0.15z"/>
  <path class="fil3" d="M2.35 2.7c0.13,0.02 0.13,0.03 0.2,0.09l0.04 -0.36c0.23,0.02 0.09,0.02 0.31,0.13 -0.04,-0.14 -0.02,-0.24 -0.35,-0.22l-0.2 0.36z"/>
  <path class="fil4" d="M2.44 3.04c0,-0.03 0.04,0.04 0.02,-0.15 0,-0.17 0,-0.02 -0.04,-0.11 -0.14,0.06 -0.25,0.15 0.02,0.26z"/>
  <path class="fil3" d="M2.62 2.92l0.08 0.01c0.14,-0.26 -0.02,-0.07 0.2,-0.17 -0.11,-0.08 -0.04,-0.04 -0.15,-0.09l-0.13 0.25z"/>
 </g>
</svg>
