<svg xmlns="http://www.w3.org/2000/svg" width="27" height="27" viewBox="0 0 27 27"><defs><style>.a{fill:#c64f15;}.b,.e{fill:none;}.b{stroke:#f8f8f8;stroke-width:4px;}.c{fill:#f8f8f8;}.d{stroke:none;}</style></defs><g transform="translate(-733 -1504)"><rect class="a" width="23.143" height="23.143" transform="translate(735.314 1506.314)"/><g transform="translate(733 1504)"><g class="b"><rect class="d" width="27" height="27" rx="6"/><rect class="e" x="2" y="2" width="23" height="23" rx="4"/></g><g transform="translate(1.542 1.543)"><path class="c" d="M23,1.338A4.393,4.393,0,0,0,19.772,0H4.565A4.395,4.395,0,0,0,1.341,1.338,4.395,4.395,0,0,0,0,4.562V19.769a4.395,4.395,0,0,0,1.338,3.224,4.394,4.394,0,0,0,3.224,1.339H19.772a4.57,4.57,0,0,0,4.562-4.562V4.562A4.395,4.395,0,0,0,23,1.338ZM19.93,18.469a2.86,2.86,0,0,1-1.5,1.268,5.027,5.027,0,0,1-2.068.539,3.921,3.921,0,0,1-.539-.039q-.285-.04-.483-.079a5.164,5.164,0,0,1-.523-.143q-.325-.1-.467-.158l-.523-.2q-.38-.143-.475-.174a14.2,14.2,0,0,1-5.077-3.43A14.2,14.2,0,0,1,4.85,10.977q-.031-.1-.174-.475t-.2-.523q-.055-.143-.158-.467a5.209,5.209,0,0,1-.142-.523q-.04-.2-.079-.483a3.926,3.926,0,0,1-.04-.539A5.027,5.027,0,0,1,4.6,5.9,2.859,2.859,0,0,1,5.864,4.4a4.172,4.172,0,0,1,1.6-.349.736.736,0,0,1,.253.032.934.934,0,0,1,.262.285,6.432,6.432,0,0,1,.4.642q.214.388.42.752t.4.721q.19.356.238.451.048.08.206.3a2.429,2.429,0,0,1,.238.4.806.806,0,0,1,.079.333.942.942,0,0,1-.325.578,5.4,5.4,0,0,1-.713.626,6.183,6.183,0,0,0-.713.61.887.887,0,0,0-.325.531.773.773,0,0,0,.055.261,2.451,2.451,0,0,0,.1.246q.048.095.15.269t.135.222a12.1,12.1,0,0,0,2,2.7,12.09,12.09,0,0,0,2.7,2q.047.032.222.135c.116.068.206.119.269.15a2.411,2.411,0,0,0,.246.1.779.779,0,0,0,.262.055q.253,0,.7-.523t.9-1.038q.459-.514.744-.515a.807.807,0,0,1,.333.079,2.435,2.435,0,0,1,.4.238c.148.106.248.174.3.206l.839.459q.84.444,1.4.784a1.833,1.833,0,0,1,.61.467.742.742,0,0,1,.031.254A4.163,4.163,0,0,1,19.93,18.469Z" transform="translate(-0.003 0)"/></g></g></g></svg>