<svg xmlns="http://www.w3.org/2000/svg" width="27" height="27" viewBox="0 0 27 27"><defs><style>.a{fill:#f8f8f8;}.b{fill:#c64f15;}</style></defs><g transform="translate(-731 -1504)"><rect class="a" width="27" height="27" rx="6" transform="translate(731 1504)"/><g transform="translate(736.4 1511.753)"><path class="b" d="M164.979,48.862c0-.019.013-.037.012-.056l-5.062,4.878,5.056,4.722c0-.034-.006-.068-.006-.1Z" transform="translate(-148.402 -47.673)"/><path class="b" d="M20.97,126.9,18.9,128.889a.54.54,0,0,1-.743.006L16.1,126.975,11.01,131.88a1.173,1.173,0,0,0,.4.079H25.652a1.172,1.172,0,0,0,.569-.157Z" transform="translate(-10.216 -120.139)"/><path class="b" d="M13.995,40.7l7.726-7.442a1.171,1.171,0,0,0-.6-.174H6.877a1.174,1.174,0,0,0-.747.279Z" transform="translate(-5.688 -33.085)"/><path class="b" d="M0,52.1v9.26a1.176,1.176,0,0,0,.051.307l5.026-4.84Z" transform="translate(0 -50.73)"/></g></g></svg>