<svg xmlns="http://www.w3.org/2000/svg" width="30.5" height="30.5" viewBox="0 0 30.5 30.5"><defs><style>.a{fill:#c64f15;stroke:#c64f15;stroke-width:0.5px;}</style></defs><g transform="translate(0.25 0.25)"><path class="a" d="M15,0A15,15,0,1,0,30,15,15.018,15.018,0,0,0,15,0ZM25.62,7.318A28.217,28.217,0,0,1,20.638,8.8a21.207,21.207,0,0,0-3.452-6.729A13.133,13.133,0,0,1,25.62,7.318ZM19.245,19.087a31.261,31.261,0,0,0-8.492,0,19.473,19.473,0,0,1,0-8.162A31.311,31.311,0,0,0,15,11.25a31.283,31.283,0,0,0,4.249-.324A19.473,19.473,0,0,1,19.245,19.087Zm-.486-10a29.351,29.351,0,0,1-7.521,0A19.337,19.337,0,0,1,15,2.37,19.332,19.332,0,0,1,18.759,9.092ZM12.81,2.072A21.2,21.2,0,0,0,9.36,8.8,28.244,28.244,0,0,1,4.38,7.318,13.125,13.125,0,0,1,12.81,2.072ZM1.875,15A13.043,13.043,0,0,1,3.369,8.94a30.173,30.173,0,0,0,5.524,1.7,21.352,21.352,0,0,0,0,8.741,29.974,29.974,0,0,0-5.526,1.687A13.071,13.071,0,0,1,1.875,15ZM4.38,22.682A28.244,28.244,0,0,1,9.36,21.2a21.207,21.207,0,0,0,3.452,6.729A13.124,13.124,0,0,1,4.38,22.682Zm6.861-1.774a29.337,29.337,0,0,1,7.519,0A19.362,19.362,0,0,1,15,27.63,19.332,19.332,0,0,1,11.241,20.908Zm5.946,7.02A21.207,21.207,0,0,0,20.638,21.2a28.422,28.422,0,0,1,4.982,1.483A13.133,13.133,0,0,1,17.186,27.928ZM21.1,19.374a21.31,21.31,0,0,0,0-8.739,30.048,30.048,0,0,0,5.526-1.7,13.042,13.042,0,0,1,0,12.124A30.238,30.238,0,0,0,21.1,19.374Z"/></g></svg>