<svg xmlns="http://www.w3.org/2000/svg" width="27" height="27" viewBox="0 0 27 27"><defs><style>.a{fill:#f8f8f8;}.b{fill:#6d6b6b;}</style></defs><g transform="translate(-688 -1504)"><rect class="a" width="27" height="27" rx="6" transform="translate(688 1504)"/><path class="b" d="M15.791,11.58,8.564,4.589a.823.823,0,0,0-1.137,0L.2,11.58a.476.476,0,0,0-.175.531c.038.1.153.262.489.262h.814v6.213a1.213,1.213,0,0,0,1.184,1.193H6.175V15.567H9.72v4.211h3.759a1.2,1.2,0,0,0,1.16-1.193V12.372h.838c.336,0,.451-.166.489-.262A.476.476,0,0,0,15.791,11.58Z" transform="translate(693.182 1505.039)"/></g></svg>