<svg xmlns="http://www.w3.org/2000/svg" width="20" height="17.667" viewBox="0 0 20 17.667"><defs><style>.a{fill:#25ad1b;}</style></defs><g transform="translate(-0.001 -20.566)"><path class="a" d="M19.127,20.7c-.9-.486-1.909.451-2.5,1.007-1.354,1.319-2.5,2.846-3.784,4.235C11.421,27.47,10.1,29,8.644,30.49a12.524,12.524,0,0,0-2.291,2.777,45.564,45.564,0,0,0-3.714-3.61C1.633,28.893-.034,28.338,0,30.178c.069,2.4,2.187,4.964,3.749,6.6a3.965,3.965,0,0,0,2.534,1.458c1.215.069,2.465-1.388,3.193-2.187,1.284-1.388,2.326-2.951,3.506-4.374,1.527-1.874,3.089-3.714,4.582-5.623C18.5,24.867,21.453,21.951,19.127,20.7Zm-17.6,9.337a.263.263,0,0,0-.139.035,1.689,1.689,0,0,1-.382-.139h0Q1.164,29.831,1.528,30.039Z" transform="translate(0 0)"/></g></svg>