<svg xmlns="http://www.w3.org/2000/svg" width="95" height="95" viewBox="0 0 95 95"><defs><style>.a,.e{fill:#fff;}.b,.d{fill:#c64f15;}.b{stroke:#c64f15;stroke-width:0.7px;}.c,.d,.e{stroke:none;}</style></defs><g transform="translate(-653 -4192)"><g transform="translate(-7)"><g class="a" transform="translate(660 4192)"><path class="c" d="M 47.5 93.5 C 41.28937149047852 93.5 35.26533508300781 92.28397369384766 29.59518623352051 89.88570404052734 C 24.11771965026855 87.56893157958984 19.19813346862793 84.25196075439453 14.97309303283691 80.02690887451172 C 10.74804019927979 75.80186462402344 7.431066513061523 70.88227844238281 5.114293098449707 65.40481567382813 C 2.716026782989502 59.73466491699219 1.5 53.71062850952148 1.5 47.5 C 1.5 41.28937149047852 2.716026782989502 35.26533508300781 5.114293098449707 29.59518623352051 C 7.431066513061523 24.11771965026855 10.74804019927979 19.19813346862793 14.97309303283691 14.97309303283691 C 19.19813346862793 10.74804019927979 24.11771965026855 7.431066513061523 29.59518623352051 5.114293098449707 C 35.26533508300781 2.716026782989502 41.28937149047852 1.5 47.5 1.5 C 53.71062850952148 1.5 59.73466491699219 2.716026782989502 65.40481567382813 5.114293098449707 C 70.88227844238281 7.431066513061523 75.80186462402344 10.74804019927979 80.02690887451172 14.97309303283691 C 84.25196075439453 19.19813346862793 87.56893157958984 24.11771965026855 89.88570404052734 29.59518623352051 C 92.28397369384766 35.26533508300781 93.5 41.28937149047852 93.5 47.5 C 93.5 53.71062850952148 92.28397369384766 59.73466491699219 89.88570404052734 65.40481567382813 C 87.56893157958984 70.88227844238281 84.25196075439453 75.80186462402344 80.02690887451172 80.02690887451172 C 75.80186462402344 84.25196075439453 70.88227844238281 87.56893157958984 65.40481567382813 89.88570404052734 C 59.73466491699219 92.28397369384766 53.71062850952148 93.5 47.5 93.5 Z"/><path class="d" d="M 47.5 3 C 41.49121475219727 3 35.66376876831055 4.176155090332031 30.17950439453125 6.495796203613281 C 24.88084411621094 8.736953735351563 20.12152099609375 11.94598388671875 16.03375244140625 16.03375244140625 C 11.94598388671875 20.12152099609375 8.736953735351563 24.88084411621094 6.495796203613281 30.17950439453125 C 4.176155090332031 35.66376876831055 3 41.49121475219727 3 47.5 C 3 53.50878524780273 4.176155090332031 59.33623123168945 6.495796203613281 64.82049560546875 C 8.736953735351563 70.11915588378906 11.94598388671875 74.87847900390625 16.03375244140625 78.96624755859375 C 20.12152099609375 83.05401611328125 24.88084411621094 86.26304626464844 30.17950439453125 88.50419616699219 C 35.66376876831055 90.82384490966797 41.49121475219727 92 47.5 92 C 53.50878524780273 92 59.33623123168945 90.82384490966797 64.82049560546875 88.50419616699219 C 70.11915588378906 86.26304626464844 74.87847900390625 83.05401611328125 78.96624755859375 78.96624755859375 C 83.05401611328125 74.87847900390625 86.26304626464844 70.11915588378906 88.50419616699219 64.82049560546875 C 90.82384490966797 59.33623123168945 92 53.50878524780273 92 47.5 C 92 41.49121475219727 90.82384490966797 35.66376876831055 88.50419616699219 30.17950439453125 C 86.26304626464844 24.88084411621094 83.05401611328125 20.12152099609375 78.96624755859375 16.03375244140625 C 74.87847900390625 11.94598388671875 70.11915588378906 8.736953735351563 64.82049560546875 6.495796203613281 C 59.33623123168945 4.176155090332031 53.50878524780273 3 47.5 3 M 47.5 0 C 73.7335205078125 0 95 21.2664794921875 95 47.5 C 95 73.7335205078125 73.7335205078125 95 47.5 95 C 21.2664794921875 95 0 73.7335205078125 0 47.5 C 0 21.2664794921875 21.2664794921875 0 47.5 0 Z"/></g></g><g transform="translate(681.266 4217.324)"><path class="b" d="M64.758,161.517H85.992a.758.758,0,0,0,0-1.517H64.758a.758.758,0,0,0,0,1.517Z" transform="translate(-59.45 -146.35)"/><path class="b" d="M64.758,209.517h18.2a.758.758,0,0,0,0-1.517h-18.2a.758.758,0,0,0,0,1.517Z" transform="translate(-59.45 -189.8)"/><path class="b" d="M79.167,256.758a.758.758,0,0,0-.758-.758H64.758a.758.758,0,0,0,0,1.517h13.65A.758.758,0,0,0,79.167,256.758Z" transform="translate(-59.45 -233.25)"/><path class="b" d="M76.892,304H64.758a.758.758,0,0,0,0,1.517H76.892a.758.758,0,1,0,0-1.517Z" transform="translate(-59.45 -276.7)"/><path class="b" d="M160.758,113.517h12.133a.758.758,0,1,0,0-1.517H160.758a.758.758,0,1,0,0,1.517Z" transform="translate(-146.35 -102.9)"/><path class="b" d="M75.375,352H64.758a.758.758,0,0,0,0,1.517H75.375a.758.758,0,0,0,0-1.517Z" transform="translate(-59.45 -320.15)"/><path class="b" d="M59.674,30.4l.544-.544a3.792,3.792,0,0,0-5.362-5.362l-1.072,1.072L52.4,26.948v-5.64a.758.758,0,0,0-.758-.758H47.85V16.758A.758.758,0,0,0,47.092,16H25.858a.758.758,0,0,0-.536.222l-9.1,9.1a.758.758,0,0,0-.222.536V56.192a.758.758,0,0,0,.758.758H20.55v3.792a.758.758,0,0,0,.758.758H51.642a.758.758,0,0,0,.758-.758V37.672l6.2-6.2,1.068,1.074-5.907,5.871a.758.758,0,0,0,1.069,1.076l6.445-6.406a.758.758,0,0,0,0-1.072ZM42.511,45.416,39.3,42.189l6.436-6.436,3.217,3.217Zm-1.405.737-3.83,1.261,1.284-3.822ZM50.03,37.9,46.813,34.68l7.507-7.508,3.217,3.218Zm5.9-12.333a2.275,2.275,0,1,1,3.217,3.217l-.536.536L55.392,26.1Zm-5.045-3.5v6.4L47.85,31.5V22.067ZM25.1,18.589V25.1H18.589Zm-7.583,8.028h8.342a.758.758,0,0,0,.758-.758V17.517H46.333v15.5L37.7,41.651h0a.755.755,0,0,0-.184.294l-2.158,6.421a.758.758,0,0,0,.956.962l6.435-2.119a.757.757,0,0,0,.312-.2h0l3.274-3.274V55.433H17.517ZM50.883,59.983H22.067V56.95H47.092a.758.758,0,0,0,.758-.758V42.222l3.033-3.033V59.983Z" transform="translate(-16 -16)"/><g class="a" transform="translate(31.342 -0.95)"><path class="c" d="M 1.058104395866394 14.71488189697266 L 1.058104395866394 0.4999959468841553 L 7.010190486907959 0.4999959468841553 L 9.945894241333008 6.175454616546631 L 1.058104395866394 14.71488189697266 Z"/><path class="e" d="M 1.558104515075684 0.9999961853027344 L 1.558104515075684 13.54109764099121 L 9.330260276794434 6.073575973510742 L 6.705885887145996 0.9999961853027344 L 1.558104515075684 0.9999961853027344 M 0.5581045150756836 -3.814697265625e-06 L 7.314484596252441 -3.814697265625e-06 L 10.56152439117432 6.277345657348633 L 0.5581045150756836 15.88867568969727 L 0.5581045150756836 -3.814697265625e-06 Z"/></g><g class="a" transform="translate(31.342 27.05)"><path class="c" d="M -11.5973072052002 19.22504806518555 C -15.68816757202148 19.22505760192871 -19.51345825195313 19.12059783935547 -22.36852836608887 18.93091773986816 C -26.22159576416016 18.67492294311523 -27.30987739562988 18.33797073364258 -27.61029624938965 18.19053268432617 C -27.6239128112793 17.81665802001953 -27.59494781494141 16.91322898864746 -27.57479667663574 16.28463745117188 C -27.55082511901855 15.53669738769531 -27.53754997253418 15.057373046875 -27.53842735290527 14.74024295806885 C -27.21030807495117 14.72278118133545 -26.59393882751465 14.70576763153076 -25.4381275177002 14.70576763153076 C -18.44735717773438 14.70576763153076 0.3528625667095184 15.31101703643799 0.5419425368309021 15.3171272277832 L 1.058102607727051 15.33381748199463 L 1.058102607727051 14.81738758087158 L 1.058102607727051 -0.2402625530958176 L 5.357912540435791 -4.514710903167725 L 5.357912540435791 3.5234375 L 5.357912540435791 3.556107521057129 L 5.362162590026855 3.588497400283813 C 5.36628246307373 3.619867563247681 5.776462554931641 6.764037609100342 6.012572765350342 10.15276718139648 C 6.408000946044922 15.82817459106445 6.013872623443604 17.61445045471191 5.721660137176514 18.17562103271484 C 5.557973861694336 18.26593780517578 4.616815567016602 18.63656616210938 -0.09659744799137115 18.92307662963867 C -3.299697399139404 19.11778831481934 -7.384067535400391 19.22502708435059 -11.5973072052002 19.22504806518555 Z"/><path class="e" d="M 4.85791015625 -3.312656402587891 L 1.558099746704102 -0.0323028564453125 L 1.558099746704102 14.8173770904541 L 1.558099746704102 15.85023784637451 L 0.5257797241210938 15.81685733795166 C 0.3367805480957031 15.81074714660645 -18.4552001953125 15.20570755004883 -25.43807983398438 15.20576763153076 C -26.1795482635498 15.20577144622803 -26.69100952148438 15.21264266967773 -27.04343795776367 15.22179698944092 C -27.04972457885742 15.51028728485107 -27.06104469299316 15.86346912384033 -27.07505989074707 16.30065727233887 C -27.09017181396484 16.77216720581055 -27.11055755615234 17.40809440612793 -27.11362457275391 17.83623886108398 C -26.5968074798584 17.98507118225098 -25.27889823913574 18.2464656829834 -22.05678939819336 18.45004653930664 C -19.2502498626709 18.62737655639648 -15.53564929962158 18.72503662109375 -11.59726905822754 18.72503662109375 C -7.516709327697754 18.72503662109375 -3.532659530639648 18.62346649169922 -0.3790187835693359 18.43904685974121 C 3.661342620849609 18.2027645111084 4.961545944213867 17.90970611572266 5.345951080322266 17.78731155395508 C 5.549758911132813 17.22418594360352 5.881175994873047 15.46417903900146 5.514091491699219 10.19197750091553 C 5.279170989990234 6.818027496337891 4.870510101318359 3.684797286987305 4.866411209106445 3.653547286987305 L 4.85791015625 3.588757514953613 L 4.85791015625 3.5234375 L 4.85791015625 -3.312656402587891 M 5.85791015625 -5.716802597045898 L 5.85791015625 3.5234375 C 5.85791015625 3.5234375 7.510250091552734 16.11230850219727 6.125980377197266 18.47753715515137 C 5.659702301025391 19.27423477172852 -3.06834602355957 19.72503852844238 -11.59727191925049 19.72503852844238 C -19.51003456115723 19.72503852844238 -27.25127792358398 19.33713531494141 -28.06786918640137 18.47753715515137 C -28.21323013305664 18.43102645874023 -27.95466995239258 14.4660472869873 -28.06786918640137 14.32616710662842 C -28.13786506652832 14.24041748046875 -27.12258911132813 14.20577526092529 -25.43808937072754 14.20576286315918 C -18.35826873779297 14.20571136474609 0.5580997467041016 14.8173770904541 0.5580997467041016 14.8173770904541 L 0.5580997467041016 -0.4482421875 L 5.85791015625 -5.716802597045898 Z"/></g></g></g></svg>