<svg xmlns="http://www.w3.org/2000/svg" width="95" height="95" viewBox="0 0 95 95"><defs><style>.a{fill:#fff;}.b,.d{fill:#c64f15;}.c,.d{stroke:none;}</style></defs><g transform="translate(-205 -4192)"><g class="a" transform="translate(205 4192)"><path class="c" d="M 47.5 93.5 C 41.28937149047852 93.5 35.26533508300781 92.28397369384766 29.59518623352051 89.88570404052734 C 24.11771965026855 87.56893157958984 19.19813346862793 84.25196075439453 14.97309303283691 80.02690887451172 C 10.74804019927979 75.80186462402344 7.431066513061523 70.88227844238281 5.114293098449707 65.40481567382813 C 2.716026782989502 59.73466491699219 1.5 53.71062850952148 1.5 47.5 C 1.5 41.28937149047852 2.716026782989502 35.26533508300781 5.114293098449707 29.59518623352051 C 7.431066513061523 24.11771965026855 10.74804019927979 19.19813346862793 14.97309303283691 14.97309303283691 C 19.19813346862793 10.74804019927979 24.11771965026855 7.431066513061523 29.59518623352051 5.114293098449707 C 35.26533508300781 2.716026782989502 41.28937149047852 1.5 47.5 1.5 C 53.71062850952148 1.5 59.73466491699219 2.716026782989502 65.40481567382813 5.114293098449707 C 70.88227844238281 7.431066513061523 75.80186462402344 10.74804019927979 80.02690887451172 14.97309303283691 C 84.25196075439453 19.19813346862793 87.56893157958984 24.11771965026855 89.88570404052734 29.59518623352051 C 92.28397369384766 35.26533508300781 93.5 41.28937149047852 93.5 47.5 C 93.5 53.71062850952148 92.28397369384766 59.73466491699219 89.88570404052734 65.40481567382813 C 87.56893157958984 70.88227844238281 84.25196075439453 75.80186462402344 80.02690887451172 80.02690887451172 C 75.80186462402344 84.25196075439453 70.88227844238281 87.56893157958984 65.40481567382813 89.88570404052734 C 59.73466491699219 92.28397369384766 53.71062850952148 93.5 47.5 93.5 Z"/><path class="d" d="M 47.5 3 C 41.49121475219727 3 35.66376876831055 4.176155090332031 30.17950439453125 6.495796203613281 C 24.88084411621094 8.736953735351563 20.12152099609375 11.94598388671875 16.03375244140625 16.03375244140625 C 11.94598388671875 20.12152099609375 8.736953735351563 24.88084411621094 6.495796203613281 30.17950439453125 C 4.176155090332031 35.66376876831055 3 41.49121475219727 3 47.5 C 3 53.50878524780273 4.176155090332031 59.33623123168945 6.495796203613281 64.82049560546875 C 8.736953735351563 70.11915588378906 11.94598388671875 74.87847900390625 16.03375244140625 78.96624755859375 C 20.12152099609375 83.05401611328125 24.88084411621094 86.26304626464844 30.17950439453125 88.50419616699219 C 35.66376876831055 90.82384490966797 41.49121475219727 92 47.5 92 C 53.50878524780273 92 59.33623123168945 90.82384490966797 64.82049560546875 88.50419616699219 C 70.11915588378906 86.26304626464844 74.87847900390625 83.05401611328125 78.96624755859375 78.96624755859375 C 83.05401611328125 74.87847900390625 86.26304626464844 70.11915588378906 88.50419616699219 64.82049560546875 C 90.82384490966797 59.33623123168945 92 53.50878524780273 92 47.5 C 92 41.49121475219727 90.82384490966797 35.66376876831055 88.50419616699219 30.17950439453125 C 86.26304626464844 24.88084411621094 83.05401611328125 20.12152099609375 78.96624755859375 16.03375244140625 C 74.87847900390625 11.94598388671875 70.11915588378906 8.736953735351563 64.82049560546875 6.495796203613281 C 59.33623123168945 4.176155090332031 53.50878524780273 3 47.5 3 M 47.5 0 C 73.7335205078125 0 95 21.2664794921875 95 47.5 C 95 73.7335205078125 73.7335205078125 95 47.5 95 C 21.2664794921875 95 0 73.7335205078125 0 47.5 C 0 21.2664794921875 21.2664794921875 0 47.5 0 Z"/></g><g transform="translate(230.926 4215.138)"><path class="b" d="M37.74,0H5.093V10.831L0,15.84V42.75H42.75v-26.9l-5.01-5.01ZM16.713,28.893,2.5,39.061V18.792Zm2.559,1.249h4.206L37.6,40.245H5.155Zm6.765-1.249,14.208-10.1V39.061ZM35.235,2.5V19.28L23.48,27.637H19.27L7.6,19.34V2.5ZM5.093,17.559,3.2,16.21l1.9-1.866ZM39.564,16.2,37.74,17.5V14.379Zm0,0"/><path class="b" d="M159.767,78.534a8.678,8.678,0,0,0,3.922-.925l-1.122-2.239a6.2,6.2,0,0,1-2.8.659,6.262,6.262,0,1,1,6.262-6.262,1.252,1.252,0,0,1-2.5,0,3.763,3.763,0,1,0-1.252,2.8,3.755,3.755,0,0,0,6.262-2.8,8.767,8.767,0,1,0-8.767,8.767Zm0-7.515a1.252,1.252,0,1,1,1.252-1.252A1.254,1.254,0,0,1,159.767,71.02Zm0,0" transform="translate(-138.392 -55.907)"/></g></g></svg>