<svg xmlns="http://www.w3.org/2000/svg" width="80" height="40" viewBox="0 0 80 40"><defs><style>.a,.d{fill:#505050;}.b{fill:none;}.c,.d{stroke:none;}</style></defs><g transform="translate(-1144 -5059)"><path class="a" d="M19.852,39h0L.057,25.731,0,13.307,19.852,0V39Z" transform="translate(1204.148 5059)"/><g class="b" transform="translate(1144 5059)"><path class="c" d="M10,0H45A10,10,0,0,1,55,10V30A10,10,0,0,1,45,40H10A10,10,0,0,1,0,30V10A10,10,0,0,1,10,0Z"/><path class="d" d="M 10 7 C 8.345798492431641 7 7 8.345800399780273 7 10 L 7 30 C 7 31.65419960021973 8.345798492431641 33 10 33 L 45 33 C 46.65419769287109 33 48 31.65419960021973 48 30 L 48 10 C 48 8.345800399780273 46.65419769287109 7 45 7 L 10 7 M 10 0 L 45 0 C 50.52284240722656 0 55 4.477157592773438 55 10 L 55 30 C 55 35.52284240722656 50.52284240722656 40 45 40 L 10 40 C 4.477157592773438 40 0 35.52284240722656 0 30 L 0 10 C 0 4.477157592773438 4.477157592773438 0 10 0 Z"/></g></g></svg>