<svg xmlns="http://www.w3.org/2000/svg" width="95" height="95" viewBox="0 0 95 95"><defs><style>.a{fill:#fff;}.b,.d{fill:#c64f15;}.c,.d{stroke:none;}</style></defs><g transform="translate(-1111 -4192)"><g class="a" transform="translate(1111 4192)"><path class="c" d="M 47.5 93.5 C 41.28937149047852 93.5 35.26533508300781 92.28397369384766 29.59518623352051 89.88570404052734 C 24.11771965026855 87.56893157958984 19.19813346862793 84.25196075439453 14.97309303283691 80.02690887451172 C 10.74804019927979 75.80186462402344 7.431066513061523 70.88227844238281 5.114293098449707 65.40481567382813 C 2.716026782989502 59.73466491699219 1.5 53.71062850952148 1.5 47.5 C 1.5 41.28937149047852 2.716026782989502 35.26533508300781 5.114293098449707 29.59518623352051 C 7.431066513061523 24.11771965026855 10.74804019927979 19.19813346862793 14.97309303283691 14.97309303283691 C 19.19813346862793 10.74804019927979 24.11771965026855 7.431066513061523 29.59518623352051 5.114293098449707 C 35.26533508300781 2.716026782989502 41.28937149047852 1.5 47.5 1.5 C 53.71062850952148 1.5 59.73466491699219 2.716026782989502 65.40481567382813 5.114293098449707 C 70.88227844238281 7.431066513061523 75.80186462402344 10.74804019927979 80.02690887451172 14.97309303283691 C 84.25196075439453 19.19813346862793 87.56893157958984 24.11771965026855 89.88570404052734 29.59518623352051 C 92.28397369384766 35.26533508300781 93.5 41.28937149047852 93.5 47.5 C 93.5 53.71062850952148 92.28397369384766 59.73466491699219 89.88570404052734 65.40481567382813 C 87.56893157958984 70.88227844238281 84.25196075439453 75.80186462402344 80.02690887451172 80.02690887451172 C 75.80186462402344 84.25196075439453 70.88227844238281 87.56893157958984 65.40481567382813 89.88570404052734 C 59.73466491699219 92.28397369384766 53.71062850952148 93.5 47.5 93.5 Z"/><path class="d" d="M 47.5 3 C 41.49121475219727 3 35.66376876831055 4.176155090332031 30.17950439453125 6.495796203613281 C 24.88084411621094 8.736953735351563 20.12152099609375 11.94598388671875 16.03375244140625 16.03375244140625 C 11.94598388671875 20.12152099609375 8.736953735351563 24.88084411621094 6.495796203613281 30.17950439453125 C 4.176155090332031 35.66376876831055 3 41.49121475219727 3 47.5 C 3 53.50878524780273 4.176155090332031 59.33623123168945 6.495796203613281 64.82049560546875 C 8.736953735351563 70.11915588378906 11.94598388671875 74.87847900390625 16.03375244140625 78.96624755859375 C 20.12152099609375 83.05401611328125 24.88084411621094 86.26304626464844 30.17950439453125 88.50419616699219 C 35.66376876831055 90.82384490966797 41.49121475219727 92 47.5 92 C 53.50878524780273 92 59.33623123168945 90.82384490966797 64.82049560546875 88.50419616699219 C 70.11915588378906 86.26304626464844 74.87847900390625 83.05401611328125 78.96624755859375 78.96624755859375 C 83.05401611328125 74.87847900390625 86.26304626464844 70.11915588378906 88.50419616699219 64.82049560546875 C 90.82384490966797 59.33623123168945 92 53.50878524780273 92 47.5 C 92 41.49121475219727 90.82384490966797 35.66376876831055 88.50419616699219 30.17950439453125 C 86.26304626464844 24.88084411621094 83.05401611328125 20.12152099609375 78.96624755859375 16.03375244140625 C 74.87847900390625 11.94598388671875 70.11915588378906 8.736953735351563 64.82049560546875 6.495796203613281 C 59.33623123168945 4.176155090332031 53.50878524780273 3 47.5 3 M 47.5 0 C 73.7335205078125 0 95 21.2664794921875 95 47.5 C 95 73.7335205078125 73.7335205078125 95 47.5 95 C 21.2664794921875 95 0 73.7335205078125 0 47.5 C 0 21.2664794921875 21.2664794921875 0 47.5 0 Z"/></g><g transform="translate(1135.772 4214.09)"><path class="b" d="M45,9.394c0-.036,0-.072-.005-.108,0-.013,0-.026,0-.04s-.008-.053-.012-.08,0-.028-.008-.043c-.007-.03-.014-.059-.023-.089s-.009-.03-.014-.045-.019-.056-.031-.083-.013-.03-.019-.044-.019-.042-.03-.062-.014-.028-.022-.042-.027-.046-.042-.069l-.018-.027c-.021-.031-.044-.061-.067-.09l-.02-.023c-.019-.022-.038-.043-.058-.064L44.6,8.459c-.02-.02-.041-.038-.062-.057l-.025-.021c-.03-.024-.06-.047-.092-.069L44.411,8.3q-.041-.027-.084-.051l-.042-.022L44.224,8.2l-.049-.021-.02-.009L22.973.087a1.32,1.32,0,0,0-.94,0L.852,8.173a1.319,1.319,0,0,0,.009,2.467L8,13.306v6.645c0,1.984,1.666,3.743,4.69,4.953A27.283,27.283,0,0,0,22.5,26.543,27.283,27.283,0,0,0,32.315,24.9c3.025-1.21,4.69-2.969,4.69-4.953V13.306l5.361-2V27.862a1.318,1.318,0,1,0,2.637,0V9.4s0-.007,0-.011ZM22.5,2.73,36.535,8.086H22.5a1.318,1.318,0,0,0,0,2.637H36.386L22.5,15.907,5.054,9.391ZM34.368,19.951c0,.785-1.19,1.768-3.033,2.5a24.623,24.623,0,0,1-8.832,1.45,24.625,24.625,0,0,1-8.833-1.45c-1.842-.737-3.033-1.72-3.033-2.5v-5.66l11.4,4.259a1.317,1.317,0,0,0,.923,0l11.4-4.259Zm0,0" transform="translate(-0.003 0)"/><path class="b" d="M41.117,361.991l-.06,0h-.012l-.056,0a66.923,66.923,0,0,1-36.672.048c-.607-.173-2.284-.02-3.406,2.223A9.868,9.868,0,0,0,0,368.58c0,2.886,1.234,6.661,3.99,6.59a.913.913,0,0,0,.148-.012l.063-.01a66.225,66.225,0,0,1,35.629-.262,2.745,2.745,0,0,0,1.111.282c.035,0,.07,0,.1,0s.075,0,.112,0c2.377-.1,3.842-3.158,3.842-6.587s-1.48-6.526-3.883-6.589ZM3.881,364.655a68.649,68.649,0,0,0,14.834,2.451,6.479,6.479,0,0,0,0,2.947,68.6,68.6,0,0,0-14.834,2.451c-.529-.307-1.244-1.8-1.244-3.925C2.637,366.47,3.344,364.966,3.881,364.655Zm17.69,5.3c-.034-.011-.068-.02-.1-.027a3.345,3.345,0,0,1,0-2.7c.035-.008.07-.017.1-.027A69,69,0,0,0,37.5,365.566a11.3,11.3,0,0,0,0,6.028A69.006,69.006,0,0,0,21.57,369.957Zm19.549,2.548-.245-.069a2.195,2.195,0,0,1-.515-.717,7.32,7.32,0,0,1-.633-3.139,5.578,5.578,0,0,1,1.148-3.856l.245-.069c.529.307,1.244,1.8,1.244,3.925C42.363,370.69,41.656,372.194,41.119,372.505Zm0,0" transform="translate(0 -326.797)"/></g></g></svg>