<svg xmlns="http://www.w3.org/2000/svg" width="20" height="20" viewBox="0 0 20 20"><defs><style>.a{fill:#fff;}</style></defs><path class="a" d="M21.41,21.262h.005V13.927c0-3.588-.772-6.353-4.968-6.353A4.355,4.355,0,0,0,12.525,9.73h-.058V7.909H8.489V21.261h4.142V14.65c0-1.741.33-3.424,2.486-3.424,2.124,0,2.156,1.987,2.156,3.536v6.5Z" transform="translate(-1.415 -1.262)"/><path class="a" d="M.4,7.977H4.543V21.33H.4Z" transform="translate(-0.066 -1.329)"/><path class="a" d="M2.4,0A2.413,2.413,0,1,0,4.8,2.4,2.4,2.4,0,0,0,2.4,0Z"/></svg>