<svg xmlns="http://www.w3.org/2000/svg" width="46.533" height="67" viewBox="0 0 46.533 67"><defs><style>.a,.b{fill:#6d6b6b;}.b{font-size:23px;font-family:GothamPro-Bold, Gotham Pro;font-weight:700;}</style></defs><g transform="translate(-132.038 -1021.845)"><g transform="translate(132.038 1021.845)"><g transform="translate(0 0)"><path class="a" d="M121.633,44.365a3.012,3.012,0,0,1,3.893-1.712A3.03,3.03,0,0,0,129.6,39.7a3,3,0,0,1,2.833-3.121,3.033,3.033,0,0,0,2.53-4.363,3.064,3.064,0,0,1,1.3-4.014,3.046,3.046,0,0,0,.53-5.014,3.041,3.041,0,0,1-.47-4.181,3.061,3.061,0,0,0-1.53-4.832,3.022,3.022,0,0,1-2.121-3.651,3.043,3.043,0,0,0-3.363-3.772,3.036,3.036,0,0,1-3.423-2.484,3.048,3.048,0,0,0-4.605-2.06,3.036,3.036,0,0,1-4.135-.879,3.086,3.086,0,0,0-5.075,0,3.025,3.025,0,0,1-4.135.879,3.051,3.051,0,0,0-4.605,2.06,3.086,3.086,0,0,1-3.424,2.484,3.048,3.048,0,0,0-3.363,3.772,2.994,2.994,0,0,1-2.121,3.651,3.053,3.053,0,0,0-1.53,4.832,2.976,2.976,0,0,1-.47,4.181,3.044,3.044,0,0,0,.53,5.014,3.031,3.031,0,0,1,1.3,4.014,3.025,3.025,0,0,0,2.53,4.363h0A3.048,3.048,0,0,1,99.623,39.7a3.022,3.022,0,0,0,4.075,2.954,3.057,3.057,0,0,1,3.893,1.712,3.075,3.075,0,0,0,4.953,1.06,3.1,3.1,0,0,1,4.242,0A2.963,2.963,0,0,0,121.633,44.365Zm-7.074-6.2A15.042,15.042,0,1,1,129.6,23.127,15.031,15.031,0,0,1,114.559,38.17Z" transform="translate(-91.346 0)"/><path class="a" d="M105.936,291.076a7.34,7.34,0,0,1-6.483-1.206l-.121-.1-6.544,21.289L100.861,308l5.423,5.672L112.359,294C109.223,294.348,106.875,292.891,105.936,291.076Z" transform="translate(-92.569 -246.667)"/><path class="a" d="M280.407,289.871a7.38,7.38,0,0,1-6.529,1.206c-.955,1.815-3.311,3.188-6.591,2.973l6.16,19.618L278.96,308l8.208,3.069-6.652-21.289A.679.679,0,0,1,280.407,289.871Z" transform="translate(-240.635 -246.667)"/></g></g><text class="b" transform="translate(147 1052.845)"><tspan x="0" y="0">R</tspan></text></g></svg>