<svg id="Layer_1" xmlns="http://www.w3.org/2000/svg" width="237.9" height="50" viewBox="0 0 237.9 50"><path display="none" fill="#626261" d="M99.9 22.8h-4.6v-6.2H90v16.7h5.4v-5.9h4.6v5.9h5.4V16.6H100v6.2h-.1zm49.8 0h-4.6v-6.2h-5.4v16.7h5.4v-5.9h4.6v5.9h5.4V16.6h-5.4v6.2zm81.9-1.3H229v-4.9h-5.4v16.7h7.899c3.5 0 6.3-1.899 6.3-5.3v-1.2c.101-3.4-2.799-5.3-6.199-5.3m-.6 7.7h-2v-3.6h1.8c1.5 0 1.9 1.101 1.9 1.801 0 1.499-1.3 1.799-1.7 1.799M197 27h6v-4h-6v-2h6.601v-4.3h-12v16.7H204V29h-7v-2zm-6.6-10.4h-5.8l-2.801 6.3h-1.3v-6.3H175.1v16.7h5.399v-5.9h1.3l2.9 5.899h6.2l-4.5-8.4L190.4 16.6zm-74.4-.2h-2.6c-3.5 0-6.3 2.5-6.3 6.3v4.7c0 3.899 2.8 6.3 6.3 6.3h2.6c3.5 0 6.3-2.5 6.3-6.3v-4.7c.1-4.1-2.8-6.3-6.3-6.3m1 11.3c0 1.1-.899 2-2 2h-.5c-1.1 0-2-.9-2-2v-5.4c0-1.1.9-2 2-2h.5c1.101 0 2 .9 2 2v5.4zm91.1-2.2c0 2.5-.7 2.9-1.601 3.3-.399.2-1.499.2-1.499.2v4.4h2.101c4.5 0 6.199-2.601 6.199-8.5v-3.8h3v12.3h5.4V16.6h-13.5v8.9h-.1zm-76-8.9h-7.9v16.7h5.4v-4.1h2.6c3.5 0 6.3-1.9 6.3-5.3V22c-.1-3.5-2.9-5.4-6.4-5.4m1.1 6.8c0 .6-.3 1.8-1.9 1.8h-1.8v-4.4h2c.5 0 1.601.4 1.601 1.7v.9h.099zm29.3 1.7v-8.4h-5.1v16.7h4.7l5.5-8.4v8.4h5.1V16.6H168l-5.5 8.5z"/><polygon fill="#00589C" points="25,33.1 50,50 50,16.9 25,0"/><path fill="#0080C8" d="M0 25c0 13.8 11.2 25 25 25V0C11.2 0 0 11.2 0 25M50 0v50c13.8 0 25-11.2 25-25S63.8 0 50 0"/><path fill="#626261" d="M149.851 25.174l-5.328-8.526h-4.708v16.646h5.074v-8.365l5.271 8.365h4.708V16.647h-5.018v8.527zm-33.831-8.798h-2.623c-3.465 0-6.3 2.469-6.3 6.301v4.646c0 3.85 2.835 6.301 6.3 6.301h2.623c3.465 0 6.302-2.476 6.302-6.301v-4.646c0-4.034-2.837-6.301-6.302-6.301m.923 11.319a2.01 2.01 0 0 1-2.005 2.005h-.458a2.01 2.01 0 0 1-2.003-2.005V22.3c0-1.104.902-2.007 2.003-2.007h.458c1.103 0 2.005.902 2.005 2.007v5.395zm40.266 5.599h5.356V16.647h-5.356v16.647zm59.902-4.494V16.647h-5.354v16.646h11.696V28.8h-6.342zm-44.03-12.424h-2.401c-3.464 0-6.299 2.469-6.299 6.301v4.646c0 3.85 2.835 6.301 6.299 6.301h2.401c3.467 0 6.301-2.476 6.301-6.301v-.212h-5.378v.584a2.011 2.011 0 0 1-2.007 2.005h-.233a2.009 2.009 0 0 1-2.003-2.005V22.3c0-1.104.9-2.007 2.003-2.007h.233c1.104 0 2.007.902 2.007 2.007v.81h5.378v-.433c0-4.034-2.834-6.301-6.301-6.301m-34.794 6.384v-.804c0-3.397-2.837-5.308-6.3-5.308l-7.848-.001v16.646h5.28v-4.93h1.576l2.222 4.93h5.551l-3.105-6.096c1.586-.871 2.624-2.383 2.624-4.437m-5.21-.192c0 .606-.308 1.959-1.856 1.959h-1.801v-4.148h2.02c.541 0 1.638.624 1.638 1.924v.265zm-32.871 2.446l-5.498-8.366H90v16.646h5.075v-8.437l5.498 8.437h4.708V16.647h-5.075v8.367zm102.726 1.965h6.036V23.02h-6.036v-2.03h6.582v-4.343h-11.937v16.646h12.428v-4.345h-7.073v-1.969zm-6.638-10.332H190.5l-2.825 6.295h-1.322v-6.295h-5.356v16.646h5.356V27.38h1.315l2.888 5.914h6.146l-4.539-8.397 4.131-8.25z"/></svg>