<?xml version="1.0" encoding="UTF-8"?>
<!DOCTYPE svg PUBLIC "-//W3C//DTD SVG 1.1//EN" "http://www.w3.org/Graphics/SVG/1.1/DTD/svg11.dtd">
<!-- Creator: CorelDRAW 2019 (64-Bit Не для перепродажи) -->
<svg xmlns="http://www.w3.org/2000/svg" xml:space="preserve" width="300px" height="73px" version="1.1" style="shape-rendering:geometricPrecision; text-rendering:geometricPrecision; image-rendering:optimizeQuality; fill-rule:evenodd; clip-rule:evenodd"
viewBox="0 0 9.61 2.33"
 xmlns:xlink="http://www.w3.org/1999/xlink"
 xmlns:xodm="http://www.corel.com/coreldraw/odm/2003">
 <defs>
  <style type="text/css">
   <![CDATA[
    .fil39 {fill:#0C0909}
    .fil7 {fill:#110E0E}
    .fil9 {fill:#141111}
    .fil6 {fill:#160B0B}
    .fil4 {fill:#180D0D}
    .fil5 {fill:#1B1111}
    .fil1 {fill:#272424}
    .fil12 {fill:#2B1010}
    .fil22 {fill:#333030}
    .fil57 {fill:#460909}
    .fil66 {fill:#464444}
    .fil33 {fill:#494646}
    .fil63 {fill:#4D4B4B}
    .fil45 {fill:#514F4F}
    .fil54 {fill:#555353}
    .fil15 {fill:#595757}
    .fil49 {fill:#5D5B5B}
    .fil8 {fill:#605E5E}
    .fil47 {fill:#666464}
    .fil20 {fill:#696767}
    .fil14 {fill:#6C4949}
    .fil11 {fill:#6D6B6B}
    .fil18 {fill:#716F6F}
    .fil51 {fill:#735959}
    .fil27 {fill:#747272}
    .fil67 {fill:#764444}
    .fil35 {fill:#777575}
    .fil43 {fill:#796666}
    .fil59 {fill:#7E6B6B}
    .fil23 {fill:#7E7B7B}
    .fil0 {fill:maroon}
    .fil36 {fill:#827F7F}
    .fil32 {fill:#848282}
    .fil72 {fill:#854747}
    .fil46 {fill:#867373}
    .fil25 {fill:#868585}
    .fil38 {fill:#8B8A8A}
    .fil52 {fill:#8D8484}
    .fil41 {fill:#8E8D8D}
    .fil26 {fill:#939292}
    .fil56 {fill:#975A5A}
    .fil30 {fill:#979696}
    .fil16 {fill:#9C9B9B}
    .fil24 {fill:#9E9D9D}
    .fil70 {fill:#9F4242}
    .fil17 {fill:#A24545}
    .fil61 {fill:#A56969}
    .fil21 {fill:#A5A3A3}
    .fil28 {fill:#A6A6A6}
    .fil73 {fill:#A95555}
    .fil58 {fill:#A97A7A}
    .fil37 {fill:#ABAAAA}
    .fil55 {fill:#AFAEAE}
    .fil19 {fill:#B36666}
    .fil48 {fill:#B3B2B2}
    .fil53 {fill:#B69494}
    .fil42 {fill:#B6B5B5}
    .fil65 {fill:#B97777}
    .fil13 {fill:#BBBABA}
    .fil50 {fill:#BFAEAE}
    .fil2 {fill:#BFBEBE}
    .fil34 {fill:#C08585}
    .fil44 {fill:#C09B9B}
    .fil60 {fill:#C3B2B2}
    .fil68 {fill:#C48989}
    .fil76 {fill:#C59292}
    .fil40 {fill:#C6C5C5}
    .fil10 {fill:#C89595}
    .fil75 {fill:#CBA0A0}
    .fil69 {fill:#CBBBBB}
    .fil62 {fill:#CD9A9A}
    .fil74 {fill:#CEB6B6}
    .fil64 {fill:#D4BCBC}
    .fil71 {fill:#D5AAAA}
    .fil77 {fill:#D7B4B4}
    .fil31 {fill:#DADADA}
    .fil29 {fill:#DDBBBB}
    .fil3 {fill:white}
   ]]>
  </style>
 </defs>
 <g id="Слой_x0020_1">
  <metadata id="CorelCorpID_0Corel-Layer"/>
  <g id="_2606697277104">
   <path class="fil0" d="M0.07 2.17l9.47 0.01c0.03,-0.18 -0.24,-0.12 -0.37,-0.11 -0.21,0 -0.42,0 -0.63,0l-7.36 0c-0.3,0 -0.89,-0.08 -1.11,0.1z"/>
   <path class="fil0" d="M7.72 0.14l-0.03 0.04 -0.04 0.08 0.01 0.02 -0.05 0.09 0.01 0.01 -0.05 0.11 0.01 0.02c0.01,0.16 0.01,0.06 -0.04,0.09l0.01 0.02 -0.04 0.09 0.01 0.01c-0.01,0.15 0,0.06 -0.04,0.07l0 0.08 -0.03 0.07 -0.04 0.16c0,0.07 0.02,0.07 -0.03,0.04l-0.04 0.17 -0.03 0.06 0.01 0.02 -0.05 0.1 0.01 0.03c-0.02,0.14 0,0.05 -0.04,0.07l-0.03 0.17 0 0.02 0.07 0.04 0.05 0.01 0.01 -0.03 0.03 -0.06 0 -0.05 0.04 -0.06 0 -0.04 0 -0.04 0.03 -0.04 0.01 -0.04 0.03 -0.07 0 -0.05 0 -0.04 0.03 -0.04 0 -0.03 0.04 -0.06 0 -0.06 0.03 -0.06 0 -0.04 0 -0.05 0.04 -0.04 0 -0.03 0 -0.03 0.03 -0.04 0 -0.05 0.03 -0.07 0 -0.05 0.05 -0.06 -0.01 -0.04c0,-0.06 -0.02,-0.05 0.03,-0.05l0 -0.08 0.03 -0.04 0.04 0.08 0.49 1.07 0.03 0 0.04 0.01 -0.01 -0.02c0,-0.06 -0.02,-0.05 0.04,-0.05l0 -0.02c0,-0.06 -0.02,-0.05 0.04,-0.05l-0.01 -0.02c0,-0.06 -0.02,-0.05 0.04,-0.05l0.03 -0.05c0,-0.07 -0.02,-0.06 0.03,-0.06l0 -0.01c0,-0.07 -0.01,-0.05 0.04,-0.05l0 -0.02c0,-0.06 -0.02,-0.05 0.04,-0.05l-0.01 -0.02c0,-0.06 -0.01,-0.05 0.04,-0.05l0 -0.02c0,-0.06 -0.02,-0.05 0.04,-0.05l0 -0.01c-0.01,-0.07 -0.03,-0.05 0.03,-0.05l0 -0.02c0,-0.06 -0.02,-0.05 0.03,-0.05 0,-0.06 -0.02,-0.04 0.04,-0.04l-0.01 -0.02c0.01,-0.06 -0.01,-0.05 0.04,-0.05l0 -0.02c0,-0.06 -0.02,-0.05 0.03,-0.04l0 -0.04 0.04 -0.04 0 -0.02 0.03 -0.03 0.04 -0.1c0.18,0.2 0.38,1.29 0.55,1.39l0.04 -0.02c-0.01,-0.05 -0.02,-0.04 0.03,-0.05l0.03 0 0 -0.01 -0.03 -0.05 0 -0.03 -0.04 -0.04 0 -0.03 0 -0.03c-0.05,0 -0.03,0.01 -0.03,-0.05l0 -0.05 -0.03 -0.05 0 -0.03 -0.04 -0.03 0 -0.04 0 -0.03 -0.04 -0.04 0 -0.03 0 -0.03c-0.05,0 -0.03,0.01 -0.03,-0.05l0 -0.05 -0.03 -0.05 -0.01 -0.05 -0.03 -0.06 0 -0.02 -0.03 -0.03 0 -0.04 0 -0.03 -0.04 -0.04 0 -0.03 0 -0.03 -0.03 -0.04 0 -0.04 0 -0.03c-0.05,0 -0.04,0.02 -0.03,-0.05l-0.01 -0.04 -0.03 -0.06 0 -0.04 -0.03 -0.06 0 -0.03 -0.04 -0.03 0 -0.04 0 -0.03 -0.03 -0.03 -0.01 -0.04 0 -0.03 -0.03 0 0 0.03 -0.03 0.04c0,0.05 0.01,0.04 -0.04,0.03l0 0.04c0,0.05 0.01,0.03 -0.04,0.02l-0.02 0.05c-0.01,0.12 0,0.04 -0.05,0.07l0.01 0.01c0,0.07 0.02,0.07 -0.04,0.05l0.01 0.04c0,0.05 0.01,0.04 -0.04,0.03l0 0.04c0,0.05 0.01,0.04 -0.04,0.04l0 0.01 -0.03 0.06 0 0.02 -0.03 0.04 -0.04 0.04 -0.03 0.06 -0.04 0.07c0,0.1 0.01,0.04 -0.04,0.06l0.01 0.04c0,0.06 0.01,0.05 -0.04,0.03l0.01 0.04c0,0.06 0.01,0.05 -0.04,0.03l0 0.04c0,0.06 0.02,0.04 -0.04,0.04l0 0.01c0.01,0.07 0.03,0.07 -0.03,0.05 -0.02,0.06 0,0.06 -0.03,0 -0.05,0.01 -0.04,0.02 -0.03,-0.04l0 -0.03 -0.04 -0.03 0 -0.03 -0.03 -0.04 -0.01 -0.03 0 -0.03 -0.03 -0.04 0 -0.03 -0.03 -0.05 0 -0.02c-0.05,0 -0.04,0.01 -0.04,-0.04l0 -0.03c-0.05,0 -0.03,0.01 -0.03,-0.05l0 -0.02c-0.05,0 -0.04,0.01 -0.03,-0.04l0 -0.03 -0.04 -0.04 0 -0.03 -0.04 -0.03 0 -0.04 0 -0.03 -0.03 -0.04 0 -0.02 -0.03 -0.05 0 -0.03c-0.05,0 -0.04,0.01 -0.04,-0.04l0 -0.02c-0.05,0 -0.03,0.01 -0.03,-0.05l0 -0.03c-0.05,0 -0.04,0.01 -0.04,-0.04l0 -0.03 -0.03 -0.03 0 -0.04 -0.07 0.03 0 0 0 0.04z"/>
   <polygon class="fil1" points="0.02,2.25 9.54,2.25 9.54,2.18 0.07,2.17 "/>
   <path class="fil0" d="M5.88 1.08l-0.12 -0.01c-0.05,-0.04 -0.05,0 0,-0.05l0 -0.01 0.03 -0.05 0 -0.02 0.04 -0.05 0 -0.01 0 -0.05 0.04 -0.03 0 -0.03c-0.01,-0.06 -0.03,-0.05 0.03,-0.05l0 -0.02c0,-0.06 -0.02,-0.04 0.03,-0.04l0 -0.03c0,-0.06 -0.02,-0.04 0.04,-0.04l0 -0.03c-0.01,-0.06 -0.02,-0.05 0.03,-0.05l0 -0.01c0,-0.07 -0.02,-0.06 0.04,-0.06l-0.01 -0.02c0,-0.06 -0.02,-0.05 0.04,-0.05l0.05 -0.12 0.4 0.77 -0.09 0.02 -0.06 0 -0.07 -0.01 -0.42 0.05zm0.19 -1.03l0 0.02c0,0.06 0.01,0.05 -0.04,0.03 0.01,0.06 0.03,0.06 -0.03,0.05l-0.04 0.06 -0.03 0.07 -0.04 0.07 0 0.06 -0.02 0.05 -0.01 0.02c0,0.06 0.02,0.05 -0.04,0.04l0.01 0.04 -0.03 0.04 -0.01 0.02 -0.03 0.05 0 0.01 -0.03 0.06 -0.01 0.01 -0.03 0.06 0 0.01c0,0.07 0.02,0.06 -0.04,0.04l0.01 0.04c-0.01,0.06 0.01,0.04 -0.05,0.04l0.01 0.01c0,0.08 0.02,0.06 -0.04,0.06l0 0.01c0.01,0.07 0.03,0.06 -0.04,0.06l0.01 0.01c0,0.07 0.03,0.06 -0.04,0.06l0 0c0.01,0.08 0.03,0.07 -0.04,0.07l0.01 0c0,0.08 0.03,0.07 -0.04,0.07l0.01 0c0,0.08 0.02,0.07 -0.04,0.07l0 0c0.01,0.07 0.03,0.07 -0.03,0.05l0 0.04c0,0.05 0.01,0.05 -0.04,0.03l0.01 0.04c0,0.06 0.01,0.04 -0.05,0.04l0.01 0.01c0,0.07 0.02,0.06 -0.04,0.06l0 0.01c0.01,0.07 0.03,0.06 -0.04,0.06l0.01 0 0.01 0.06 0.09 0.03 0.05 0.01c-0.01,-0.06 -0.02,-0.04 0.03,-0.04l0 -0.03c-0.01,-0.06 -0.02,-0.04 0.03,-0.04l0 -0.03c0,-0.06 -0.02,-0.05 0.03,-0.05l0 -0.02 0 -0.04 0.04 -0.03 0 -0.02c0,-0.07 -0.02,-0.05 0.04,-0.05l-0.01 -0.02c0,-0.07 -0.02,-0.05 0.04,-0.05l0 -0.03c0,-0.06 -0.02,-0.04 0.04,-0.04l0.01 0 0 -0.05 0.04 -0.09 0.89 -0.02c0.09,0.18 0.22,0.58 0.39,0.65l0.04 -0.04c-0.01,-0.05 -0.02,-0.04 0.03,-0.03l0 -0.04 0 -0.03 -0.04 -0.04 0 -0.02 -0.03 -0.05c-0.05,0 -0.03,0.01 -0.03,-0.04l0 -0.03c-0.05,0 -0.04,0.02 -0.04,-0.04l0 -0.02c-0.05,0 -0.03,0.01 -0.03,-0.04l0 -0.03 -0.04 -0.04 0 -0.02 -0.03 -0.05 0 -0.02 -0.03 -0.05 -0.04 -0.03 0 -0.03 -0.03 -0.04 0 -0.03c-0.05,0 -0.04,0.01 -0.03,-0.04l0 -0.03c-0.06,0 -0.04,0.01 -0.04,-0.04l0 -0.03c-0.05,0 -0.04,0.01 -0.03,-0.04l0 -0.03c-0.05,0 -0.04,0.01 -0.04,-0.04l0 -0.02c-0.05,0 -0.03,0.01 -0.03,-0.05l0 -0.02c-0.05,0 -0.04,0.01 -0.04,-0.05l0 -0.02c-0.05,0 -0.03,0.01 -0.03,-0.04l0 -0.03 -0.04 -0.04 0 -0.03 -0.03 -0.04 0 -0.02 -0.04 -0.05 0 -0.02 -0.03 -0.05 -0.04 -0.03 0 -0.03 -0.03 -0.04 0 -0.03c-0.05,0 -0.03,0.01 -0.03,-0.04l0 -0.03c-0.05,0 -0.04,0.01 -0.04,-0.04l0 -0.03 -0.04 -0.04 -0.02 0.01 -0.04 0.04z"/>
   <path class="fil0" d="M0.72 1.08l-0.12 -0.01c-0.05,-0.04 -0.05,0 0,-0.05l0 -0.01 0.03 -0.05 0 -0.02 0.04 -0.05 0 -0.01 0 -0.05 0.04 -0.03 0 -0.03c-0.01,-0.06 -0.03,-0.05 0.03,-0.05l0 -0.02c0,-0.06 -0.02,-0.04 0.03,-0.04l0 -0.03c0,-0.06 -0.01,-0.04 0.04,-0.04l0 -0.03c0,-0.06 -0.02,-0.05 0.03,-0.05l0 -0.01c0,-0.07 -0.02,-0.06 0.04,-0.06l-0.01 -0.02c0,-0.06 -0.02,-0.05 0.05,-0.05l0.04 -0.12 0.4 0.77 -0.09 0.02 -0.06 0 -0.07 -0.01 -0.42 0.05zm0.19 -1.03l0 0.02c0,0.06 0.01,0.05 -0.04,0.03 0.01,0.06 0.03,0.06 -0.03,0.05l-0.04 0.06 -0.03 0.07 -0.04 0.07 0.01 0.06 -0.03 0.05 -0.01 0.02c0,0.06 0.02,0.05 -0.04,0.04l0.01 0.04 -0.03 0.04 -0.01 0.02 -0.03 0.05 0 0.01 -0.03 0.06 -0.01 0.01 -0.03 0.06 0 0.01c0,0.07 0.02,0.06 -0.04,0.04l0.01 0.04c0,0.06 0.01,0.04 -0.05,0.04l0.01 0.01c0,0.08 0.03,0.06 -0.04,0.06l0 0.01c0.01,0.07 0.03,0.06 -0.04,0.06l0.01 0.01c0,0.07 0.03,0.06 -0.04,0.06l0 0c0.01,0.08 0.03,0.07 -0.04,0.07l0.01 0c0.01,0.08 0.03,0.07 -0.04,0.07l0.01 0c0,0.08 0.03,0.07 -0.04,0.07l0 0c0.01,0.07 0.03,0.07 -0.03,0.05l0 0.04c0,0.05 0.02,0.05 -0.04,0.03l0.01 0.04c0,0.06 0.01,0.04 -0.05,0.04l0.01 0.01c0,0.07 0.03,0.06 -0.04,0.06l0 0.01c0.01,0.07 0.03,0.06 -0.04,0.06l0.01 0 0.01 0.06 0.09 0.03 0.05 0.01c-0.01,-0.06 -0.02,-0.04 0.03,-0.04l0 -0.03c0,-0.06 -0.02,-0.04 0.03,-0.04l0 -0.03c0,-0.06 -0.02,-0.05 0.03,-0.05l0 -0.02 0 -0.04 0.04 -0.03 0 -0.02c0,-0.07 -0.02,-0.05 0.04,-0.05l0 -0.02c-0.01,-0.07 -0.02,-0.05 0.03,-0.05l0 -0.03c0,-0.06 -0.02,-0.04 0.04,-0.04l0.01 0 0 -0.05c0.04,-0.11 0.04,-0.08 0.19,-0.09l0.75 -0.02c0.04,0.11 0.11,0.23 0.17,0.34 0.05,0.11 0.11,0.27 0.21,0.31l0.05 -0.04c-0.01,-0.05 -0.03,-0.04 0.03,-0.03l-0.01 -0.04 0 -0.03 -0.04 -0.04 0 -0.02 -0.03 -0.05c-0.04,0 -0.03,0.01 -0.03,-0.04l0 -0.03c-0.05,0 -0.04,0.02 -0.03,-0.04l0 -0.02c-0.05,0 -0.04,0.01 -0.04,-0.04l0 -0.03 -0.04 -0.04 0 -0.02 -0.03 -0.05 0 -0.02 -0.03 -0.05 -0.04 -0.03 0 -0.03 -0.03 -0.04 0 -0.03c-0.05,0 -0.04,0.01 -0.03,-0.04l0 -0.03c-0.05,0 -0.04,0.01 -0.04,-0.04l0 -0.03c-0.05,0 -0.04,0.01 -0.03,-0.04l0 -0.03c-0.05,0 -0.04,0.01 -0.04,-0.04l0 -0.02c-0.05,0 -0.03,0.01 -0.03,-0.05l0 -0.02c-0.05,0 -0.04,0.01 -0.04,-0.05l0 -0.02c-0.05,0 -0.03,0.01 -0.03,-0.04l0 -0.03 -0.04 -0.04 0 -0.03 -0.03 -0.04 0 -0.02 -0.04 -0.05 0 -0.02 -0.03 -0.05 -0.03 -0.03 0 -0.03 -0.04 -0.04 0 -0.03c-0.05,0 -0.03,0.01 -0.03,-0.04l0 -0.03c-0.05,0 -0.04,0.01 -0.04,-0.04l0 -0.03 -0.03 -0.04 -0.03 0.01 -0.04 0.04z"/>
   <path class="fil2" d="M9.54 2.25l-9.52 0c0.35,0.12 4.1,0.06 4.78,0.06 0.67,0 4.38,0.06 4.74,-0.06z"/>
   <path class="fil0" d="M2.32 0.13l-0.01 0.05 0.01 1.55 0.07 0.03 0.05 0 0.02 0 -0.01 -0.31c0.02,-0.29 -0.04,-0.96 0.03,-1.17l-0.01 -0.08c0.15,-0.06 0.34,-0.01 0.48,0.08 0.17,0.09 0.18,0.17 0.1,0.35l-0.05 0.05c0.01,0.07 0.03,0.06 -0.03,0.06l0 0.01c0,0.06 0.02,0.05 -0.03,0.04 0,0.05 0.01,0.04 -0.04,0.04l-0.06 0.03 -0.04 0.04 -0.03 0 -0.04 0.03 0.02 0.08 0.63 0.78 0.05 -0.01 -0.01 -0.02 0.04 -0.04 0.03 -0.02 -0.04 -0.04 -0.03 -0.04 -0.03 -0.06 -0.04 -0.04 -0.03 -0.04 -0.04 -0.03 -0.03 -0.07c-0.05,0 -0.04,0.02 -0.04,-0.03l-0.03 -0.04 -0.04 -0.04 -0.03 -0.06c-0.05,0 -0.03,0.01 -0.03,-0.04l-0.04 -0.03 -0.03 -0.07c-0.05,0 -0.04,0.02 -0.04,-0.04l-0.04 -0.06 0.04 -0.04 0.04 0c-0.02,-0.06 -0.03,-0.04 0.03,-0.03 -0.01,-0.06 -0.02,-0.05 0.04,-0.03 -0.02,-0.06 -0.03,-0.05 0.03,-0.04 -0.01,-0.06 -0.02,-0.04 0.04,-0.04l0 -0.01c-0.01,-0.06 -0.02,-0.05 0.03,-0.05l0.03 -0.04 0 -0.03 0 -0.04 0.04 -0.04 0 -0.05 0 -0.12 -0.01 -0.05 -0.03 -0.05 -0.1 -0.09 -0.04 -0.04 -0.02 0 -0.06 -0.03 -0.05 -0.01 -0.07 -0.03 -0.05 0 -0.07 0 -0.11 -0.04 -0.14 0 -0.18 0 0 0.06z"/>
   <path class="fil0" d="M4.86 0.04l-0.06 0 -0.04 0.03 -0.04 0 -0.05 0.01 -0.05 0.03 -0.03 0 -0.04 0.03 -0.03 0.01 -0.03 0 -0.04 0.03 -0.03 0 -0.04 0.03 -0.03 0 -0.04 0.04 -0.03 0.03 -0.03 0 -0.04 0.03 -0.04 0.04 -0.09 0.06c0,0.06 0.01,0.04 -0.04,0.04l-0.03 0.04c0,0.05 0.01,0.03 -0.04,0.03l-0.03 0.06c0,0.06 0.01,0.05 -0.04,0.04 0,0.06 0.02,0.04 -0.04,0.04l0.01 0.02c0,0.07 0.02,0.06 -0.04,0.04l0 0.04c0,0.06 0.02,0.05 -0.04,0.03l-0.01 0.12 -0.02 0.07c0,0.31 0.14,0.54 0.38,0.68 0.3,0.18 0.57,0.12 0.9,0.14l0.02 0c0,-0.06 -0.01,-0.04 0.05,-0.03l0 -0.05 -0.04 -0.07 -0.19 0.01 -0.2 0.04 -0.08 -0.05 -0.08 0.01 -0.08 -0.04 -0.05 0 -0.05 -0.03 -0.03 0 -0.03 0 -0.03 -0.04 -0.05 -0.03 -0.02 0 -0.04 -0.04 -0.03 -0.03 -0.04 -0.03 -0.03 -0.04 -0.04 -0.04 0 -0.02c-0.04,0 -0.03,0.01 -0.03,-0.05l0 -0.02 -0.03 -0.04 0 -0.04 0 -0.25 0.03 -0.07 0 -0.01 0 -0.04c0,-0.05 -0.01,-0.04 0.04,-0.03l-0.01 -0.04c0,-0.05 -0.01,-0.04 0.04,-0.03 0,-0.06 -0.02,-0.05 0.04,-0.04 -0.01,-0.06 -0.03,-0.05 0.03,-0.03 -0.01,-0.06 -0.02,-0.05 0.04,-0.04 -0.02,-0.06 -0.03,-0.04 0.03,-0.03l0.02 -0.04 0.08 -0.03 -0.01 -0.03c0.12,-0.16 0.43,-0.25 0.62,-0.3l0.04 0.01c-0.02,-0.05 -0.02,-0.03 0.04,-0.03l0.03 0 0 -0.02 -0.03 -0.05 -0.01 -0.06 -0.02 0 -0.08 0.03z"/>
   <path class="fil3" d="M6 0.5l0 0.01c0,0.06 0.02,0.05 -0.03,0.05l0 0.03c0,0.05 0.01,0.04 -0.04,0.04l0 0.03c0,0.05 0.02,0.04 -0.03,0.04l0 0.02 -0.03 0.05 0 0.03 -0.01 0.03c0,0.06 0.02,0.05 -0.03,0.05l0 0.01c0,0.06 0.02,0.05 -0.04,0.05l0 0.02c0,0.06 0.02,0.05 -0.03,0.05l0 0.01 0.12 0.02 0.42 -0.01 0.07 0.01 0.01 -0.06c-0.05,-0.03 -0.04,0.06 -0.04,-0.07 -0.06,0.02 -0.05,0.02 -0.03,-0.04 -0.06,0.02 -0.05,0.02 -0.03,-0.04l-0.05 -0.06 -0.03 -0.08 -0.04 -0.06 0.01 -0.02c-0.07,0 -0.04,0.01 -0.04,-0.07l0.01 -0.05c-0.05,-0.02 -0.04,0.06 -0.05,-0.06l-0.06 -0.01 0.01 0.02c0,0.07 0.02,0.06 -0.04,0.06z"/>
   <path class="fil3" d="M0.84 0.5l0 0.01c0,0.06 0.02,0.05 -0.03,0.05l0 0.03c0,0.05 0.01,0.04 -0.04,0.04l0 0.03c0.01,0.05 0.02,0.04 -0.03,0.04l0 0.02 -0.03 0.05 0 0.03 -0.01 0.03c0,0.06 0.02,0.05 -0.03,0.05l0 0.01c0,0.06 0.02,0.05 -0.04,0.05l0 0.02c0,0.06 0.02,0.05 -0.03,0.05l0 0.01 0.12 0.02 0.42 -0.01 0.07 0.01 0.01 -0.06c-0.05,-0.03 -0.04,0.06 -0.04,-0.07 -0.06,0.02 -0.04,0.02 -0.03,-0.04 -0.06,0.02 -0.05,0.02 -0.03,-0.04l-0.05 -0.06 -0.03 -0.08 -0.04 -0.06 0.01 -0.02c-0.06,0 -0.04,0.01 -0.04,-0.07l0.01 -0.05c-0.05,-0.02 -0.04,0.06 -0.05,-0.06l-0.06 -0.01 0.01 0.02c0,0.07 0.02,0.06 -0.04,0.06z"/>
   <path class="fil4" d="M3.74 1.04l0.01 0.26 -0.03 0.06c0.05,0.01 0.03,-0.07 0.05,0.05l0.05 0.06 0.01 0.08c0.07,-0.02 0.05,-0.02 0.04,0.04 0.06,-0.02 0.05,-0.03 0.03,0.03 0.06,-0.01 0.05,-0.02 0.03,0.04 0.07,-0.02 0.06,-0.03 0.04,0.03l0.1 0.07 0.11 0.03c0.06,0 0.06,-0.02 0.03,0.04l0.18 0.02 0.09 0.05 0.44 -0.01 0.12 -0.06 0 -0.03c-0.33,-0.02 -0.6,0.04 -0.9,-0.14 -0.24,-0.14 -0.38,-0.37 -0.38,-0.68l-0.03 -0.01 0.01 0.07z"/>
   <path class="fil5" d="M0.48 1.26c0.15,0 0.31,-0.01 0.46,-0.03l0.32 -0.01c0.14,0.02 0.04,-0.02 0.1,0.06 0.05,-0.02 0.03,-0.03 0.03,0.04l0.01 0.01 0.02 0.07 0 0c0.07,0 0.05,-0.02 0.04,0.07l-0.01 0.01c0.06,0.03 0.05,-0.04 0.04,0.07l0.04 0.06 0.06 0.12c0.05,0.02 0.04,-0.05 0.04,0.07l0.04 0.06 0.1 0.01 0.03 -0.07c-0.1,-0.04 -0.16,-0.2 -0.21,-0.31 -0.06,-0.11 -0.13,-0.23 -0.17,-0.34l-0.75 0.02c-0.15,0.01 -0.15,-0.02 -0.19,0.09z"/>
   <path class="fil6" d="M8.92 0.53l0.05 0.05 -0.01 0.08c0.06,0.02 0,-0.06 0.05,0.04l0.02 0.17 0.04 0.05 -0.02 0.06c0.06,0.03 0.05,-0.04 0.05,0.09 0.04,0.02 0.03,-0.07 0.03,0.09l-0.01 0c0.05,0.03 0.05,-0.06 0.04,0.09l0.05 0.06 -0.01 0.03 0.04 0.08 -0.01 0.02 0.05 0.08 -0.01 0.02 0.05 0.06 0.01 0.16c0.07,0.06 0.04,-0.01 0.04,0.1 0.1,0.04 0.09,0.05 0.14,-0.04 -0.17,-0.1 -0.37,-1.19 -0.55,-1.39l-0.04 0.1z"/>
   <path class="fil5" d="M5.64 1.26l0.67 -0.04c0.01,0 0.1,0 0.1,0 0.15,0.02 0.05,-0.02 0.11,0.06 0.05,-0.02 0.03,-0.03 0.03,0.04l0.01 0.01 0.02 0.07 0 0c0.07,0 0.05,-0.02 0.04,0.07l-0.02 0.01c0.06,0.03 0.05,-0.04 0.06,0.07l0.06 0.11 0.04 0.07 0.03 0.07 0.04 0.06 0.1 0.01 0.03 -0.07c-0.17,-0.07 -0.3,-0.47 -0.39,-0.65l-0.89 0.02 -0.04 0.09z"/>
   <path class="fil6" d="M7.75 0.51l0.01 0.04 0.03 0.07 0.05 0.06 -0.01 0.07 -0.01 -0.01c0.07,0 0.05,-0.01 0.03,0.06 0.05,0.02 0.04,-0.05 0.04,0.07l0.04 0.07 0.03 0.07 0.04 0.06 0.04 0.07 0 0.06c0.06,-0.02 0.03,-0.02 0.03,0.06l-0.01 0c0.07,0 0.05,-0.02 0.04,0.05 0.05,-0.02 0.03,-0.03 0.04,0.04l0.02 0.11c0.05,0.01 0.03,-0.06 0.05,0.05l0.03 0.05 0 0.06 0.06 -0.03 0.01 -0.05 -0.49 -1.07 -0.07 -0.04 0 0.08z"/>
   <path class="fil7" d="M2.69 1.03l0.01 0.07 0.04 0.04 -0.01 0.03c0.07,-0.02 0.05,-0.02 0.04,0.04 0.05,-0.02 0.04,-0.03 0.04,0.03 0.05,-0.01 0.03,-0.02 0.04,0.04l-0.01 0.03c0.06,-0.02 0.04,-0.03 0.03,0.04 0.06,-0.02 0.05,-0.03 0.03,0.03 0.06,-0.01 0.05,-0.03 0.04,0.03 0.05,-0.01 0.04,-0.02 0.04,0.04l-0.01 0.03c0.07,-0.02 0.05,-0.02 0.03,0.04l0.08 0.1c0.06,-0.02 0.04,-0.03 0.03,0.04 0.06,-0.02 0.05,-0.03 0.03,0.03 0.06,-0.01 0.05,-0.03 0.04,0.03 0.05,-0.01 0.04,-0.02 0.04,0.04l-0.01 0.03c0.07,-0.02 0.05,-0.02 0.03,0.04l0.12 0.05 0.02 -0.09 -0.63 -0.78 -0.06 0.02z"/>
   <path class="fil6" d="M0.92 0.37l0.01 0.06c0.06,0.01 0.04,-0.04 0.05,0.06l0.04 0.06 0.03 0.08 0.04 0.06 0 0.02 0.02 0.06 0.06 0.05 -0.02 0.05c0.07,-0.03 0.04,-0.03 0.03,0.04 0.05,0.01 0.03,-0.05 0.04,0.07l0.05 0.06 0.09 -0.02 -0.4 -0.77 -0.04 0.12z"/>
   <path class="fil6" d="M6.07 0.37l0.02 0.06c0.06,0.01 0.04,-0.04 0.05,0.06l0.04 0.06 0.03 0.08 0.04 0.06 0 0.02 0.02 0.06 0.06 0.05 -0.02 0.05c0.07,-0.03 0.04,-0.03 0.03,0.04 0.05,0.01 0.03,-0.05 0.04,0.07l0.05 0.06 0.09 -0.02 -0.4 -0.77 -0.05 0.12z"/>
   <path class="fil8" d="M2.32 1.86c-0.05,-0.17 -0.07,-1.55 -0.01,-1.68l-0.07 0.01 0 1.29c0,0.37 -0.05,0.34 0.08,0.38z"/>
   <path class="fil9" d="M2.32 1.86l0.04 0 0.03 -0.1 -0.07 -0.03 -0.01 -1.55 0 0c-0.06,0.13 -0.04,1.51 0.01,1.68z"/>
   <path class="fil10" d="M2.45 1.45l0.04 0 0.01 -1.14 0.15 0.02 0 -0.05 -0.17 0c-0.07,0.21 -0.01,0.88 -0.03,1.17z"/>
   <path class="fil5" d="M2.48 0.28l0.17 0c0.15,0.02 0.06,0 0.09,0.05l0 -0.01c0.09,-0.01 0.08,-0.04 0.08,0.03l0 0c0.12,0.03 0.06,-0.01 0.12,0.07 0.06,-0.02 0.05,-0.03 0.03,0.03 0.07,-0.02 0.05,-0.02 0.03,0.05 0.07,-0.01 0.05,0.08 0.05,0.13 0.08,-0.18 0.07,-0.26 -0.1,-0.35l-0.48 -0.08 0.01 0.08z"/>
   <path class="fil11" d="M6.52 1.28c-0.06,-0.08 0.04,-0.04 -0.11,-0.06 0,0 -0.09,0 -0.1,0l-0.67 0.04 0 0.05 0.88 -0.03z"/>
   <path class="fil11" d="M1.36 1.28c-0.06,-0.08 0.04,-0.04 -0.1,-0.06l-0.32 0.01c-0.15,0.02 -0.31,0.03 -0.46,0.03l0 0.05 0.88 -0.03z"/>
   <path class="fil12" d="M4.27 0.46l0.08 -0.01 0.06 -0.04 0.12 -0.06 0.07 -0.02 0.06 0c0.01,-0.08 0.09,-0.05 0.13,-0.05l0.1 -0.04 0 -0.08c-0.19,0.05 -0.5,0.14 -0.62,0.3z"/>
   <path class="fil13" d="M5.03 1.87l-0.11 0.02 -0.44 0.01c0.06,0.04 0.02,0.04 0.14,0.05 0.05,0.01 0.09,0.01 0.14,0 0.09,0 0.23,-0.01 0.27,-0.08z"/>
   <path class="fil14" d="M2.95 0.28c-0.14,-0.09 -0.33,-0.14 -0.48,-0.08l0.48 0.08z"/>
   <polygon class="fil15" points="3.69,1.3 3.75,1.3 3.74,1.04 3.69,1.04 "/>
   <polygon class="fil5" points="0.06,1.85 0.18,1.86 0.18,1.83 0.18,1.79 0.09,1.76 0.05,1.76 "/>
   <polygon class="fil5" points="5.22,1.85 5.34,1.86 5.34,1.83 5.34,1.79 5.25,1.76 5.21,1.76 "/>
   <path class="fil16" d="M9.37 1.86l0.03 0.08c0.14,-0.03 0.14,-0.01 0.15,-0.14l-0.04 0.02c-0.05,0.09 -0.04,0.08 -0.14,0.04z"/>
   <path class="fil17" d="M2.46 1.76c0.05,-0.09 0.03,-0.18 0.03,-0.31l-0.04 0 0.01 0.31z"/>
   <polygon class="fil18" points="7.36,1.1 7.41,1.1 7.45,0.94 7.4,0.94 "/>
   <polygon class="fil19" points="1.14,1.03 0.72,1.04 0.72,1.08 "/>
   <polygon class="fil19" points="6.3,1.03 5.88,1.04 5.88,1.08 "/>
   <path class="fil20" d="M3 0.68l0.05 -0.05c0,-0.05 0.02,-0.14 -0.05,-0.13l0 0.18z"/>
   <path class="fil21" d="M4.39 1.9l0 -0.05 -0.18 -0.02c0.01,0 0.01,0.01 0.02,0.02 0.08,0.05 0.04,0.03 0.16,0.05z"/>
   <path class="fil16" d="M9.03 0.87l-0.02 -0.17 -0.05 0c0.01,0.1 0,0.12 0.07,0.17z"/>
   <polygon class="fil22" points="7.17,1.9 7.26,1.88 7.27,1.84 7.2,1.86 7.21,1.78 7.21,1.76 7.17,1.76 "/>
   <path class="fil23" d="M7.17 1.76l0.04 0 0.03 -0.17c-0.07,0.06 -0.06,0.05 -0.07,0.17z"/>
   <path class="fil24" d="M9.33 1.76l-0.01 -0.16 -0.06 0c0.03,0.12 0.01,0.09 0.07,0.16z"/>
   <path class="fil25" d="M7.3 1.3l0.04 0.01 0.04 -0.17c-0.05,0.04 -0.02,-0.01 -0.06,0.08 -0.02,0.03 -0.01,0.06 -0.02,0.08z"/>
   <path class="fil24" d="M8.24 1.62c0.04,0.06 -0.08,0.04 0.07,0.05l0.04 -0.07 -0.05 -0.01 -0.06 0.03z"/>
   <path class="fil26" d="M7.17 1.9l0 -0.14c-0.06,0.06 -0.1,0.09 0,0.14z"/>
   <polygon class="fil27" points="2.36,1.86 2.44,1.83 2.44,1.76 2.39,1.76 "/>
   <polygon class="fil21" points="7.31,1.86 7.26,1.88 7.17,1.9 7.25,1.96 "/>
   <path class="fil28" d="M3.73 0.91l0.05 0 0.01 -0.12c-0.06,0.05 -0.03,-0.02 -0.06,0.12z"/>
   <polygon class="fil29" points="0.72,1.08 0.72,1.04 0.6,1.02 0.6,1.07 "/>
   <polygon class="fil29" points="5.88,1.08 5.88,1.04 5.76,1.02 5.76,1.07 "/>
   <path class="fil30" d="M3.36 1.88l-0.12 -0.05 0.04 0.08c0.14,0 0.05,0.01 0.08,-0.03z"/>
   <path class="fil29" d="M2.5 0.07c-0.08,-0.05 -0.1,-0.05 -0.18,0l0.18 0z"/>
   <path class="fil31" d="M8.85 0.62l0 0.04 0.09 0 -0.02 -0.08 -0.03 -0.02 0 0.02c0,0.05 0.01,0.04 -0.04,0.04z"/>
   <polygon class="fil32" points="0.18,1.86 0.06,1.85 0.13,1.92 "/>
   <polygon class="fil32" points="5.34,1.86 5.22,1.85 5.29,1.92 "/>
   <path class="fil15" d="M2.74 0.33c-0.03,-0.05 0.06,-0.03 -0.09,-0.05l0 0.05 0.09 0z"/>
   <polygon class="fil26" points="3.83,1.55 3.82,1.47 3.77,1.45 3.78,1.54 "/>
   <path class="fil16" d="M0.06 1.85l-0.01 -0.09c-0.05,0.05 -0.02,-0.08 -0.05,0.08l0.06 0.01z"/>
   <path class="fil23" d="M2.82 0.35c0,-0.07 0.01,-0.04 -0.08,-0.03 0,0.07 -0.01,0.04 0.08,0.03z"/>
   <path class="fil33" d="M7.54 0.6c0.05,-0.03 0.05,0.07 0.04,-0.09l-0.04 0 0 0.09z"/>
   <polygon class="fil34" points="4.88,1.66 4.68,1.66 4.68,1.7 "/>
   <path class="fil35" d="M6.62 1.47c0.01,-0.09 0.03,-0.07 -0.04,-0.07 -0.01,0.08 -0.03,0.07 0.04,0.07z"/>
   <polygon class="fil21" points="1.77,1.87 1.83,1.86 1.85,1.76 1.8,1.8 "/>
   <path class="fil35" d="M1.46 1.47c0.01,-0.09 0.03,-0.07 -0.04,-0.07 -0.01,0.08 -0.03,0.07 0.04,0.07z"/>
   <polygon class="fil21" points="6.93,1.87 6.99,1.86 7,1.76 6.96,1.8 "/>
   <path class="fil24" d="M7.83 0.75l0.01 -0.07 -0.06 0c0,0.08 -0.02,0.07 0.05,0.07z"/>
   <path class="fil30" d="M3.69 1.04l0.05 0 -0.01 -0.07c-0.05,0.02 -0.03,-0.08 -0.04,0.07z"/>
   <path class="fil29" d="M3.25 0.53c0.06,-0.06 0.06,-0.06 0,-0.12l0 0.12z"/>
   <path class="fil8" d="M7.48 0.79c0.04,-0.01 0.03,0.08 0.04,-0.07l-0.06 0 0.02 0.07z"/>
   <path class="fil36" d="M9.13 1.16c0,-0.16 0.01,-0.07 -0.03,-0.09 -0.03,0.15 -0.02,0.05 0.03,0.09z"/>
   <path class="fil37" d="M2.31 0.18l0 0 0.01 -0.05c-0.13,0.02 -0.04,-0.01 -0.08,0.06l0.07 -0.01z"/>
   <path class="fil38" d="M4.79 0.28c-0.04,0 -0.12,-0.03 -0.13,0.05l0.13 -0.05z"/>
   <path class="fil32" d="M9.16 1.25c0.01,-0.15 0.01,-0.06 -0.04,-0.09 0.01,0.16 0,0.06 0.04,0.09z"/>
   <polygon class="fil36" points="4.41,0.41 4.53,0.4 4.53,0.35 "/>
   <polygon class="fil39" points="7.27,1.84 7.28,1.82 7.21,1.78 7.2,1.86 "/>
   <path class="fil16" d="M8.07 1.26c0,-0.08 0.03,-0.08 -0.03,-0.06 -0.02,0.08 -0.04,0.06 0.03,0.06z"/>
   <path class="fil40" d="M2.66 1.11c-0.01,-0.16 -0.01,-0.05 0.03,-0.08l0 -0.04 -0.08 0.05 0.05 0.07z"/>
   <path class="fil26" d="M7.85 0.8c0.02,-0.07 0.04,-0.06 -0.03,-0.06 -0.01,0.09 -0.04,0.09 0.03,0.06z"/>
   <polygon class="fil19" points="7.79,0.07 7.79,0.03 7.72,0.05 7.72,0.1 "/>
   <polygon class="fil27" points="4.89,0.24 4.94,0.24 4.93,0.17 4.89,0.16 "/>
   <path class="fil41" d="M8.1 1.31c0.01,-0.07 0.03,-0.05 -0.04,-0.05 -0.01,0.08 -0.04,0.08 0.04,0.05z"/>
   <path class="fil18" d="M5.45 1.29c-0.07,0 -0.05,-0.01 -0.04,0.07 0.06,0 0.04,0.01 0.04,-0.07z"/>
   <path class="fil18" d="M0.29 1.29c-0.07,0 -0.05,-0.01 -0.04,0.07 0.07,0 0.04,0.01 0.04,-0.07z"/>
   <path class="fil42" d="M8.04 1.2l0 -0.06 -0.06 0c0.03,0.12 0,0.05 0.06,0.06z"/>
   <path class="fil13" d="M4.6 0.33l-0.07 0.02 0 0.05c0.13,-0.04 0.03,0 0.07,-0.07z"/>
   <path class="fil43" d="M5.48 1.22c-0.07,0 -0.04,-0.01 -0.04,0.07 0.07,0 0.04,0.01 0.04,-0.07z"/>
   <path class="fil43" d="M0.32 1.22c-0.06,0 -0.04,-0.01 -0.04,0.07 0.07,0 0.05,0.01 0.04,-0.07z"/>
   <path class="fil16" d="M3.72 1.36l0.03 -0.06 -0.06 0c0,0.08 -0.03,0.08 0.03,0.06z"/>
   <polygon class="fil35" points="6.93,1.87 6.83,1.86 6.85,1.92 "/>
   <polygon class="fil35" points="1.77,1.87 1.67,1.86 1.69,1.92 "/>
   <path class="fil44" d="M2.69 0.99l0.06 0.02 -0.02 -0.08c-0.05,0.03 -0.03,-0.05 -0.04,0.06z"/>
   <path class="fil30" d="M6.66 1.55c-0.01,-0.11 0,-0.04 -0.06,-0.07 0.03,0.13 0,0.05 0.06,0.07z"/>
   <path class="fil45" d="M7.24 1.59c0.04,-0.02 0.02,0.07 0.04,-0.07l-0.05 0 0.01 0.07z"/>
   <polygon class="fil41" points="8.16,1.46 8.14,1.35 8.09,1.35 "/>
   <path class="fil46" d="M6.09 0.43l-0.02 -0.06c-0.06,0 -0.04,-0.01 -0.04,0.05l0.06 0.01z"/>
   <path class="fil46" d="M0.93 0.43l-0.01 -0.06c-0.07,0 -0.05,-0.01 -0.05,0.05l0.06 0.01z"/>
   <path class="fil43" d="M5.58 1.02c-0.06,0 -0.04,-0.01 -0.04,0.06 0.07,0 0.05,0.01 0.04,-0.06z"/>
   <path class="fil43" d="M0.35 1.15c-0.06,0 -0.04,-0.01 -0.04,0.07 0.07,0 0.05,0.01 0.04,-0.07z"/>
   <path class="fil43" d="M5.31 1.57c-0.07,0 -0.04,-0.01 -0.04,0.06 0.06,0 0.04,0.01 0.04,-0.06z"/>
   <path class="fil43" d="M5.51 1.15c-0.06,0 -0.04,-0.01 -0.04,0.07 0.07,0 0.05,0.01 0.04,-0.07z"/>
   <path class="fil43" d="M0.42 1.02c-0.06,0 -0.04,-0.01 -0.04,0.06 0.07,0 0.05,0.01 0.04,-0.06z"/>
   <path class="fil43" d="M0.15 1.57c-0.06,0 -0.04,-0.01 -0.04,0.06 0.07,0 0.04,0.01 0.04,-0.06z"/>
   <path class="fil43" d="M5.62 0.95c-0.07,0 -0.04,-0.01 -0.04,0.06 0.06,0 0.04,0.02 0.04,-0.06z"/>
   <path class="fil43" d="M5.27 1.64c-0.06,0 -0.04,-0.02 -0.04,0.06 0.07,0 0.05,0.01 0.04,-0.06z"/>
   <path class="fil43" d="M0.39 1.09c-0.06,0 -0.04,-0.02 -0.04,0.06 0.07,0 0.04,0.01 0.04,-0.06z"/>
   <path class="fil43" d="M0.11 1.64c-0.06,0 -0.04,-0.02 -0.04,0.06 0.07,0 0.05,0.01 0.04,-0.06z"/>
   <path class="fil43" d="M0.46 0.95c-0.07,0 -0.04,-0.01 -0.04,0.06 0.07,0 0.04,0.02 0.04,-0.06z"/>
   <path class="fil43" d="M5.55 1.09c-0.07,0 -0.04,-0.02 -0.04,0.06 0.07,0 0.04,0.01 0.04,-0.06z"/>
   <path class="fil30" d="M1.49 1.55c0.01,-0.11 0.02,-0.04 -0.04,-0.07 0.02,0.13 0,0.05 0.04,0.07z"/>
   <polygon class="fil41" points="4.18,1.84 4.18,1.79 4.07,1.76 "/>
   <polygon class="fil16" points="8.94,0.66 8.96,0.66 8.97,0.58 8.92,0.58 "/>
   <path class="fil37" d="M1.01 0.61l0.01 -0.06 -0.05 -0.01c0,0.08 -0.02,0.07 0.04,0.07z"/>
   <path class="fil37" d="M6.17 0.61l0.01 -0.06 -0.05 -0.01c0,0.08 -0.03,0.07 0.04,0.07z"/>
   <path class="fil37" d="M7.99 1.13l0.01 -0.06 -0.05 -0.01c0,0.08 -0.02,0.07 0.04,0.07z"/>
   <polygon class="fil15" points="7.27,1.44 7.27,1.49 7.32,1.39 7.27,1.39 "/>
   <path class="fil37" d="M7.78 0.68l0.01 -0.06 -0.04 -0.01c-0.01,0.08 -0.03,0.07 0.03,0.07z"/>
   <path class="fil42" d="M4.94 0.24l-0.05 0 0 0.05c0.07,0 0.05,0.02 0.05,-0.05z"/>
   <path class="fil47" d="M2.66 1.11l0.04 -0.01 -0.01 -0.07c-0.04,0.03 -0.04,-0.08 -0.03,0.08z"/>
   <path class="fil41" d="M7.44 0.86l0.04 0.01 0 -0.08c-0.04,0.02 -0.04,-0.07 -0.04,0.07z"/>
   <path class="fil48" d="M9.05 0.98l0.02 -0.06 -0.05 0c0,0.08 -0.03,0.08 0.03,0.06z"/>
   <polygon class="fil16" points="5.22,1.85 5.21,1.76 5.16,1.84 "/>
   <path class="fil18" d="M7.89 0.87c0,-0.12 0.01,-0.05 -0.04,-0.07 0,0.13 0,0.05 0.04,0.07z"/>
   <path class="fil49" d="M6.38 0.98c-0.01,-0.12 0.01,-0.06 -0.04,-0.07 0,0.13 -0.01,0.04 0.04,0.07z"/>
   <path class="fil49" d="M1.22 0.98c-0.01,-0.12 0.01,-0.06 -0.04,-0.07 0,0.13 -0.01,0.04 0.04,0.07z"/>
   <path class="fil49" d="M0.98 0.49c-0.01,-0.1 0.01,-0.05 -0.05,-0.06 0.01,0.12 0,0.04 0.05,0.06z"/>
   <path class="fil49" d="M6.14 0.49c-0.01,-0.1 0.01,-0.05 -0.05,-0.06 0.01,0.12 0,0.04 0.05,0.06z"/>
   <path class="fil47" d="M6.55 1.32c0,-0.07 0.02,-0.06 -0.03,-0.04l-0.02 0.04 0.05 0z"/>
   <polygon class="fil45" points="7.57,0.49 7.62,0.38 7.58,0.38 "/>
   <polygon class="fil11" points="3.73,0.97 3.76,0.98 3.78,0.91 3.73,0.91 "/>
   <polygon class="fil42" points="7.46,0.72 7.52,0.72 7.51,0.71 7.51,0.62 "/>
   <path class="fil35" d="M5.25 1.76l-0.01 -0.06c-0.06,0 -0.05,-0.01 -0.03,0.06l0.04 0z"/>
   <path class="fil35" d="M0.09 1.76l-0.01 -0.06c-0.06,0 -0.04,-0.01 -0.03,0.06l0.04 0z"/>
   <path class="fil47" d="M1.39 1.32c0,-0.07 0.02,-0.06 -0.03,-0.04l-0.02 0.04 0.05 0z"/>
   <polygon class="fil18" points="4.48,1.9 4.39,1.85 4.39,1.9 "/>
   <path class="fil23" d="M0.25 1.36c-0.06,0 -0.04,-0.01 -0.03,0.05 0.06,0.02 0.04,0.02 0.03,-0.05z"/>
   <path class="fil23" d="M5.41 1.36c-0.06,0 -0.04,-0.01 -0.03,0.05 0.06,0.02 0.04,0.02 0.03,-0.05z"/>
   <path class="fil27" d="M1.18 0.91c0.01,-0.07 0.04,-0.07 -0.03,-0.04 -0.01,0.06 -0.03,0.06 0.03,0.04z"/>
   <path class="fil27" d="M6.34 0.91c0.01,-0.07 0.04,-0.07 -0.03,-0.04 -0.02,0.06 -0.03,0.06 0.03,0.04z"/>
   <polygon class="fil27" points="4.89,0.29 4.89,0.24 4.79,0.28 "/>
   <path class="fil24" d="M3.15 0.79c-0.06,0 -0.05,-0.02 -0.04,0.04 0.06,0.02 0.04,0.03 0.04,-0.04z"/>
   <polygon class="fil33" points="8.92,0.58 8.97,0.58 8.92,0.53 8.89,0.56 "/>
   <path class="fil50" d="M8.54 1.23c-0.05,0 -0.03,-0.01 -0.03,0.06 0.06,0 0.04,0.01 0.03,-0.06z"/>
   <polygon class="fil23" points="7.26,1.88 7.31,1.86 7.33,1.83 7.28,1.82 7.27,1.84 "/>
   <path class="fil36" d="M3 0.5c0.02,-0.07 0.04,-0.07 -0.03,-0.05 -0.01,0.07 -0.03,0.06 0.03,0.05z"/>
   <path class="fil36" d="M8.82 0.4c-0.06,0 -0.05,-0.01 -0.04,0.05 0.06,0.02 0.04,0.02 0.04,-0.05z"/>
   <path class="fil26" d="M3.11 1.66c0.01,-0.07 0.03,-0.06 -0.03,-0.04 -0.02,0.06 -0.04,0.06 0.03,0.04z"/>
   <path class="fil51" d="M8.4 1.19c-0.06,0 -0.04,-0.01 -0.03,0.05 0.06,0.02 0.04,0.02 0.03,-0.05z"/>
   <path class="fil26" d="M2.87 1.35c0.01,-0.07 0.03,-0.06 -0.03,-0.04 -0.02,0.07 -0.03,0.06 0.03,0.04z"/>
   <path class="fil24" d="M6.31 0.87l0.02 -0.05 -0.05 0.01c-0.02,0.06 -0.03,0.06 0.03,0.04z"/>
   <path class="fil24" d="M1.15 0.87l0.02 -0.05 -0.05 0.01c-0.02,0.06 -0.03,0.06 0.03,0.04z"/>
   <path class="fil11" d="M3.72 1.4l0.05 0.01c-0.02,-0.12 0,-0.04 -0.05,-0.05l0 0.04z"/>
   <path class="fil52" d="M2.77 1.21c0.01,-0.06 0.03,-0.06 -0.04,-0.04 -0.01,0.07 -0.03,0.06 0.04,0.04z"/>
   <path class="fil33" d="M7.41 1.1l-0.05 0 0.02 0.04c0.05,0.03 0.03,0.03 0.03,-0.04z"/>
   <path class="fil23" d="M3.14 1.69c0.02,-0.06 0.03,-0.05 -0.03,-0.03 -0.02,0.06 -0.03,0.05 0.03,0.03z"/>
   <path class="fil25" d="M3 1.52c0.02,-0.06 0.04,-0.06 -0.03,-0.04 -0.01,0.07 -0.03,0.06 0.03,0.04z"/>
   <path class="fil23" d="M2.9 1.38c0.02,-0.06 0.03,-0.05 -0.03,-0.03 -0.02,0.06 -0.03,0.05 0.03,0.03z"/>
   <path class="fil50" d="M8.82 0.72c-0.05,0 -0.03,-0.01 -0.04,0.05 0.06,0 0.04,0.02 0.04,-0.05z"/>
   <polygon class="fil42" points="7.27,1.39 7.32,1.39 7.31,1.37 7.3,1.3 "/>
   <path class="fil18" d="M8.16 1.51l0.05 0c-0.02,-0.11 0,-0.04 -0.05,-0.05l0 0.05z"/>
   <path class="fil36" d="M3.87 1.59c0.01,-0.06 0.03,-0.06 -0.04,-0.04 -0.01,0.07 -0.03,0.06 0.04,0.04z"/>
   <path class="fil36" d="M3.04 0.9c-0.06,-0.01 -0.05,-0.03 -0.03,0.03 0.06,0.02 0.05,0.03 0.03,-0.03z"/>
   <path class="fil23" d="M3.97 1.69c0.02,-0.06 0.03,-0.05 -0.04,-0.03 -0.01,0.06 -0.02,0.05 0.04,0.03z"/>
   <path class="fil24" d="M8.24 1.62l0 -0.06 -0.05 0.01c0.02,0.1 0,0.03 0.05,0.05z"/>
   <path class="fil35" d="M3.93 1.66c0.02,-0.06 0.03,-0.05 -0.03,-0.04 -0.02,0.07 -0.03,0.05 0.03,0.04z"/>
   <path class="fil25" d="M3.24 1.83c0.02,-0.06 0.04,-0.06 -0.03,-0.04 -0.01,0.06 -0.03,0.06 0.03,0.04z"/>
   <path class="fil53" d="M8.62 1.1c-0.06,0 -0.04,-0.01 -0.04,0.05 0.06,0 0.04,0.01 0.04,-0.05z"/>
   <path class="fil38" d="M2.97 0.45c0.02,-0.06 0.03,-0.05 -0.03,-0.03 -0.02,0.06 -0.03,0.05 0.03,0.03z"/>
   <polygon class="fil32" points="6.68,1.66 6.72,1.66 6.66,1.55 "/>
   <path class="fil35" d="M3.9 1.62c0.02,-0.06 0.03,-0.05 -0.03,-0.03 -0.02,0.06 -0.03,0.05 0.03,0.03z"/>
   <path class="fil44" d="M0.88 0.44c-0.06,0 -0.04,-0.01 -0.04,0.06 0.06,0 0.04,0.01 0.04,-0.06z"/>
   <path class="fil44" d="M6.04 0.44c-0.06,0 -0.04,-0.01 -0.04,0.06 0.06,0 0.04,0.01 0.04,-0.06z"/>
   <polygon class="fil54" points="8.35,1.6 8.34,1.54 8.31,1.54 8.3,1.59 "/>
   <path class="fil23" d="M3.08 0.87c-0.06,-0.02 -0.05,-0.03 -0.04,0.03 0.06,0.02 0.05,0.03 0.04,-0.03z"/>
   <path class="fil13" d="M2.8 1.28l0.01 -0.04 -0.05 0c0,0.06 -0.02,0.05 0.04,0.04z"/>
   <polygon class="fil55" points="7.51,0.62 7.55,0.62 7.54,0.6 7.54,0.51 "/>
   <polygon class="fil45" points="7.51,0.71 7.55,0.62 7.51,0.62 "/>
   <polygon class="fil15" points="7.98,1.14 8.04,1.14 8,1.07 7.99,1.13 "/>
   <path class="fil56" d="M8.48 1.34c-0.06,0 -0.04,-0.01 -0.04,0.05 0.06,0 0.04,0.01 0.04,-0.05z"/>
   <path class="fil51" d="M5.69 0.82l-0.05 0 0.01 0.04c0.06,0.02 0.04,0.03 0.04,-0.04z"/>
   <path class="fil51" d="M0.53 0.82l-0.05 0 0.01 0.04c0.06,0.02 0.04,0.03 0.04,-0.04z"/>
   <path class="fil53" d="M8.58 1.17c-0.05,0 -0.04,-0.02 -0.04,0.05 0.06,0 0.04,0.01 0.04,-0.05z"/>
   <path class="fil52" d="M4.18 0.56c-0.06,-0.01 -0.05,-0.03 -0.03,0.03 0.06,0.02 0.05,0.03 0.03,-0.03z"/>
   <path class="fil26" d="M6.03 0.1c-0.06,-0.01 -0.04,-0.02 -0.03,0.05 0.06,0.01 0.04,0.01 0.03,-0.05z"/>
   <path class="fil26" d="M0.87 0.1c-0.06,-0.01 -0.04,-0.02 -0.03,0.05 0.06,0.01 0.04,0.01 0.03,-0.05z"/>
   <path class="fil37" d="M0.5 0.9l-0.01 -0.04c-0.06,-0.02 -0.04,-0.03 -0.04,0.04l0.05 0z"/>
   <polygon class="fil57" points="7.75,0.43 7.82,0.47 7.78,0.39 "/>
   <path class="fil37" d="M5.66 0.9l-0.01 -0.04c-0.06,-0.02 -0.04,-0.03 -0.04,0.04l0.05 0z"/>
   <path class="fil13" d="M7.63 0.17l0.06 0.01c-0.02,-0.05 -0.03,-0.04 0.03,-0.04l0 -0.04 -0.09 0.07z"/>
   <path class="fil48" d="M2.93 1.46l0.01 -0.05 -0.05 0.01c0.01,0.06 -0.01,0.05 0.04,0.04z"/>
   <path class="fil58" d="M0.84 0.51c-0.05,0 -0.03,-0.01 -0.03,0.05 0.05,0 0.03,0.01 0.03,-0.05z"/>
   <path class="fil58" d="M6 0.51c-0.05,0 -0.04,-0.01 -0.03,0.05 0.05,0 0.03,0.01 0.03,-0.05z"/>
   <path class="fil48" d="M3.17 1.77l0.01 -0.05 -0.05 0c0.01,0.06 -0.01,0.06 0.04,0.05z"/>
   <polygon class="fil42" points="9.23,1.5 9.23,1.44 9.24,1.42 9.19,1.42 "/>
   <path class="fil13" d="M0.23 1.83l-0.05 0 0 0.03c0.06,0.03 0.05,0.04 0.05,-0.03z"/>
   <path class="fil13" d="M5.39 1.83l-0.05 0 0 0.03c0.06,0.03 0.05,0.04 0.05,-0.03z"/>
   <polygon class="fil42" points="9.26,1.6 9.27,1.54 9.28,1.52 9.22,1.52 "/>
   <path class="fil38" d="M4.15 0.59c-0.06,-0.01 -0.05,-0.02 -0.04,0.04 0.06,0.01 0.05,0.02 0.04,-0.04z"/>
   <path class="fil43" d="M0.5 0.9l-0.05 0 0 0.04c0.06,0 0.05,0.02 0.05,-0.04z"/>
   <path class="fil43" d="M5.66 0.9l-0.05 0 0 0.04c0.06,0 0.04,0.02 0.05,-0.04z"/>
   <polygon class="fil19" points="2.75,0.11 2.75,0.08 2.64,0.07 "/>
   <polygon class="fil13" points="7.54,0.51 7.58,0.51 7.57,0.49 7.58,0.38 "/>
   <path class="fil21" d="M3.9 0.62c-0.06,-0.01 -0.04,-0.02 -0.04,0.04 0.06,0 0.04,0.02 0.04,-0.04z"/>
   <path class="fil44" d="M0.32 1.61c-0.05,0 -0.03,-0.01 -0.03,0.05 0.06,0 0.04,0.02 0.03,-0.05z"/>
   <path class="fil44" d="M5.48 1.61c-0.05,0 -0.03,-0.01 -0.03,0.05 0.06,0 0.04,0.02 0.03,-0.05z"/>
   <path class="fil8" d="M2.85 1.28c-0.01,-0.06 0.01,-0.05 -0.04,-0.04l-0.01 0.04 0.05 0z"/>
   <path class="fil38" d="M3.11 0.83c-0.06,-0.01 -0.05,-0.02 -0.03,0.04 0.06,0.02 0.05,0.03 0.03,-0.04z"/>
   <path class="fil59" d="M5.35 1.52l-0.05 0 0 0.04c0.06,0 0.05,0.02 0.05,-0.04z"/>
   <path class="fil59" d="M0.19 1.52l-0.05 0 0 0.04c0.06,0 0.05,0.02 0.05,-0.04z"/>
   <path class="fil56" d="M8.72 0.9c-0.06,0 -0.04,-0.02 -0.03,0.05 0.05,0 0.03,0.01 0.03,-0.05z"/>
   <polygon class="fil42" points="6.56,1.39 6.56,1.33 6.55,1.32 6.5,1.32 "/>
   <polygon class="fil30" points="7.23,1.52 7.28,1.52 7.27,1.49 7.27,1.44 "/>
   <path class="fil43" d="M3.87 0.68c-0.06,0 -0.05,-0.01 -0.04,0.04 0.06,0.02 0.04,0.03 0.04,-0.04z"/>
   <path class="fil60" d="M8.79 0.79c-0.06,0 -0.04,-0.02 -0.04,0.04 0.06,0.01 0.04,0.02 0.04,-0.04z"/>
   <polygon class="fil42" points="1.4,1.39 1.4,1.33 1.39,1.32 1.34,1.32 "/>
   <path class="fil37" d="M8.44 1.14l0 -0.04c-0.06,-0.02 -0.04,-0.02 -0.04,0.04l0.04 0z"/>
   <polygon class="fil11" points="9.22,1.52 9.28,1.52 9.23,1.44 9.23,1.5 "/>
   <polygon class="fil47" points="9.19,1.42 9.24,1.42 9.2,1.34 9.19,1.39 "/>
   <path class="fil61" d="M8.41 1.48c-0.06,0 -0.04,-0.01 -0.04,0.05 0.06,0 0.04,0.01 0.04,-0.05z"/>
   <path class="fil37" d="M3.83 0.76l0 -0.04c-0.06,-0.01 -0.04,-0.02 -0.04,0.04l0.04 0z"/>
   <path class="fil62" d="M4.97 0.07l0.03 0c-0.01,-0.1 0.01,-0.04 -0.04,-0.06l0.01 0.06z"/>
   <path class="fil51" d="M8.44 1.14l-0.04 0 0 0.04c0.06,0 0.04,0.02 0.04,-0.04z"/>
   <path class="fil61" d="M5.59 1.38c-0.06,0 -0.04,-0.02 -0.04,0.05 0.06,0 0.04,0.01 0.04,-0.05z"/>
   <path class="fil61" d="M0.43 1.38c-0.05,0 -0.04,-0.02 -0.03,0.05 0.05,0 0.03,0.01 0.03,-0.05z"/>
   <polygon class="fil13" points="7.58,0.38 7.62,0.38 7.61,0.37 7.61,0.28 "/>
   <path class="fil49" d="M8.14 1.35c-0.01,-0.07 0.01,-0.06 -0.04,-0.04l-0.01 0.04 0.05 0z"/>
   <polygon class="fil37" points="9.19,1.39 9.2,1.34 9.21,1.31 9.15,1.31 "/>
   <path class="fil61" d="M8.65 1.03c-0.05,0 -0.04,-0.01 -0.04,0.05 0.06,0 0.04,0.01 0.04,-0.05z"/>
   <path class="fil52" d="M4.11 0.63c-0.06,-0.02 -0.04,-0.03 -0.03,0.03 0.06,0.02 0.04,0.03 0.03,-0.03z"/>
   <path class="fil42" d="M5.38 1.45l0 -0.04c-0.06,-0.02 -0.04,-0.02 -0.04,0.04l0.04 0z"/>
   <path class="fil42" d="M0.22 1.45l0 -0.04c-0.06,-0.02 -0.04,-0.02 -0.04,0.04l0.04 0z"/>
   <path class="fil58" d="M5.63 1.31c-0.06,0 -0.04,-0.02 -0.04,0.04 0.05,0 0.03,0.02 0.04,-0.04z"/>
   <path class="fil58" d="M0.47 1.31c-0.06,0 -0.04,-0.02 -0.04,0.04 0.05,0 0.04,0.02 0.04,-0.04z"/>
   <polygon class="fil27" points="5.03,1.87 5.04,1.83 4.92,1.89 "/>
   <path class="fil42" d="M8.79 0.49l-0.01 -0.04c-0.05,-0.02 -0.03,-0.03 -0.04,0.04l0.05 0z"/>
   <polygon class="fil42" points="7.4,0.94 7.45,0.94 7.44,0.86 "/>
   <path class="fil56" d="M8.45 1.41c-0.06,0 -0.04,-0.01 -0.04,0.05 0.05,0 0.04,0.01 0.04,-0.05z"/>
   <path class="fil48" d="M5.35 1.52l-0.01 -0.04c-0.05,-0.02 -0.03,-0.02 -0.04,0.04l0.05 0z"/>
   <path class="fil48" d="M0.19 1.52l-0.01 -0.04c-0.05,-0.02 -0.03,-0.02 -0.04,0.04l0.05 0z"/>
   <path class="fil48" d="M8.75 0.56l0 -0.04c-0.06,-0.02 -0.04,-0.03 -0.04,0.04l0.04 0z"/>
   <path class="fil28" d="M8.92 0.25l0 -0.04c-0.06,-0.01 -0.04,-0.02 -0.04,0.04l0.04 0z"/>
   <path class="fil48" d="M8.48 1.07l-0.01 -0.04c-0.05,-0.02 -0.03,-0.02 -0.04,0.04l0.05 0z"/>
   <path class="fil43" d="M8.75 0.56l-0.04 0 0 0.04c0.05,0 0.04,0.01 0.04,-0.04z"/>
   <path class="fil61" d="M8.69 0.96c-0.06,0 -0.04,-0.01 -0.04,0.05 0.05,0 0.04,0.01 0.04,-0.05z"/>
   <polygon class="fil45" points="7.61,0.37 7.66,0.28 7.61,0.28 "/>
   <path class="fil54" d="M3.22 1.76c0,-0.06 0.01,-0.05 -0.04,-0.04l-0.01 0.05 0.05 -0.01z"/>
   <path class="fil54" d="M2.98 1.45c0,-0.06 0.01,-0.05 -0.04,-0.04l-0.01 0.05 0.05 -0.01z"/>
   <path class="fil14" d="M5.86 0.48l-0.05 0 0.01 0.04c0.06,0.01 0.04,0.02 0.04,-0.04z"/>
   <path class="fil14" d="M0.7 0.48l-0.05 0 0.01 0.04c0.06,0.01 0.04,0.02 0.04,-0.04z"/>
   <polygon class="fil42" points="6.23,0.77 6.25,0.71 6.25,0.69 6.2,0.69 "/>
   <polygon class="fil42" points="1.07,0.77 1.09,0.71 1.09,0.69 1.04,0.69 "/>
   <path class="fil48" d="M2.69 1.15l0.01 -0.05 -0.04 0.01c-0.01,0.05 -0.02,0.05 0.03,0.04z"/>
   <path class="fil61" d="M5.93 0.66c-0.05,0 -0.03,-0.02 -0.03,0.04 0.05,0 0.03,0.01 0.03,-0.04z"/>
   <path class="fil61" d="M0.77 0.66c-0.05,0 -0.03,-0.02 -0.03,0.04 0.05,0 0.04,0.01 0.03,-0.04z"/>
   <path class="fil47" d="M4.21 1.83c0.03,-0.06 0.03,-0.04 -0.03,-0.04l0 0.05 0.03 -0.01z"/>
   <path class="fil53" d="M8.85 0.66c-0.05,-0.01 -0.03,-0.02 -0.03,0.04 0.05,0 0.04,0.01 0.03,-0.04z"/>
   <polygon class="fil26" points="3.36,1.88 3.43,1.78 3.38,1.79 "/>
   <path class="fil56" d="M6.07 0.07c-0.06,0 -0.05,-0.02 -0.04,0.03 0.05,0.02 0.04,0.03 0.04,-0.03z"/>
   <path class="fil56" d="M0.91 0.07c-0.06,0 -0.05,-0.02 -0.04,0.03 0.05,0.02 0.04,0.03 0.04,-0.03z"/>
   <path class="fil38" d="M2.94 0.42c-0.06,-0.08 0,-0.04 -0.12,-0.07l0.12 0.07z"/>
   <path class="fil38" d="M3.01 0.93l-0.04 0 0.01 0.04c0.06,0.01 0.05,0.02 0.03,-0.04z"/>
   <polygon class="fil63" points="7.65,0.26 7.69,0.18 7.63,0.17 7.65,0.2 "/>
   <polygon class="fil28" points="5.81,0.48 5.86,0.48 5.87,0.46 5.86,0.41 "/>
   <polygon class="fil28" points="0.65,0.48 0.7,0.48 0.71,0.46 0.7,0.41 "/>
   <path class="fil56" d="M3.18 0.73c-0.05,0 -0.04,-0.01 -0.03,0.05 0.05,0 0.04,0.01 0.03,-0.05z"/>
   <path class="fil56" d="M2.97 0.75c-0.05,0 -0.04,-0.01 -0.03,0.04 0.05,0.01 0.03,0.02 0.03,-0.04z"/>
   <polygon class="fil45" points="6.16,0.63 6.21,0.63 6.18,0.55 6.17,0.61 "/>
   <polygon class="fil45" points="1,0.63 1.05,0.63 1.02,0.55 1.01,0.61 "/>
   <polygon class="fil42" points="0.48,0.82 0.53,0.82 0.53,0.81 0.52,0.76 "/>
   <polygon class="fil42" points="5.64,0.82 5.69,0.82 5.69,0.81 5.68,0.76 "/>
   <path class="fil32" d="M1.59 1.73l-0.06 -0.12c0.02,0.12 -0.01,0.06 0.06,0.12z"/>
   <polygon class="fil47" points="9.15,1.31 9.21,1.31 9.16,1.25 "/>
   <path class="fil58" d="M0.81 0.59c-0.05,0 -0.04,-0.02 -0.04,0.04 0.05,0 0.04,0.01 0.04,-0.04z"/>
   <path class="fil58" d="M5.97 0.59c-0.06,0 -0.04,-0.02 -0.04,0.04 0.05,0 0.04,0.01 0.04,-0.04z"/>
   <polygon class="fil42" points="6.2,0.69 6.21,0.63 6.16,0.63 "/>
   <polygon class="fil42" points="1.04,0.69 1.05,0.63 1,0.63 "/>
   <path class="fil24" d="M0.67 0.56l-0.01 -0.04c-0.05,-0.02 -0.04,-0.03 -0.03,0.04l0.04 0z"/>
   <polygon class="fil15" points="7.78,0.68 7.84,0.68 7.79,0.62 7.78,0.68 "/>
   <path class="fil24" d="M5.83 0.56l-0.01 -0.04c-0.06,-0.02 -0.04,-0.03 -0.03,0.04l0.04 0z"/>
   <polygon class="fil49" points="6.37,1.04 6.43,1.04 6.38,0.98 "/>
   <polygon class="fil49" points="1.21,1.04 1.27,1.04 1.22,0.98 "/>
   <path class="fil59" d="M4.08 0.66c-0.06,-0.01 -0.04,-0.02 -0.04,0.04 0.06,0.01 0.05,0.02 0.04,-0.04z"/>
   <path class="fil24" d="M2.73 1.17l0.01 -0.03 -0.05 0.01c0,0.06 -0.02,0.04 0.04,0.02z"/>
   <path class="fil24" d="M3.21 1.79l0.01 -0.03 -0.05 0.01c0,0.05 -0.01,0.04 0.04,0.02z"/>
   <path class="fil24" d="M2.97 1.48l0.01 -0.03 -0.05 0.01c0,0.06 -0.01,0.04 0.04,0.02z"/>
   <path class="fil21" d="M2.84 1.31l0.01 -0.03 -0.05 0c-0.01,0.06 -0.02,0.05 0.04,0.03z"/>
   <polygon class="fil63" points="6.2,0.69 6.25,0.69 6.21,0.63 "/>
   <polygon class="fil63" points="1.04,0.69 1.09,0.69 1.05,0.63 "/>
   <path class="fil35" d="M2.81 1.24c0,-0.06 0.01,-0.05 -0.04,-0.03l-0.01 0.03 0.05 0z"/>
   <path class="fil64" d="M0.7 0.83l-0.03 0 0 0.05c0.05,0 0.03,0.01 0.03,-0.05z"/>
   <path class="fil64" d="M5.86 0.83l-0.03 0 0 0.05c0.05,0 0.03,0.01 0.03,-0.05z"/>
   <path class="fil56" d="M8.75 0.83c-0.05,0 -0.03,-0.01 -0.03,0.05 0.05,0 0.04,0.01 0.03,-0.05z"/>
   <path class="fil55" d="M4.05 0.73l-0.05 0 0.01 0.04c0.05,0 0.03,0.01 0.04,-0.04z"/>
   <path class="fil23" d="M4.07 1.76l-0.1 -0.07c0.05,0.08 -0.02,0.04 0.1,0.07z"/>
   <path class="fil19" d="M8.34 1.24c0.01,-0.05 0.02,-0.04 -0.03,-0.04 -0.01,0.06 -0.02,0.05 0.03,0.04z"/>
   <polygon class="fil46" points="0.23,1.83 0.23,1.8 0.18,1.79 0.18,1.83 "/>
   <polygon class="fil46" points="5.39,1.83 5.39,1.8 5.34,1.79 5.34,1.83 "/>
   <path class="fil65" d="M4.97 0.18l0 -0.04c-0.06,0 -0.06,-0.02 -0.04,0.03l0.04 0.01z"/>
   <path class="fil11" d="M2.94 1.41c0.01,-0.06 0.02,-0.04 -0.04,-0.03l-0.01 0.04 0.05 -0.01z"/>
   <path class="fil11" d="M3.18 1.72c0.01,-0.06 0.02,-0.04 -0.04,-0.03l-0.01 0.03 0.05 0z"/>
   <path class="fil38" d="M9.37 1.86c0,-0.11 0.03,-0.04 -0.04,-0.1l0.04 0.1z"/>
   <path class="fil41" d="M9.1 1.07c0,-0.13 0.01,-0.06 -0.05,-0.09l0.05 0.09z"/>
   <path class="fil56" d="M3.94 0.58c-0.06,0 -0.05,-0.01 -0.04,0.04 0.05,0.01 0.04,0.02 0.04,-0.04z"/>
   <polygon class="fil16" points="7.61,0.28 7.66,0.28 7.65,0.26 7.65,0.2 "/>
   <polygon class="fil66" points="7.45,0.94 7.48,0.87 7.44,0.86 "/>
   <path class="fil67" d="M7.76 0.55l-0.01 -0.04c-0.05,0 -0.03,-0.01 -0.03,0.05l0.04 -0.01z"/>
   <path class="fil68" d="M6.89 1.42c0,-0.05 0.02,-0.04 -0.03,-0.04 0,0.05 -0.02,0.04 0.03,0.04z"/>
   <path class="fil68" d="M6.55 0.77c0,-0.06 0.01,-0.05 -0.03,-0.05 0,0.06 -0.02,0.05 0.03,0.05z"/>
   <path class="fil68" d="M1.39 0.77c0,-0.06 0.02,-0.05 -0.03,-0.05 0,0.06 -0.02,0.05 0.03,0.05z"/>
   <path class="fil68" d="M1.74 1.42c-0.01,-0.05 0.01,-0.04 -0.04,-0.04 0,0.05 -0.01,0.04 0.04,0.04z"/>
   <path class="fil51" d="M3.83 0.76l-0.04 0 0 0.03c0.06,0.02 0.04,0.03 0.04,-0.03z"/>
   <path class="fil68" d="M6.52 0.7c0,-0.06 0.01,-0.05 -0.04,-0.05 0,0.06 -0.01,0.05 0.04,0.05z"/>
   <path class="fil68" d="M1.36 0.7c0,-0.06 0.01,-0.05 -0.04,-0.05 0,0.06 -0.01,0.05 0.04,0.05z"/>
   <path class="fil68" d="M4 1.32c0,-0.06 0.02,-0.05 -0.03,-0.05 0,0.06 -0.01,0.05 0.03,0.05z"/>
   <path class="fil68" d="M8.17 0.87c0,-0.05 0.01,-0.04 -0.04,-0.04 0,0.05 -0.01,0.04 0.04,0.04z"/>
   <path class="fil68" d="M6.48 0.63c0,-0.06 0.02,-0.04 -0.03,-0.04 0,0.05 -0.02,0.04 0.03,0.04z"/>
   <path class="fil68" d="M1.32 0.63c0,-0.06 0.02,-0.04 -0.03,-0.04 0,0.05 -0.02,0.04 0.03,0.04z"/>
   <path class="fil68" d="M7.93 0.35c0,-0.05 0.01,-0.04 -0.04,-0.04 0,0.05 -0.01,0.04 0.04,0.04z"/>
   <path class="fil58" d="M8.96 0.18c-0.06,-0.01 -0.05,-0.02 -0.04,0.03 0.05,0.01 0.04,0.02 0.04,-0.03z"/>
   <path class="fil69" d="M4.01 0.8l-0.04 0 0 0.04c0.05,0 0.03,0.01 0.04,-0.04z"/>
   <path class="fil59" d="M8.48 1.07l-0.05 0 0.01 0.03c0.05,0.02 0.04,0.03 0.04,-0.03z"/>
   <path class="fil27" d="M8.96 0.7l0.05 0c-0.05,-0.1 0.01,-0.02 -0.05,-0.04l0 0.04z"/>
   <polygon class="fil70" points="4.68,1.7 4.68,1.66 4.6,1.65 "/>
   <polygon class="fil38" points="4.18,0.56 4.28,0.49 4.2,0.52 "/>
   <path class="fil56" d="M2.94 0.79c-0.05,0 -0.04,-0.01 -0.04,0.04 0.05,0 0.04,0.01 0.04,-0.04z"/>
   <path class="fil46" d="M0.22 1.45l-0.04 0 0 0.03c0.06,0.02 0.04,0.02 0.04,-0.03z"/>
   <path class="fil46" d="M5.38 1.45l-0.04 0 0 0.03c0.05,0.02 0.04,0.02 0.04,-0.03z"/>
   <path class="fil46" d="M8.79 0.49l-0.05 0 0.01 0.03c0.05,0.01 0.04,0.02 0.04,-0.03z"/>
   <polygon class="fil58" points="2.97,1.03 2.98,0.97 2.93,0.97 "/>
   <path class="fil46" d="M8.51 1l-0.04 0 0 0.03c0.05,0.02 0.04,0.03 0.04,-0.03z"/>
   <polygon class="fil27" points="9.02,0.92 9.07,0.92 9.03,0.87 "/>
   <path class="fil29" d="M3.01 1.07c0,-0.05 0.01,-0.04 -0.04,-0.04 0,0.06 -0.01,0.04 0.04,0.04z"/>
   <path class="fil50" d="M0.36 1.55l-0.04 0 0 0.04c0.05,0 0.04,0.02 0.04,-0.04z"/>
   <path class="fil50" d="M5.52 1.55l-0.04 0 0 0.04c0.05,0 0.04,0.02 0.04,-0.04z"/>
   <polygon class="fil48" points="0.56,0.69 0.6,0.68 0.6,0.67 0.59,0.62 "/>
   <polygon class="fil48" points="5.72,0.69 5.76,0.68 5.76,0.67 5.75,0.62 "/>
   <path class="fil71" d="M9.61 1.75l-0.03 0 0 0.05c0.05,-0.01 0.03,0 0.03,-0.05z"/>
   <polygon class="fil48" points="5.68,0.76 5.72,0.75 5.73,0.74 5.72,0.69 "/>
   <polygon class="fil48" points="0.52,0.76 0.56,0.75 0.57,0.74 0.56,0.69 "/>
   <polygon class="fil49" points="7.75,0.61 7.79,0.62 7.76,0.55 7.75,0.61 "/>
   <polygon class="fil13" points="8.64,0.69 8.68,0.69 8.68,0.67 8.69,0.62 "/>
   <polygon class="fil42" points="8.19,1.57 8.21,1.51 8.16,1.51 "/>
   <polygon class="fil18" points="9.26,1.6 9.32,1.6 9.27,1.54 9.26,1.6 "/>
   <polygon class="fil21" points="7.75,0.61 7.76,0.55 7.72,0.56 7.73,0.6 "/>
   <polygon class="fil63" points="6.28,0.83 6.33,0.82 6.27,0.77 "/>
   <polygon class="fil63" points="1.12,0.83 1.17,0.82 1.11,0.77 "/>
   <path class="fil16" d="M1.53 1.61l-0.04 -0.06c0,0.13 0,0.05 0.04,0.06z"/>
   <path class="fil24" d="M4.41 0.41l-0.06 0.04c0.11,0.01 0.05,0.01 0.06,-0.04z"/>
   <path class="fil27" d="M6.83 1.86l-0.04 -0.06c-0.01,0.11 -0.01,0.04 0.04,0.06z"/>
   <path class="fil29" d="M7.79 0.03c-0.09,-0.05 -0.03,-0.02 -0.07,0.02l0.07 -0.02z"/>
   <polygon class="fil45" points="8.24,1.56 8.21,1.51 8.19,1.57 "/>
   <path class="fil67" d="M8.92 0.25l-0.04 0 0 0.02c0.05,0.01 0.04,0.03 0.04,-0.02z"/>
   <path class="fil27" d="M1.67 1.86l-0.04 -0.06c-0.01,0.11 -0.01,0.04 0.04,0.06z"/>
   <path class="fil27" d="M6.79 1.8l-0.03 -0.07c-0.02,0.13 -0.01,0.05 0.03,0.07z"/>
   <path class="fil20" d="M7.96 1.01l-0.03 -0.07c-0.02,0.12 -0.01,0.05 0.03,0.07z"/>
   <path class="fil16" d="M3 0.68l-0.03 0.06c0.06,0 0.04,0.01 0.03,-0.06z"/>
   <path class="fil21" d="M8.81 0.39c0.05,-0.03 0.04,0.05 0.05,-0.07l-0.05 0.07z"/>
   <path class="fil67" d="M4.05 0.73l-0.01 -0.03c-0.05,-0.01 -0.04,-0.02 -0.04,0.03l0.05 0z"/>
   <polygon class="fil48" points="0.59,0.62 0.63,0.62 0.64,0.6 0.63,0.56 "/>
   <polygon class="fil48" points="5.75,0.62 5.79,0.62 5.8,0.6 5.79,0.56 "/>
   <polygon class="fil15" points="7.34,1.31 7.3,1.3 7.31,1.37 "/>
   <polygon class="fil26" points="4.35,0.45 4.27,0.46 4.28,0.49 "/>
   <path class="fil20" d="M7.93 0.94l-0.04 -0.07c-0.01,0.11 -0.01,0.05 0.04,0.07z"/>
   <path class="fil70" d="M9.58 1.8l0 -0.05c-0.05,0.01 -0.04,0 -0.03,0.05l0.03 0z"/>
   <polygon class="fil42" points="3.76,1.47 3.77,1.41 3.72,1.4 "/>
   <path class="fil56" d="M4.01 0.8l0 -0.03c-0.05,-0.01 -0.04,-0.02 -0.04,0.03l0.04 0z"/>
   <path class="fil27" d="M1.63 1.8c0,-0.12 0.01,-0.05 -0.04,-0.07l0.04 0.07z"/>
   <polygon class="fil49" points="0.97,0.54 1.02,0.55 0.98,0.49 "/>
   <polygon class="fil49" points="6.13,0.54 6.18,0.55 6.14,0.49 "/>
   <polygon class="fil11" points="3.77,1.45 3.82,1.47 3.77,1.41 3.76,1.47 "/>
   <polygon class="fil49" points="7.95,1.06 8,1.07 7.96,1.01 "/>
   <path class="fil24" d="M8.5 0.96c0.05,-0.02 0.04,0.04 0.04,-0.06l-0.04 0.06z"/>
   <polygon class="fil29" points="2.82,0.11 2.75,0.08 2.75,0.11 "/>
   <path class="fil28" d="M0.8 0.21l0.04 -0.06c-0.04,0.01 -0.03,-0.04 -0.04,0.06z"/>
   <path class="fil28" d="M5.96 0.21l0.04 -0.06c-0.04,0.01 -0.03,-0.04 -0.04,0.06z"/>
   <path class="fil26" d="M8.88 0.27c-0.06,-0.01 -0.04,-0.02 -0.02,0.05l0.02 -0.05z"/>
   <polygon class="fil47" points="2.75,1.01 2.69,0.99 2.69,1.03 "/>
   <polygon class="fil54" points="2.74,1.14 2.7,1.1 2.69,1.15 "/>
   <polygon class="fil66" points="2.98,0.97 2.97,0.93 2.93,0.97 "/>
   <path class="fil65" d="M7.37 1.74l-0.03 0.06c0.06,0 0.04,0.02 0.03,-0.06z"/>
   <polygon class="fil11" points="6.76,1.73 6.72,1.66 6.71,1.71 "/>
   <polygon class="fil28" points="5.86,0.41 5.89,0.41 5.89,0.35 "/>
   <polygon class="fil28" points="0.7,0.41 0.74,0.41 0.73,0.35 "/>
   <polygon class="fil11" points="6.27,0.77 6.25,0.71 6.23,0.77 "/>
   <polygon class="fil11" points="1.11,0.77 1.09,0.71 1.07,0.77 "/>
   <polygon class="fil42" points="1.12,0.83 1.11,0.77 1.07,0.77 "/>
   <polygon class="fil42" points="6.28,0.83 6.27,0.77 6.23,0.77 "/>
   <path class="fil65" d="M5.11 1.77c-0.06,-0.01 -0.05,-0.03 -0.05,0.03l0.05 -0.03z"/>
   <path class="fil44" d="M5.83 0.89l-0.04 0.05c0.06,0 0.04,0.01 0.04,-0.05z"/>
   <path class="fil44" d="M0.67 0.89l-0.04 0.05c0.06,0 0.04,0.01 0.04,-0.05z"/>
   <path class="fil56" d="M0.74 0.72c-0.06,0 -0.04,-0.01 -0.03,0.05l0.03 -0.05z"/>
   <path class="fil56" d="M5.9 0.72c-0.06,0 -0.04,-0.01 -0.03,0.05l0.03 -0.05z"/>
   <path class="fil56" d="M5.56 1.45c-0.06,0 -0.04,-0.02 -0.04,0.05l0.04 -0.05z"/>
   <path class="fil56" d="M0.4 1.45c-0.06,0 -0.04,-0.02 -0.04,0.05l0.04 -0.05z"/>
   <path class="fil72" d="M7.72 0.14c-0.06,0 -0.05,-0.01 -0.03,0.04l0.03 -0.04z"/>
   <polygon class="fil42" points="6.71,1.71 6.72,1.66 6.68,1.66 "/>
   <path class="fil53" d="M0.63 0.96l-0.03 0.05c0.05,0 0.03,0.01 0.03,-0.05z"/>
   <path class="fil53" d="M5.79 0.96l-0.03 0.05c0.05,0 0.03,0.01 0.03,-0.05z"/>
   <polygon class="fil51" points="0.56,0.75 0.52,0.76 0.53,0.81 "/>
   <polygon class="fil51" points="5.72,0.75 5.68,0.76 5.69,0.81 "/>
   <polygon class="fil73" points="5,0.12 5,0.07 4.97,0.07 "/>
   <polygon class="fil53" points="8.38,1.55 8.34,1.54 8.35,1.6 "/>
   <polygon class="fil14" points="0.6,0.68 0.56,0.69 0.57,0.74 "/>
   <polygon class="fil14" points="5.76,0.68 5.72,0.69 5.73,0.74 "/>
   <path class="fil68" d="M3.05 0.18c0,-0.06 0.01,-0.04 -0.06,-0.03l0.06 0.03z"/>
   <polygon class="fil42" points="8.51,1 8.5,0.96 8.47,1 "/>
   <path class="fil68" d="M4.67 0.08c-0.06,-0.01 -0.05,-0.02 -0.05,0.03l0.05 -0.03z"/>
   <path class="fil65" d="M9.4 1.18l-0.03 -0.05c0,0.06 -0.02,0.05 0.03,0.05z"/>
   <path class="fil65" d="M9.2 0.59l-0.03 -0.05c-0.01,0.07 -0.02,0.05 0.03,0.05z"/>
   <path class="fil65" d="M9.54 1.56l-0.03 -0.05c0,0.06 -0.02,0.05 0.03,0.05z"/>
   <polygon class="fil14" points="0.63,0.62 0.59,0.62 0.6,0.67 "/>
   <polygon class="fil14" points="5.79,0.62 5.75,0.62 5.76,0.67 "/>
   <polygon class="fil14" points="5.89,0.41 5.86,0.41 5.87,0.46 "/>
   <polygon class="fil14" points="0.74,0.41 0.7,0.41 0.71,0.46 "/>
   <path class="fil62" d="M9.61 1.74c0,-0.07 0.02,-0.05 -0.03,-0.05l0.03 0.05z"/>
   <path class="fil62" d="M3.24 0.36c0.01,-0.06 0.02,-0.05 -0.03,-0.05l0.03 0.05z"/>
   <polygon class="fil48" points="8.61,0.77 8.65,0.73 8.64,0.69 "/>
   <path class="fil68" d="M8.2 0.94c0,-0.06 0.02,-0.05 -0.03,-0.05l0.03 0.05z"/>
   <path class="fil65" d="M7.89 0.29l-0.03 -0.05c0,0.06 -0.02,0.05 0.03,0.05z"/>
   <path class="fil62" d="M7.96 0.43c0,-0.06 0.02,-0.05 -0.03,-0.05l0.03 0.05z"/>
   <path class="fil19" d="M8.13 0.8l-0.03 -0.05c0,0.06 -0.02,0.05 0.03,0.05z"/>
   <path class="fil68" d="M3.49 1.7c0,-0.05 0.02,-0.04 -0.04,-0.04l0.04 0.04z"/>
   <path class="fil70" d="M3.46 1.72l-0.04 0.04c0.05,0 0.04,0.02 0.04,-0.04z"/>
   <path class="fil58" d="M5.45 1.69c-0.05,0 -0.04,-0.02 -0.03,0.04l0.03 -0.04z"/>
   <path class="fil58" d="M0.29 1.69c-0.05,0 -0.03,-0.02 -0.03,0.04l0.03 -0.04z"/>
   <path class="fil61" d="M0.26 1.76c-0.05,0 -0.04,-0.02 -0.03,0.04l0.03 -0.04z"/>
   <path class="fil61" d="M5.42 1.76c-0.05,0 -0.04,-0.02 -0.03,0.04l0.03 -0.04z"/>
   <path class="fil62" d="M0.95 0.01c-0.05,0 -0.04,-0.02 -0.04,0.04l0.04 -0.04z"/>
   <path class="fil62" d="M6.11 0.01c-0.06,0 -0.04,-0.02 -0.04,0.04l0.04 -0.04z"/>
   <path class="fil62" d="M1.87 1.66c0,-0.05 0.02,-0.04 -0.04,-0.04l0.04 0.04z"/>
   <path class="fil62" d="M7.03 1.66c0,-0.05 0.02,-0.04 -0.04,-0.04l0.04 0.04z"/>
   <path class="fil62" d="M4.49 0.15c-0.05,-0.01 -0.04,-0.02 -0.04,0.03l0.04 -0.03z"/>
   <path class="fil62" d="M4.42 0.18c-0.05,0 -0.04,-0.02 -0.04,0.03l0.04 -0.03z"/>
   <path class="fil62" d="M6.82 1.29c0.01,-0.06 0.02,-0.05 -0.03,-0.05l0.03 0.05z"/>
   <path class="fil62" d="M1.66 1.29c0.01,-0.06 0.02,-0.05 -0.03,-0.05l0.03 0.05z"/>
   <path class="fil62" d="M8.23 1.01c0.01,-0.05 0.02,-0.04 -0.03,-0.04l0.03 0.04z"/>
   <path class="fil62" d="M6.38 0.43c0,-0.06 0.01,-0.05 -0.04,-0.05l0.04 0.05z"/>
   <path class="fil62" d="M1.22 0.43c0,-0.06 0.01,-0.05 -0.04,-0.05l0.04 0.05z"/>
   <path class="fil62" d="M6.41 0.49c0,-0.05 0.02,-0.04 -0.03,-0.04l0.03 0.04z"/>
   <path class="fil62" d="M7.99 0.49c0,-0.05 0.02,-0.04 -0.03,-0.04l0.03 0.04z"/>
   <path class="fil62" d="M1.25 0.49c0,-0.05 0.02,-0.04 -0.03,-0.04l0.03 0.04z"/>
   <polygon class="fil68" points="7.62,0.97 7.58,0.97 7.58,1.02 "/>
   <path class="fil19" d="M8.1 0.73l-0.03 -0.04c-0.01,0.05 -0.02,0.04 0.03,0.04z"/>
   <path class="fil19" d="M1.46 0.9l-0.03 -0.04c-0.01,0.05 -0.02,0.04 0.03,0.04z"/>
   <path class="fil19" d="M1.77 1.48l-0.03 -0.04c-0.01,0.06 -0.02,0.04 0.03,0.04z"/>
   <path class="fil19" d="M7.86 0.21l-0.04 -0.04c0,0.05 -0.01,0.04 0.04,0.04z"/>
   <path class="fil19" d="M6.62 0.9l-0.03 -0.04c-0.01,0.05 -0.02,0.04 0.03,0.04z"/>
   <path class="fil19" d="M6.66 0.97l-0.04 -0.04c0,0.05 -0.02,0.04 0.04,0.04z"/>
   <path class="fil19" d="M1.5 0.97l-0.04 -0.04c0,0.05 -0.01,0.04 0.04,0.04z"/>
   <path class="fil19" d="M6.21 0.11l-0.04 -0.04c0,0.05 -0.01,0.04 0.04,0.04z"/>
   <path class="fil19" d="M1.05 0.11l-0.04 -0.04c0,0.05 -0.01,0.04 0.04,0.04z"/>
   <path class="fil19" d="M6.59 0.83l-0.04 -0.04c0,0.05 -0.01,0.04 0.04,0.04z"/>
   <path class="fil19" d="M6.93 1.48l-0.04 -0.04c0,0.06 -0.01,0.04 0.04,0.04z"/>
   <path class="fil19" d="M1.43 0.83l-0.04 -0.04c0,0.05 -0.01,0.04 0.04,0.04z"/>
   <path class="fil29" d="M1.83 1.6c0.01,-0.06 0.02,-0.05 -0.03,-0.05l0.03 0.05z"/>
   <path class="fil29" d="M6.99 1.6c0.01,-0.06 0.02,-0.05 -0.03,-0.05l0.03 0.05z"/>
   <path class="fil61" d="M5.76 1.07l0 -0.05c-0.05,0.05 -0.05,0.01 0,0.05z"/>
   <path class="fil61" d="M0.6 1.07l0 -0.05c-0.05,0.05 -0.05,0.01 0,0.05z"/>
   <polygon class="fil67" points="8.68,0.69 8.64,0.69 8.65,0.73 "/>
   <path class="fil53" d="M8.89 0.58l-0.04 0.04c0.05,0 0.04,0.01 0.04,-0.04z"/>
   <path class="fil68" d="M3.11 0.22c0,-0.06 0.01,-0.04 -0.04,-0.04l0.04 0.04z"/>
   <path class="fil70" d="M1.88 1.73c-0.06,-0.01 -0.04,-0.02 -0.03,0.03l0.03 -0.03z"/>
   <path class="fil70" d="M7.03 1.73c-0.05,-0.01 -0.04,-0.02 -0.03,0.03l0.03 -0.03z"/>
   <polygon class="fil14" points="0.67,0.56 0.63,0.56 0.64,0.6 "/>
   <polygon class="fil14" points="5.83,0.56 5.79,0.56 5.8,0.6 "/>
   <path class="fil71" d="M4.25 1.55c0,-0.05 0.01,-0.03 -0.05,-0.03l0.05 0.03z"/>
   <path class="fil71" d="M6.79 1.22c0,-0.06 0.01,-0.05 -0.03,-0.05l0.03 0.05z"/>
   <path class="fil71" d="M6.34 0.36c0,-0.06 0.02,-0.05 -0.03,-0.05l0.03 0.05z"/>
   <path class="fil65" d="M6.17 0.04c0,-0.05 0.01,-0.04 -0.04,-0.04l0.04 0.04z"/>
   <path class="fil71" d="M1.18 0.36c0.01,-0.06 0.02,-0.05 -0.03,-0.05l0.03 0.05z"/>
   <path class="fil71" d="M1.63 1.22c0,-0.06 0.02,-0.05 -0.03,-0.05l0.03 0.05z"/>
   <path class="fil65" d="M1.01 0.04c0,-0.05 0.02,-0.04 -0.03,-0.04l0.03 0.04z"/>
   <path class="fil68" d="M1.29 0.56c0,-0.05 0.01,-0.04 -0.04,-0.04l0.04 0.04z"/>
   <path class="fil68" d="M6.86 1.35c0,-0.05 0.01,-0.04 -0.04,-0.04l0.04 0.04z"/>
   <path class="fil68" d="M1.7 1.35c0,-0.05 0.01,-0.04 -0.04,-0.04l0.04 0.04z"/>
   <path class="fil68" d="M6.45 0.56c0,-0.05 0.01,-0.04 -0.04,-0.04l0.04 0.04z"/>
   <path class="fil74" d="M4.01 0.49l-0.04 0.03c0.05,0 0.04,0.02 0.04,-0.03z"/>
   <path class="fil73" d="M6.69 1.04l-0.03 -0.04c-0.01,0.05 -0.02,0.04 0.03,0.04z"/>
   <path class="fil73" d="M1.53 1.04l-0.03 -0.04c-0.01,0.05 -0.02,0.04 0.03,0.04z"/>
   <path class="fil64" d="M4.08 0.41l-0.04 0.04c0.05,0 0.04,0.02 0.04,-0.04z"/>
   <path class="fil29" d="M4.35 0.21c-0.05,0 -0.04,-0.01 -0.04,0.04l0.04 -0.04z"/>
   <path class="fil17" d="M1.08 0.18l-0.03 -0.04c0,0.05 -0.02,0.04 0.03,0.04z"/>
   <path class="fil17" d="M6.24 0.18l-0.03 -0.04c0,0.05 -0.02,0.04 0.03,0.04z"/>
   <path class="fil19" d="M4.21 0.31c-0.05,0 -0.04,-0.01 -0.04,0.04l0.04 -0.04z"/>
   <path class="fil29" d="M5.11 1.72l0 0.05c0.05,-0.03 0.05,-0.01 0,-0.05z"/>
   <path class="fil19" d="M3.45 1.66c0,-0.05 0.02,-0.04 -0.03,-0.04l0.03 0.04z"/>
   <path class="fil62" d="M3.11 1.21l-0.03 -0.04c0,0.05 -0.02,0.04 0.03,0.04z"/>
   <path class="fil17" d="M6.96 1.55l-0.03 -0.04c0,0.05 -0.02,0.04 0.03,0.04z"/>
   <path class="fil17" d="M1.8 1.55l-0.03 -0.04c0,0.05 -0.01,0.04 0.03,0.04z"/>
   <polygon class="fil61" points="7.44,1.55 7.44,1.51 7.41,1.55 "/>
   <path class="fil73" d="M3.32 1.48c0,-0.05 0.01,-0.03 -0.04,-0.03l0.04 0.03z"/>
   <path class="fil71" d="M3.25 1.38l-0.04 -0.03c0,0.05 -0.01,0.03 0.04,0.03z"/>
   <polygon class="fil11" points="6.58,1.4 6.56,1.33 6.56,1.39 "/>
   <polygon class="fil68" points="7.51,1.31 7.48,1.31 7.48,1.35 "/>
   <path class="fil19" d="M4.18 1.52c0,-0.05 0.01,-0.04 -0.04,-0.04l0.04 0.04z"/>
   <polygon class="fil73" points="4.8,0.04 4.76,0.04 4.76,0.07 "/>
   <polygon class="fil73" points="3.25,0.62 3.25,0.58 3.21,0.62 "/>
   <polygon class="fil11" points="1.42,1.4 1.4,1.33 1.4,1.39 "/>
   <polygon class="fil71" points="3.97,1.21 3.94,1.17 3.94,1.21 "/>
   <polygon class="fil29" points="5,0.14 4.97,0.14 4.97,0.18 "/>
   <polygon class="fil19" points="9.23,0.7 9.23,0.66 9.2,0.66 "/>
   <polygon class="fil19" points="3.97,1.25 3.97,1.21 3.94,1.21 "/>
   <polygon class="fil29" points="7.82,0.11 7.79,0.07 7.79,0.11 "/>
   <polygon class="fil62" points="4.76,0.07 4.76,0.04 4.72,0.07 "/>
   <polygon class="fil62" points="9.09,0.28 9.06,0.24 9.06,0.28 "/>
   <polygon class="fil62" points="9.3,0.87 9.27,0.83 9.27,0.87 "/>
   <polygon class="fil62" points="9.47,1.35 9.44,1.31 9.44,1.35 "/>
   <polygon class="fil17" points="7.51,1.31 7.51,1.27 7.48,1.31 "/>
   <path class="fil68" d="M7.03 1.69l0 0.04c0.05,-0.03 0.04,-0.01 0,-0.04z"/>
   <path class="fil68" d="M1.87 1.69l0.01 0.04c0.04,-0.03 0.03,-0.01 -0.01,-0.04z"/>
   <polygon class="fil71" points="7.44,1.55 7.41,1.55 7.41,1.59 "/>
   <polygon class="fil73" points="7.65,0.87 7.65,0.83 7.62,0.87 "/>
   <polygon class="fil75" points="7.65,0.87 7.62,0.87 7.62,0.9 "/>
   <polygon class="fil17" points="0.36,1.55 0.36,1.52 0.32,1.55 "/>
   <polygon class="fil17" points="0.7,0.83 0.71,0.8 0.67,0.83 "/>
   <polygon class="fil17" points="5.52,1.55 5.52,1.52 5.48,1.55 "/>
   <polygon class="fil17" points="5.86,0.83 5.87,0.8 5.83,0.83 "/>
   <polygon class="fil70" points="8.99,0.14 8.96,0.14 8.96,0.18 "/>
   <polygon class="fil29" points="8.99,0.14 8.99,0.11 8.96,0.14 "/>
   <polygon class="fil29" points="8.3,1.14 8.27,1.11 8.27,1.14 "/>
   <polygon class="fil17" points="8.31,1.17 8.3,1.14 8.27,1.14 "/>
   <polygon class="fil73" points="4.59,0.11 4.55,0.11 4.55,0.14 "/>
   <polygon class="fil17" points="4.28,1.59 4.28,1.55 4.25,1.55 "/>
   <polygon class="fil73" points="8.07,0.66 8.06,0.62 8.03,0.62 "/>
   <polygon class="fil71" points="4.31,1.59 4.28,1.55 4.28,1.59 "/>
   <polygon class="fil73" points="9.06,0.21 9.06,0.18 9.03,0.18 "/>
   <polygon class="fil62" points="9.06,0.18 9.02,0.14 9.03,0.18 "/>
   <polygon class="fil73" points="7.82,0.14 7.82,0.11 7.79,0.11 "/>
   <polygon class="fil29" points="4.55,0.14 4.55,0.11 4.52,0.15 "/>
   <polygon class="fil17" points="1.12,0.25 1.12,0.21 1.08,0.21 "/>
   <polygon class="fil17" points="6.27,0.25 6.27,0.21 6.24,0.21 "/>
   <polygon class="fil29" points="8.03,0.56 7.99,0.52 7.99,0.56 "/>
   <polygon class="fil29" points="1.15,0.28 1.12,0.25 1.12,0.28 "/>
   <polygon class="fil17" points="9.1,0.31 9.09,0.28 9.06,0.28 "/>
   <polygon class="fil17" points="6.31,0.31 6.31,0.28 6.27,0.28 "/>
   <polygon class="fil17" points="1.15,0.31 1.15,0.28 1.12,0.28 "/>
   <polygon class="fil17" points="8.03,0.59 8.03,0.56 7.99,0.56 "/>
   <polygon class="fil17" points="1.56,1.11 1.56,1.07 1.53,1.07 "/>
   <polygon class="fil17" points="9.3,0.9 9.3,0.87 9.27,0.87 "/>
   <polygon class="fil29" points="1.6,1.14 1.56,1.11 1.56,1.14 "/>
   <polygon class="fil29" points="6.76,1.14 6.72,1.11 6.72,1.14 "/>
   <polygon class="fil29" points="6.31,0.28 6.27,0.25 6.27,0.28 "/>
   <polygon class="fil19" points="9.44,1.28 9.44,1.24 9.4,1.24 "/>
   <polygon class="fil17" points="1.6,1.17 1.6,1.14 1.56,1.14 "/>
   <polygon class="fil17" points="6.76,1.17 6.76,1.14 6.72,1.14 "/>
   <polygon class="fil71" points="9.58,1.62 9.54,1.59 9.54,1.62 "/>
   <polygon class="fil29" points="8.06,0.62 8.03,0.59 8.03,0.62 "/>
   <polygon class="fil17" points="7.62,0.97 7.62,0.93 7.58,0.97 "/>
   <polygon class="fil62" points="9.27,0.76 9.23,0.73 9.23,0.76 "/>
   <polygon class="fil17" points="6.72,1.11 6.72,1.07 6.69,1.07 "/>
   <polygon class="fil73" points="9.27,0.8 9.27,0.76 9.23,0.76 "/>
   <polygon class="fil19" points="9.58,1.66 9.58,1.62 9.54,1.62 "/>
   <polygon class="fil17" points="8.27,1.11 8.27,1.07 8.24,1.07 "/>
   <polygon class="fil71" points="9.44,1.24 9.4,1.21 9.4,1.24 "/>
   <polygon class="fil75" points="3.25,0.62 3.21,0.62 3.21,0.66 "/>
   <polygon class="fil71" points="9.23,0.66 9.2,0.62 9.2,0.66 "/>
   <polygon class="fil29" points="1.56,1.07 1.53,1.04 1.53,1.07 "/>
   <polygon class="fil17" points="9.48,1.38 9.47,1.35 9.44,1.35 "/>
   <polygon class="fil29" points="6.72,1.07 6.69,1.04 6.69,1.07 "/>
   <polygon class="fil71" points="8.27,1.07 8.23,1.04 8.24,1.07 "/>
   <polygon class="fil29" points="6.27,0.21 6.24,0.18 6.24,0.21 "/>
   <polygon class="fil29" points="1.12,0.21 1.08,0.18 1.08,0.21 "/>
   <path class="fil62" d="M9.02 0.11c-0.02,-0.05 0,-0.05 -0.03,0l0.03 0z"/>
   <polygon class="fil51" points="8.71,0.61 8.69,0.62 8.68,0.67 "/>
   <path class="fil41" d="M8.37 1.24l-0.03 0c0.03,0.06 0.01,0.06 0.03,0z"/>
   <polygon class="fil27" points="4.18,0.56 4.2,0.52 4.18,0.56 "/>
   <polygon class="fil65" points="7.37,1.69 7.41,1.63 "/>
   <polygon class="fil21" points="8.54,0.9 8.58,0.83 "/>
   <polygon class="fil68" points="9.33,0.98 9.3,0.92 "/>
   <polygon class="fil41" points="3.08,1.62 3,1.52 "/>
   <polygon class="fil28" points="5.93,0.28 5.96,0.21 "/>
   <polygon class="fil73" points="4.31,0.25 4.28,0.28 "/>
   <polygon class="fil28" points="0.77,0.28 0.8,0.21 "/>
   <polygon class="fil65" points="9.37,1.08 9.34,1.03 "/>
   <polygon class="fil64" points="2.77,0.9 2.73,0.93 "/>
   <polygon class="fil65" points="2.94,0.14 2.87,0.11 "/>
   <polygon class="fil19" points="7.68,0.66 7.73,0.6 "/>
   <polygon class="fil68" points="3.35,1.52 3.32,1.48 "/>
   <polygon class="fil29" points="3.39,1.56 3.35,1.52 "/>
   <polygon class="fil73" points="4.04,1.38 4,1.34 "/>
   <polygon class="fil65" points="3.97,0.85 3.94,0.92 "/>
   <polygon class="fil65" points="7.58,1.06 7.55,1.12 "/>
   <polygon class="fil76" points="2.84,0.86 2.8,0.9 "/>
   <polygon class="fil62" points="4.14,1.48 4.11,1.45 "/>
   <polygon class="fil73" points="3.18,1.31 3.14,1.27 "/>
   <polygon class="fil65" points="3.08,1.17 3.04,1.14 "/>
   <polygon class="fil68" points="4.52,1.66 4.44,1.62 "/>
   <polygon class="fil65" points="4.94,0.01 4.86,0.04 "/>
   <polygon class="fil65" points="9.16,0.5 9.13,0.44 "/>
   <polygon class="fil68" points="9.51,1.46 9.48,1.41 "/>
   <polygon class="fil68" points="9.13,0.4 9.1,0.34 "/>
   <polygon class="fil65" points="7.48,1.4 7.45,1.47 "/>
   <polygon class="fil68" points="3.21,1.35 3.18,1.31 "/>
   <polygon class="fil28" points="5.89,0.35 5.93,0.28 "/>
   <polygon class="fil61" points="7.68,0.71 7.65,0.78 "/>
   <polygon class="fil77" points="4.04,0.45 4.01,0.49 "/>
   <polygon class="fil62" points="4.11,1.45 4.07,1.42 "/>
   <polygon class="fil37" points="8.58,0.83 8.61,0.77 "/>
   <polygon class="fil62" points="3.21,0.69 3.18,0.73 "/>
   <polygon class="fil34" points="7.51,1.24 7.55,1.18 "/>
   <polygon class="fil28" points="0.73,0.35 0.77,0.28 "/>
   <polygon class="fil10" points="4.25,0.28 4.21,0.31 "/>
   <polygon class="fil68" points="4.07,1.42 4.04,1.38 "/>
   <polygon class="fil68" points="4.39,1.62 4.34,1.59 "/>
  </g>
 </g>
</svg>
