<?xml version="1.0" encoding="UTF-8"?>
<!DOCTYPE svg PUBLIC "-//W3C//DTD SVG 1.1//EN" "http://www.w3.org/Graphics/SVG/1.1/DTD/svg11.dtd">
<!-- Creator: CorelDRAW 2019 (64-Bit Не для перепродажи) -->
<svg xmlns="http://www.w3.org/2000/svg" xml:space="preserve" width="41px" height="42px" version="1.1" style="shape-rendering:geometricPrecision; text-rendering:geometricPrecision; image-rendering:optimizeQuality; fill-rule:evenodd; clip-rule:evenodd"
viewBox="0 0 10370 10550"
 xmlns:xlink="http://www.w3.org/1999/xlink"
 xmlns:xodm="http://www.corel.com/coreldraw/odm/2003">
 <defs>
  <style type="text/css">
   <![CDATA[
    .str0 {stroke:#C64F15;stroke-width:30;stroke-miterlimit:10}
    .fil0 {fill:#E05022;fill-rule:nonzero}
    .fil1 {fill:#C64F15;fill-rule:nonzero}
   ]]>
  </style>
 </defs>
 <g id="Layer_x0020_1_x0020_copy_x0020_8">
  <metadata id="CorelCorpID_0Corel-Layer"/>
  <polygon class="fil0" points="6030,10530 7900,9130 4630,9130 "/>
  <polygon class="fil0" points="0,10350 3310,10350 4560,9100 3090,7620 6030,7620 7960,5700 7960,7620 9910,7620 7960,9100 7960,10350 10360,10350 10370,0 "/>
  <polygon class="fil1 str0" points="6030,10530 7900,9130 4630,9130 "/>
  <polygon class="fil1" points="0,10350 3310,10350 4560,9100 3090,7620 6030,7620 7960,5700 7960,7620 9910,7620 7960,9100 7960,10350 10360,10350 10370,0 "/>
 </g>
</svg>
