<?xml version="1.0" encoding="UTF-8"?>
<!DOCTYPE svg PUBLIC "-//W3C//DTD SVG 1.1//EN" "http://www.w3.org/Graphics/SVG/1.1/DTD/svg11.dtd">
<!-- Creator: CorelDRAW 2019 (64-Bit Не для перепродажи) -->
<svg xmlns="http://www.w3.org/2000/svg" xml:space="preserve" width="272px" height="272px" version="1.1" style="shape-rendering:geometricPrecision; text-rendering:geometricPrecision; image-rendering:optimizeQuality; fill-rule:evenodd; clip-rule:evenodd"
viewBox="0 0 66 66"
 xmlns:xlink="http://www.w3.org/1999/xlink"
 xmlns:xodm="http://www.corel.com/coreldraw/odm/2003">
 <defs>
  <style type="text/css">
   <![CDATA[
    .str0 {stroke:#FEFEFE;stroke-width:1;stroke-miterlimit:22.9256}
    .fil5 {fill:#FEFEFE}
    .fil1 {fill:url(#id8)}
    .fil3 {fill:url(#id9)}
    .fil2 {fill:url(#id10)}
    .fil4 {fill:url(#id11)}
    .fil0 {fill:url(#id12);fill-opacity:0.749020}
   ]]>
  </style>
   <mask id="id0">
  <linearGradient id="id1" gradientUnits="userSpaceOnUse" x1="63" y1="44" x2="45" y2="38">
   <stop offset="0" style="stop-opacity:1; stop-color:white"/>
   <stop offset="1" style="stop-opacity:0; stop-color:white"/>
  </linearGradient>
    <rect style="fill:url(#id1)" x="47" y="36" width="16" height="4"/>
   </mask>
   <mask id="id2">
  <linearGradient id="id3" gradientUnits="userSpaceOnUse" x1="4" y1="36" x2="57" y2="38">
   <stop offset="0" style="stop-opacity:1; stop-color:white"/>
   <stop offset="1" style="stop-opacity:0; stop-color:white"/>
  </linearGradient>
    <rect style="fill:url(#id3)" x="19" y="36" width="28" height="5"/>
   </mask>
   <mask id="id4">
  <linearGradient id="id5" gradientUnits="userSpaceOnUse" x1="20" y1="54" x2="25" y2="20">
   <stop offset="0" style="stop-opacity:1; stop-color:white"/>
   <stop offset="1" style="stop-opacity:0; stop-color:white"/>
  </linearGradient>
    <rect style="fill:url(#id5)" x="19" y="20" width="6" height="19"/>
   </mask>
   <mask id="id6">
  <linearGradient id="id7" gradientUnits="userSpaceOnUse" x1="28" y1="22" x2="91" y2="75">
   <stop offset="0" style="stop-opacity:1; stop-color:white"/>
   <stop offset="1" style="stop-opacity:0; stop-color:white"/>
  </linearGradient>
    <rect style="fill:url(#id7)" x="25" y="19" width="23" height="17"/>
   </mask>
  <linearGradient id="id8" gradientUnits="userSpaceOnUse" x1="34" y1="51" x2="34" y2="34">
   <stop offset="0" style="stop-opacity:1; stop-color:#30D9FF"/>
   <stop offset="0.501961" style="stop-opacity:1; stop-color:#66E3FF"/>
   <stop offset="1" style="stop-opacity:1; stop-color:#28B6DA"/>
  </linearGradient>
  <linearGradient id="id9" gradientUnits="userSpaceOnUse" x1="23" y1="43" x2="55" y2="2">
   <stop offset="0" style="stop-opacity:1; stop-color:#20617D"/>
   <stop offset="0.501961" style="stop-opacity:1; stop-color:#3495BF"/>
   <stop offset="1" style="stop-opacity:1; stop-color:#246D8C"/>
  </linearGradient>
  <linearGradient id="id10" gradientUnits="userSpaceOnUse" x1="13" y1="43" x2="18" y2="6">
   <stop offset="0" style="stop-opacity:1; stop-color:#3398BD"/>
   <stop offset="0.501961" style="stop-opacity:1; stop-color:#36B8E8"/>
   <stop offset="1" style="stop-opacity:1; stop-color:#27A2CE"/>
  </linearGradient>
  <radialGradient id="id11" gradientUnits="userSpaceOnUse" gradientTransform="matrix(1.51536 -0 -0 1.51533 -16 -14)" cx="31" cy="28" r="99" fx="31" fy="28">
   <stop offset="0" style="stop-opacity:1; stop-color:#FEFEFE"/>
   <stop offset="0.6" style="stop-opacity:1; stop-color:#C2D5DE"/>
   <stop offset="1" style="stop-opacity:1; stop-color:#86ADBE"/>
  </radialGradient>
  <radialGradient id="id12" gradientUnits="userSpaceOnUse" gradientTransform="matrix(2.05183 -0 -0 2.05183 -21 -17)" cx="20" cy="16" r="33" fx="20" fy="16">
   <stop offset="0" style="stop-opacity:1; stop-color:#FEFEFE"/>
   <stop offset="0.85098" style="stop-opacity:1; stop-color:#8FABB7"/>
   <stop offset="0.929412" style="stop-opacity:1; stop-color:#6E8691"/>
   <stop offset="1" style="stop-opacity:1; stop-color:#5A686E"/>
  </radialGradient>
 </defs>
 <g id="Layer_x0020_1">
  <metadata id="CorelCorpID_0Corel-Layer"/>
  <path class="fil0" d="M33 0c18,0 33,15 33,33 0,18 -15,33 -33,33 -18,0 -33,-15 -33,-33 0,-18 15,-33 33,-33z"/>
  <path class="fil1" d="M17 48c-5,-1 -8,-3 -11,-4 9,-3 14,-5 14,-5 3,2 8,3 12,3 7,0 12,-2 15,-4 10,2 15,3 15,3 -4,3 -8,6 -13,7 -6,1 -11,2 -16,2 -6,0 -11,0 -16,-1z"/>
  <path class="fil2" d="M9 23c-2,7 -3,13 -3,20 9,-3 14,-5 14,-5 0,-7 2,-13 5,-18 -5,-9 -8,-13 -8,-13 -3,5 -6,10 -8,17z"/>
  <path class="fil3" d="M17 7c5,9 8,13 8,13 5,0 10,1 14,4 5,3 8,8 8,12 10,2 15,3 15,3 -2,-8 -6,-15 -12,-21 -5,-5 -11,-8 -17,-10 -5,-2 -11,-2 -16,-1z"/>
  <path class="fil4" d="M37 23c-4,-2 -8,-3 -12,-3 -3,5 -5,11 -5,18 4,2 8,3 13,3 6,0 11,-2 14,-4 -1,-5 -4,-10 -10,-14z"/>
  <path class="fil5 str0" style="mask:url(#id0)" d="M47 36c0,0 0,0 0,0 10,2 15,3 15,3 -10,-2 -15,-4 -15,-4 0,0 0,0 0,0z"/>
  <path class="fil5" style="mask:url(#id2)" d="M20 38c0,0 0,0 0,0 5,3 11,3 17,2 4,-1 8,-2 10,-4 0,0 0,0 0,0 -3,2 -7,4 -13,4 -6,0 -11,0 -15,-2 0,0 0,0 0,0z"/>
  <path class="fil5" style="mask:url(#id4)" d="M20 38c0,-7 2,-13 5,-18 -4,5 -6,11 -5,18 0,0 0,0 0,0 0,0 0,0 0,0z"/>
  <path class="fil5" style="mask:url(#id6)" d="M38 23c-4,-3 -8,-4 -13,-3 4,0 8,1 12,3 6,4 9,8 10,14 0,0 0,0 0,0 0,0 0,0 0,0 -1,-6 -5,-10 -9,-13z"/>
 </g>
</svg>
