<svg xmlns="http://www.w3.org/2000/svg" width="150" height="41.838" viewBox="0 0 150 41.838"><defs><style>.a{fill:#c64f15;}.b{fill:#6d6b6b;}</style></defs><g transform="translate(-59.054 -113.002)"><g transform="translate(59.054 113.002)"><path class="a" d="M102.84,194.189l7.442-5.555H97.312Z" transform="translate(-78.959 -152.351)"/><path class="a" d="M59.054,154.135H72.17l4.955-4.985-5.808-5.85H82.935l7.662-7.662V143.3h7.715L90.6,149.15v4.985h9.536L100.138,113Z" transform="translate(-59.054 -113.002)"/></g><path class="b" d="M177.17,164.252A6.959,6.959,0,0,0,172.88,163l-4.722-.06-4.568,4.583,9.291.059v6.278h5.727v-6.278A4.716,4.716,0,0,0,177.17,164.252Zm-7.634,4.959-7.857.062-3.223,3.263c-1.313,1.32-2.505,3.734-1.847,5.21,1.187,2.633,3.975,2.351,5.951,2.351h16.048v-4.52H163.246Z" transform="translate(-50.658 -25.979)"/><path class="b" d="M333.166,163.041v4.592h12.8v6.278h5.7v-6.278a4.715,4.715,0,0,0-1.438-3.326,6.968,6.968,0,0,0-4.29-1.261Zm12.8,17.111h5.7v-4.52h-5.7Zm-12.811,0h5.7V169.318h-5.7Z" transform="translate(-142.605 -26.034)"/><path class="b" d="M291.4,167.644h15.649a4.32,4.32,0,0,0-1.628-3.292,6.84,6.84,0,0,0-4.008-1.29H291.4a6.637,6.637,0,0,0-4.193,1.507,4.409,4.409,0,0,0-1.5,3.075v6.278h5.7Zm9.953,7.941H285.706a4.37,4.37,0,0,0,1.627,3.325,6.86,6.86,0,0,0,4.036,1.254h9.986a6.382,6.382,0,0,0,4.189-1.5,4.247,4.247,0,0,0,1.507-3.076v-6.246h-5.7Z" transform="translate(-117.92 -26.045)"/><path class="b" d="M248.417,178.661a6.088,6.088,0,0,0,4.1,1.5h11.641v-4.52H247.1A4.069,4.069,0,0,0,248.417,178.661Zm4.383-11.017h9.072l4.537-4.582H252.8a6.794,6.794,0,0,0-4.129,1.164,3.949,3.949,0,0,0-1.568,3.418v6.278h5.7Z" transform="translate(-97.837 -26.045)"/><path class="b" d="M222.632,170.4c-1.127-1.035-2.658-1.035-4.192-1.035h-7.161V167.68h9.072l4.537-4.582H211.279a6.8,6.8,0,0,0-4.129,1.164,3.947,3.947,0,0,0-1.568,3.418v6.274H218.44l0,1.71-9.476,0-3.4,4.529h12.876a6.368,6.368,0,0,0,4.165-1.485,4.191,4.191,0,0,0,1.5-3.042l0-1.714A4.014,4.014,0,0,0,222.632,170.4Z" transform="translate(-76.224 -26.064)"/></g></svg>