<?xml version="1.0" encoding="UTF-8"?>
<!DOCTYPE svg PUBLIC "-//W3C//DTD SVG 1.1//EN" "http://www.w3.org/Graphics/SVG/1.1/DTD/svg11.dtd">
<!-- Creator: CorelDRAW 2019 (64-Bit Не для перепродажи) -->
<svg xmlns="http://www.w3.org/2000/svg" xml:space="preserve" width="144px" height="40px" version="1.1" style="shape-rendering:geometricPrecision; text-rendering:geometricPrecision; image-rendering:optimizeQuality; fill-rule:evenodd; clip-rule:evenodd"
viewBox="0 0 126200 35160"
 xmlns:xlink="http://www.w3.org/1999/xlink"
 xmlns:xodm="http://www.corel.com/coreldraw/odm/2003">
 <defs>
  <style type="text/css">
   <![CDATA[
    .str0 {stroke:#C5C6C6;stroke-width:100;stroke-miterlimit:22.9256}
    .str1 {stroke:#C64F15;stroke-width:100;stroke-miterlimit:10}
    .fil1 {fill:#FEFEFE;fill-rule:nonzero}
    .fil0 {fill:#E05022;fill-rule:nonzero}
    .fil2 {fill:#C64F15;fill-rule:nonzero}
   ]]>
  </style>
 </defs>
 <g id="Layer_x0020_1_x0020_copy_x0020_8">
  <metadata id="CorelCorpID_0Corel-Layer"/>
  <polygon class="fil0" points="20080,35090 26340,30430 15440,30430 "/>
  <polygon class="fil0" points="0,34500 11030,34500 15200,30320 10310,25410 20080,25410 26530,18990 26530,25410 33020,25410 26530,30320 26530,34500 34550,34500 34550,0 "/>
  <path class="fil1 str0" d="M50310 25360l-6600 50 -2720 2730c-1100,1110 -2100,3140 -1550,4370 1000,2210 3340,1980 5010,1980l13490 0 0 -3790 -12920 0 5290 -5340zm6420 -4160c-1210,-950 -2730,-1060 -3600,-1060l-3980 -50 -3840 3850 7820 50 0 5260 4810 0 0 -5260c0,20 0,-1850 -1210,-2790z"/>
  <path class="fil1 str0" d="M110590 34490l4790 0 0 -9090 -4790 0 0 9090zm10770 0l4790 0 0 -3790 -4790 0 0 3790zm-10760 -14360l0 3860 10760 0 0 5260 4790 0 0 -5260c0,20 0,-1850 -1210,-2790 -1210,-950 -2730,-1060 -3600,-1060l-10740 -10z"/>
  <path class="fil1 str0" d="M104610 30650l-13160 0c0,1020 470,2020 1360,2790 690,570 2080,1050 3400,1050l8400 0c1340,0 2710,-500 3520,-1260 850,-770 1270,-1720 1270,-2580l0 -5240 -4790 0 0 5240zm-8370 -6660l13160 0c0,-1030 -480,-2000 -1370,-2770 -660,-580 -2110,-1080 -3370,-1080l-8420 0c-1320,0 -2710,530 -3530,1270 -820,760 -1260,1730 -1260,2580l0 5260 4790 0 0 -5260z"/>
  <path class="fil1 str0" d="M80660 23990l7630 0 3820 -3850 -11450 0c-950,0 -2160,80 -3470,980 -1080,760 -1320,1920 -1320,2870l0 5260 4790 0 0 -5260zm-3680 9240c870,840 2240,1260 3440,1260l9790 0 0 -3790 -14340 0c0,710 210,1680 1110,2530z"/>
  <path class="fil1 str0" d="M73470 26280c-950,-870 -2240,-870 -3530,-870l-6020 0 0 -1410 7630 0 3810 -3840 -11440 0c-950,0 -2160,80 -3470,970 -1090,760 -1320,1920 -1320,2870l0 5260 10810 0 0 1440 -7970 0 -2860 3790 10830 0c1330,0 2690,-490 3500,-1240 840,-760 1260,-1700 1260,-2550l10 -1440c0,-980 -30,-1900 -1240,-2980z"/>
  <polygon class="fil2 str1" points="20080,35090 26340,30430 15440,30430 "/>
  <polygon class="fil2" points="0,34500 11030,34500 15200,30320 10310,25410 20080,25410 26530,18990 26530,25410 33020,25410 26530,30320 26530,34500 34550,34500 34550,0 "/>
  <path class="fil1 str0" d="M50310 25360l-6600 50 -2720 2730c-1100,1110 -2100,3140 -1550,4370 1000,2210 3340,1980 5010,1980l13490 0 0 -3790 -12920 0 5290 -5340zm6420 -4160c-1210,-950 -2730,-1060 -3600,-1060l-3980 -50 -3840 3850 7820 50 0 5260 4810 0 0 -5260c0,20 0,-1850 -1210,-2790z"/>
  <path class="fil1 str0" d="M110590 34490l4790 0 0 -9090 -4790 0 0 9090zm10770 0l4790 0 0 -3790 -4790 0 0 3790zm-10760 -14360l0 3860 10760 0 0 5260 4790 0 0 -5260c0,20 0,-1850 -1210,-2790 -1210,-950 -2730,-1060 -3600,-1060l-10740 -10z"/>
  <path class="fil1 str0" d="M104610 30650l-13160 0c0,1020 470,2020 1360,2790 690,570 2080,1050 3400,1050l8400 0c1340,0 2710,-500 3520,-1260 850,-770 1270,-1720 1270,-2580l0 -5240 -4790 0 0 5240zm-8370 -6660l13160 0c0,-1030 -480,-2000 -1370,-2770 -660,-580 -2110,-1080 -3370,-1080l-8420 0c-1320,0 -2710,530 -3530,1270 -820,760 -1260,1730 -1260,2580l0 5260 4790 0 0 -5260z"/>
  <path class="fil1 str0" d="M80660 23990l7630 0 3820 -3850 -11450 0c-950,0 -2160,80 -3470,980 -1080,760 -1320,1920 -1320,2870l0 5260 4790 0 0 -5260zm-3680 9240c870,840 2240,1260 3440,1260l9790 0 0 -3790 -14340 0c0,710 210,1680 1110,2530z"/>
  <path class="fil1 str0" d="M73470 26280c-950,-870 -2240,-870 -3530,-870l-6020 0 0 -1410 7630 0 3810 -3840 -11440 0c-950,0 -2160,80 -3470,970 -1090,760 -1320,1920 -1320,2870l0 5260 10810 0 0 1440 -7970 0 -2860 3790 10830 0c1330,0 2690,-490 3500,-1240 840,-760 1260,-1700 1260,-2550l10 -1440c0,-980 -30,-1900 -1240,-2980z"/>
 </g>
</svg>
