<?xml version="1.0" encoding="UTF-8"?>
<!DOCTYPE svg PUBLIC "-//W3C//DTD SVG 1.1//EN" "http://www.w3.org/Graphics/SVG/1.1/DTD/svg11.dtd">
<!-- Creator: CorelDRAW 2019 (64-Bit Не для перепродажи) -->
<svg xmlns="http://www.w3.org/2000/svg" xml:space="preserve" width="100px" height="114px" version="1.1" style="shape-rendering:geometricPrecision; text-rendering:geometricPrecision; image-rendering:optimizeQuality; fill-rule:evenodd; clip-rule:evenodd"
viewBox="0 0 20009 22862"
 xmlns:xlink="http://www.w3.org/1999/xlink"
 xmlns:xodm="http://www.corel.com/coreldraw/odm/2003">
 <defs>
  <style type="text/css">
   <![CDATA[
    .fil0 {fill:#1297D0;fill-rule:nonzero}
   ]]>
  </style>
 </defs>
 <g id="Layer_x0020_1">
  <metadata id="CorelCorpID_0Corel-Layer"/>
  <path class="fil0" d="M15355 6032c-315,22 -588,-215 -610,-529 -22,-315 215,-588 529,-610 619,-46 1123,-138 1532,-305 374,-152 674,-373 922,-688 9,-11 17,-21 27,-31 238,-312 437,-721 613,-1246 139,-416 263,-907 380,-1480l-8813 0c-16,0 -31,-1 -47,-2l-349 2c-1647,8 -3008,14 -4477,438l1 0c-771,223 -1632,568 -2362,1077 -546,380 -1014,852 -1303,1429 -322,644 -316,1250 -105,1782l4 10c10,20 19,41 26,63 283,648 860,1208 1533,1617l1 1 1 -1c622,380 1329,651 2060,826 684,163 1392,243 2074,250l0 -1738c-298,-12 -607,-62 -900,-154 -478,-149 -924,-411 -1236,-799 -80,-99 -147,-203 -203,-310 -239,-458 -230,-907 -65,-1317 146,-362 413,-679 727,-931 165,-132 348,-250 534,-347 775,-405 1698,-586 2618,-581 978,5 1963,219 2767,594 511,239 954,545 1303,898 403,408 683,882 803,1392 111,470 84,964 -108,1459l-1922 6370c128,-35 228,-65 331,-96 303,-93 630,-192 1353,-342 750,-157 1611,-609 2274,-1491 329,-437 610,-981 807,-1647l-37 17c-519,234 -1131,362 -1858,362 -316,0 -572,-256 -572,-572 0,-316 256,-572 572,-572 561,0 1017,-91 1389,-259 358,-161 647,-397 881,-690 329,-412 563,-943 740,-1552 69,-236 129,-484 184,-743 -46,21 -92,41 -139,60 -527,215 -1142,331 -1880,386zm-13129 2476l4614 13125 11 4c130,45 254,80 289,85 51,-5 248,-41 426,-90l2069 -6858c3,-41 11,-81 23,-121 20,-64 43,-125 69,-184l1734 -5752c-372,221 -771,402 -1183,547 -875,307 -1811,455 -2660,497 -18,2 -36,3 -54,3l-1 0c-53,2 -106,4 -158,6 -889,27 -1835,-59 -2751,-278 -846,-202 -1665,-517 -2390,-959l1 -1 -39 -24zm3715 13882c-18,-20 -34,-42 -49,-65l-4 -5 0 -1c-20,-30 -36,-62 -49,-96 -6,-14 -11,-29 -15,-43l-5570 -15845 -19 -46c-327,-823 -341,-1746 140,-2711 384,-766 984,-1377 1674,-1858 840,-585 1821,-980 2697,-1233l0 1 2 -1c1622,-468 3054,-475 4787,-483l347 -2c18,-1 35,-2 53,-2l9502 0 0 0c33,0 66,3 99,9 310,54 518,350 464,661 -162,913 -338,1675 -552,2314 -201,600 -437,1090 -727,1492 -110,767 -242,1500 -437,2170 -197,677 -459,1285 -825,1792 -165,1508 -648,2647 -1280,3487 -853,1135 -1973,1719 -2953,1924 -692,144 -983,232 -1255,315 -175,53 -342,104 -550,156 -96,24 -256,116 -411,267 -83,81 -158,176 -212,282l-2202 7303c-7,28 -17,55 -28,83 -11,25 -23,50 -38,73l-6 10c-28,45 -63,86 -102,121 -125,116 -302,198 -493,254 -231,68 -541,123 -682,142 -13,2 -27,3 -40,5 -11,1 -20,2 -26,2l0 -1 -16 1c-104,1 -435,-63 -686,-148 -10,-3 -21,-6 -31,-10 -197,-69 -380,-170 -501,-306l-6 -8zm6204 -15940l41 -137c10,-33 22,-63 37,-93 53,-211 52,-420 5,-619 -71,-301 -247,-591 -504,-852 -255,-258 -586,-485 -973,-665 -658,-307 -1473,-483 -2289,-487 -746,-4 -1484,136 -2086,451 -118,62 -236,138 -346,227 -174,139 -317,301 -383,466 -47,115 -50,241 15,366 20,37 47,78 83,123 158,197 408,337 686,424 339,105 706,129 1010,82 40,-8 81,-13 123,-13 316,0 571,256 571,572l0 2283c585,-65 1193,-188 1768,-391 653,-230 1261,-562 1733,-1028 227,-224 388,-448 490,-666l19 -43z"/>
 </g>
</svg>
