<svg xmlns="http://www.w3.org/2000/svg" width="170" height="42.066" viewBox="0 0 170 42.066"><defs><style>.a{fill:#1297d0;}</style></defs><g transform="translate(0.182 1)"><path class="a" d="M468.3,6a6.946,6.946,0,0,1,7.25,7.25,7,7,0,0,1-7.25,7.25h-8.2V31.278a1.081,1.081,0,0,1-1.049,1.145A1.029,1.029,0,0,1,458,31.278V9.339A3.2,3.2,0,0,1,461.339,6Zm-.286,12.591h0a5.047,5.047,0,0,0,5.246-5.246A5.071,5.071,0,0,0,468.016,8h-6.3A1.6,1.6,0,0,0,460.1,9.625v8.967Z" transform="translate(-414.476 -6.332)"/><path class="a" d="M673.434,1.812a1.726,1.726,0,0,1-1.717,1.812A1.675,1.675,0,0,1,670,1.812a1.719,1.719,0,1,1,3.434,0Zm-2.862,6.1h0c0-.668.572-.954,1.145-.954a.927.927,0,0,1,1.049.954V25.755a1.1,1.1,0,0,1-1.145,1.145,1.029,1.029,0,0,1-1.049-1.145Z" transform="translate(-606.254 -0.905)"/><path class="a" d="M742,1.049A1.079,1.079,0,0,1,743.145,0a1,1,0,0,1,1.049,1.049v24.9a1,1,0,0,1-1.049,1.049A1.1,1.1,0,0,1,742,25.85V1.049Z" transform="translate(-671.386 -0.905)"/><path class="a" d="M818.17,84.016c0,5.056-2.671,9.92-8.585,9.92S801,89.071,801,84.016,803.671,74,809.585,74,818.17,78.96,818.17,84.016Zm-14.976,0h0c0,4.1,2,8.013,6.391,8.013s6.391-3.911,6.391-8.013-2-8.108-6.391-8.108S803.194,79.819,803.194,84.016Z" transform="translate(-724.758 -67.846)"/><path class="a" d="M1000.671,18.049A1.023,1.023,0,0,1,1001.816,17a.952.952,0,0,1,1.049,1.049v4.865h2.862a.954.954,0,1,1,0,1.908h-2.862V38.749a1.448,1.448,0,0,0,1.526,1.526h1.24a.97.97,0,1,1,0,1.908h-1.622a3.252,3.252,0,0,1-3.339-3.339V24.726h-1.908a.978.978,0,0,1,0-1.908h1.908V18.049Z" transform="translate(-902.967 -16.283)"/><path class="a" d="M1111.874,132c.286,0,.382.477.382.954s-.1.954-.382.954h-10.493c-.191,0-.382-.477-.382-.954s.1-.954.382-.954Z" transform="translate(-996.142 -120.313)"/><path class="a" d="M1264,1.145A1.081,1.081,0,0,1,1265.049,0a1.029,1.029,0,0,1,1.049,1.145v24.8a1.081,1.081,0,0,1-1.049,1.145A1.029,1.029,0,0,1,1264,25.946Z" transform="translate(-1143.593 -0.905)"/><path class="a" d="M1353.176,6.726v.286a1.16,1.16,0,0,1-1.145,1.145c-.477,0-.954-.286-1.049-1.145-.763-4.2-4.006-6.009-7.822-6.009-5.151,0-9.062,4.006-9.062,11.542,0,7.917,3.911,11.542,9.062,11.542,3.816,0,6.868-1.622,8.013-6.677a1.057,1.057,0,0,1,1.145-.954,1.1,1.1,0,0,1,1.145,1.145v.382c-.954,4.2-3.815,7.917-10.207,7.917-6.582,0-11.256-4.96-11.256-13.45,0-8.2,4.674-13.45,11.256-13.45,6.391,0,9.348,3.625,10.111,7.631Z" transform="translate(-1205.107 0)"/><path class="a" d="M1612.121,6a1.014,1.014,0,0,1,1.145.954,1.014,1.014,0,0,1-1.145.954h-12.4a1.6,1.6,0,0,0-1.621,1.622v7.917h12.782a1.014,1.014,0,0,1,1.145.954,1.081,1.081,0,0,1-1.145,1.049H1598.1v8.871a1.53,1.53,0,0,0,1.621,1.526H1612.6a.97.97,0,1,1,0,1.908h-13.259A3.2,3.2,0,0,1,1596,28.416V9.339A3.2,3.2,0,0,1,1599.339,6Z" transform="translate(-1443.924 -6.332)"/><path class="a" d="M456.954,351.477a.451.451,0,0,1-.477.477.511.511,0,0,1-.477-.477.451.451,0,0,1,.477-.477A.511.511,0,0,1,456.954,351.477Zm-.763,1.717h0a.3.3,0,0,1,.286-.286.253.253,0,0,1,.286.286v4.865a.3.3,0,0,1-.286.286.253.253,0,0,1-.286-.286Z" transform="translate(-412.667 -318.423)"/><path class="a" d="M483,371.382a.3.3,0,0,1,.286-.286.253.253,0,0,1,.286.286v.572a2.05,2.05,0,0,1,1.812-.954,1.56,1.56,0,0,1,1.717,1.526v3.625a.3.3,0,0,1-.286.286.253.253,0,0,1-.286-.286v-3.625a.981.981,0,0,0-1.049-.954,2.1,2.1,0,0,0-1.812,1.24v3.434a.426.426,0,0,1-.286.382.253.253,0,0,1-.286-.286v-4.769Z" transform="translate(-437.092 -336.515)"/><path class="a" d="M544.006,351.286a.3.3,0,0,1,.286-.286.253.253,0,0,1,.286.286v6.677a.3.3,0,0,1-.286.286.253.253,0,0,1-.286-.286v-.382a2.136,2.136,0,0,1-1.717.858c-1.526,0-2.289-1.335-2.289-2.766s.668-2.766,2.289-2.766a2.04,2.04,0,0,1,1.717.858Zm-3.339,4.388h0c0,1.145.477,2.194,1.717,2.194,1.145,0,1.717-1.049,1.717-2.194s-.477-2.194-1.717-2.194C541.24,353.48,540.668,354.529,540.668,355.674Z" transform="translate(-488.654 -318.423)"/><path class="a" d="M609.911,375.151a.3.3,0,0,1-.286.286.253.253,0,0,1-.286-.286v-.382a2.418,2.418,0,0,1-1.717.763A1.53,1.53,0,0,1,606,374.006v-3.72a.3.3,0,0,1,.286-.286.253.253,0,0,1,.286.286v3.72a.981.981,0,0,0,1.049.954,2.134,2.134,0,0,0,1.717-1.049v-3.625a.3.3,0,0,1,.286-.286.253.253,0,0,1,.286.286Z" transform="translate(-548.359 -335.611)"/><path class="a" d="M660.1,374.911a.286.286,0,0,1,.572,0c0,.668.382,1.049,1.431,1.049.859,0,1.335-.382,1.335-.954,0-.477-.191-.763-1.621-1.145-1.049-.286-1.717-.668-1.717-1.526s.763-1.335,1.812-1.335c1.431,0,1.908.668,1.908,1.335h0c0,.191-.191.286-.382.286a.253.253,0,0,1-.286-.286c0-.572-.382-.858-1.335-.858-.668,0-1.145.286-1.145.763s.286.858,1.431,1.049c1.431.286,1.812.763,1.812,1.622,0,.763-.572,1.431-1.908,1.431-1.24,0-2-.572-2-1.526h0Z" transform="translate(-597.208 -336.515)"/><path class="a" d="M712.763,355.286a.3.3,0,0,1,.286-.286.253.253,0,0,1,.286.286v1.335h.763a.253.253,0,0,1,.286.286.3.3,0,0,1-.286.286h-.763v3.816a.35.35,0,0,0,.382.382h.382a.253.253,0,0,1,.286.286.3.3,0,0,1-.286.286h-.477a.956.956,0,0,1-.954-.954V357.1h-.477c-.1,0-.191-.1-.191-.286,0-.1.1-.286.191-.286h.477v-1.335Z" transform="translate(-644.248 -322.042)"/><path class="a" d="M748.1,370.382a.286.286,0,1,1,.572,0v.382A1.606,1.606,0,0,1,750,370c.1,0,.191.191.191.286a.253.253,0,0,1-.286.286,1.394,1.394,0,0,0-1.335.859v3.72a.3.3,0,0,1-.286.286.253.253,0,0,1-.286-.286v-4.865Z" transform="translate(-676.814 -335.611)"/><path class="a" d="M779.954,351.477a.451.451,0,0,1-.477.477.511.511,0,0,1-.477-.477.45.45,0,0,1,.477-.477A.511.511,0,0,1,779.954,351.477Zm-.763,1.717h0a.3.3,0,0,1,.286-.286.253.253,0,0,1,.286.286v4.865a.3.3,0,0,1-.286.286.253.253,0,0,1-.286-.286Z" transform="translate(-704.857 -318.423)"/><path class="a" d="M806.1,376.388a.349.349,0,0,0,.382.382.253.253,0,0,1,.286.286.3.3,0,0,1-.286.286c-.763,0-.954-.191-.954-.572a2.488,2.488,0,0,1-1.812.668c-1.145,0-1.717-.572-1.717-1.526,0-.668.191-1.431,1.908-1.622,1.431-.191,1.622-.286,1.622-.858s-.382-.954-1.336-.954-1.24.382-1.335,1.049a.3.3,0,0,1-.286.286.253.253,0,0,1-.286-.286v-.1A1.721,1.721,0,0,1,804.194,372c1.049,0,1.908.382,1.908,1.431v2.957Zm-.572-2h0c-.191.191-.572.286-1.622.477-.954.1-1.336.477-1.336,1.145s.382.954,1.145.954a1.969,1.969,0,0,0,1.813-.858v-1.717Z" transform="translate(-725.663 -337.42)"/><path class="a" d="M862,350.286a.286.286,0,1,1,.572,0v6.868a.3.3,0,0,1-.286.286.253.253,0,0,1-.286-.286Z" transform="translate(-779.939 -317.519)"/><path class="a" d="M923.293,353.533a2.714,2.714,0,0,0,.381-1.145c0-.191.191-.191.286-.191a.253.253,0,0,1,.286.286,4.37,4.37,0,0,1-.572,1.526l1.049,1.145c0,.1.1.1.1.191a.3.3,0,0,1-.286.286.351.351,0,0,1-.286-.1l-.858-1.049a2.843,2.843,0,0,1-2.29,1.145,1.884,1.884,0,0,1-2.1-1.908c0-.858.477-1.526,1.812-2.385a2.621,2.621,0,0,1-.954-1.812A1.56,1.56,0,0,1,921.576,348a1.458,1.458,0,0,1,1.622,1.431c0,.954-.763,1.526-1.526,2l1.622,2Zm-2.194-1.717h0c-.954.572-1.526,1.145-1.526,1.812a1.38,1.38,0,0,0,1.526,1.431,2.437,2.437,0,0,0,1.813-1.049Zm1.431-2.289h0c0-.668-.477-.859-.954-.859-.858,0-1.145.382-1.145.954a2.791,2.791,0,0,0,.858,1.526,1.838,1.838,0,0,0,1.24-1.526Z" transform="translate(-831.502 -315.709)"/><path class="a" d="M1027.388,373.816a1.827,1.827,0,0,1-2.1,1.717c-1.622,0-2.29-1.24-2.29-2.766,0-1.431.668-2.766,2.29-2.766a1.849,1.849,0,0,1,2,1.526c0,.191-.191.286-.381.286a.253.253,0,0,1-.286-.286c-.1-.572-.572-.954-1.431-.954-1.145,0-1.717,1.049-1.717,2.194,0,1.24.477,2.194,1.717,2.194.954,0,1.431-.382,1.526-1.24a.3.3,0,0,1,.286-.286c.191,0,.382.1.382.286h0Z" transform="translate(-925.582 -335.611)"/><path class="a" d="M1080.954,351.477a.451.451,0,0,1-.477.477.511.511,0,0,1-.477-.477.451.451,0,0,1,.477-.477A.511.511,0,0,1,1080.954,351.477Zm-.763,1.717h0a.3.3,0,0,1,.286-.286.253.253,0,0,1,.286.286v4.865a.3.3,0,0,1-.286.286.253.253,0,0,1-.286-.286Z" transform="translate(-977.145 -318.423)"/><path class="a" d="M1100.576,375.246c-.1.191-.191.286-.381.286s-.286-.1-.382-.286L1098,370.382v-.1c0-.191.191-.286.382-.286.1,0,.191.1.286.191l1.526,4.388,1.526-4.388c0-.1.191-.191.286-.191.191,0,.382.1.382.286v.1Z" transform="translate(-993.428 -335.611)"/><path class="a" d="M1153.954,351.477a.451.451,0,0,1-.477.477.511.511,0,0,1-.477-.477.451.451,0,0,1,.477-.477A.511.511,0,0,1,1153.954,351.477Zm-.763,1.717h0a.3.3,0,0,1,.286-.286.253.253,0,0,1,.286.286v4.865a.3.3,0,0,1-.286.286.253.253,0,0,1-.286-.286Z" transform="translate(-1043.181 -318.423)"/><path class="a" d="M1178,350.286a.286.286,0,0,1,.573,0v6.868a.3.3,0,0,1-.286.286.253.253,0,0,1-.286-.286Z" transform="translate(-1065.797 -317.519)"/><path class="a" d="M1231.668,372.957c0,.954.477,2,1.526,2a1.582,1.582,0,0,0,1.526-1.049c.1-.191.191-.191.286-.191a.253.253,0,0,1,.286.286,2.136,2.136,0,0,1-2.1,1.526c-1.431,0-2.194-1.335-2.194-2.766s.763-2.766,2.194-2.766c1.049,0,2.194.763,2.194,2.957Zm3.052-.572h0a1.549,1.549,0,1,0-3.052,0Z" transform="translate(-1113.741 -335.611)"/><path class="a" d="M1293,371.382a.3.3,0,0,1,.286-.286.253.253,0,0,1,.286.286v.572a2.05,2.05,0,0,1,1.812-.954,1.56,1.56,0,0,1,1.717,1.526v3.625a.3.3,0,0,1-.286.286.253.253,0,0,1-.286-.286v-3.625a.981.981,0,0,0-1.049-.954,2.1,2.1,0,0,0-1.812,1.24v3.434a.426.426,0,0,1-.286.382.253.253,0,0,1-.286-.286v-4.769Z" transform="translate(-1169.827 -336.515)"/><path class="a" d="M1354.006,370.382a.3.3,0,0,1,.286-.286.253.253,0,0,1,.286.286v4.674c0,.859-.763,1.622-2.289,1.622-1.812,0-2.1-.954-2.1-1.145a.3.3,0,0,1,.286-.286.205.205,0,0,1,.191.191c.191.477.668.763,1.622.763,1.145,0,1.717-.572,1.717-1.145v-.572a2.136,2.136,0,0,1-1.717.858c-1.526,0-2.289-1.24-2.289-2.671a2.414,2.414,0,0,1,2.289-2.671,2.04,2.04,0,0,1,1.717.859Zm-3.339,2.289h0c0,1.145.477,2.1,1.717,2.1a1.871,1.871,0,0,0,1.717-2.1c0-1.049-.477-2.1-1.717-2.1A1.924,1.924,0,0,0,1350.668,372.671Z" transform="translate(-1221.39 -335.611)"/><path class="a" d="M1414.954,351.477a.451.451,0,0,1-.477.477.511.511,0,0,1-.477-.477.451.451,0,0,1,.477-.477A.511.511,0,0,1,1414.954,351.477Zm-.763,1.717h0a.3.3,0,0,1,.286-.286.253.253,0,0,1,.286.286v4.865a.3.3,0,0,1-.286.286.253.253,0,0,1-.286-.286Z" transform="translate(-1279.285 -318.423)"/><path class="a" d="M1440,371.382a.3.3,0,0,1,.286-.286.253.253,0,0,1,.286.286v.572a2.051,2.051,0,0,1,1.813-.954,1.56,1.56,0,0,1,1.717,1.526v3.625a.3.3,0,0,1-.286.286.253.253,0,0,1-.286-.286v-3.625a.981.981,0,0,0-1.049-.954,2.1,2.1,0,0,0-1.812,1.24v3.434a.425.425,0,0,1-.286.382.253.253,0,0,1-.286-.286v-4.769Z" transform="translate(-1302.805 -336.515)"/><path class="a" d="M1498.668,372.957c0,.954.477,2,1.526,2a1.581,1.581,0,0,0,1.526-1.049c.1-.191.191-.191.286-.191a.253.253,0,0,1,.286.286,2.137,2.137,0,0,1-2.1,1.526c-1.431,0-2.194-1.335-2.194-2.766s.763-2.766,2.194-2.766c1.05,0,2.194.763,2.194,2.957Zm3.052-.572h0a1.549,1.549,0,1,0-3.052,0Z" transform="translate(-1355.272 -335.611)"/><path class="a" d="M1556.668,372.957c0,.954.477,2,1.526,2a1.582,1.582,0,0,0,1.526-1.049c.1-.191.191-.191.286-.191a.253.253,0,0,1,.286.286,2.136,2.136,0,0,1-2.1,1.526c-1.431,0-2.194-1.335-2.194-2.766s.763-2.766,2.194-2.766c1.049,0,2.194.763,2.194,2.957Zm3.052-.572h0a1.549,1.549,0,1,0-3.052,0Z" transform="translate(-1407.74 -335.611)"/><path class="a" d="M1616.1,370.382a.286.286,0,1,1,.572,0v.382A1.606,1.606,0,0,1,1618,370c.1,0,.191.191.191.286a.253.253,0,0,1-.286.286,1.394,1.394,0,0,0-1.336.859v3.72a.3.3,0,0,1-.286.286.253.253,0,0,1-.286-.286v-4.865Z" transform="translate(-1462.016 -335.611)"/><path class="a" d="M1647.954,351.477a.451.451,0,0,1-.477.477.511.511,0,0,1-.477-.477.451.451,0,0,1,.477-.477A.511.511,0,0,1,1647.954,351.477Zm-.763,1.717h0a.3.3,0,0,1,.286-.286.253.253,0,0,1,.286.286v4.865a.3.3,0,0,1-.286.286.253.253,0,0,1-.286-.286Z" transform="translate(-1490.059 -318.423)"/><path class="a" d="M1674,371.382a.3.3,0,0,1,.286-.286.253.253,0,0,1,.286.286v.572a2.05,2.05,0,0,1,1.812-.954,1.56,1.56,0,0,1,1.717,1.526v3.625a.3.3,0,0,1-.286.286.253.253,0,0,1-.286-.286v-3.625a.981.981,0,0,0-1.049-.954,2.1,2.1,0,0,0-1.812,1.24v3.434a.426.426,0,0,1-.286.382.253.253,0,0,1-.286-.286v-4.769Z" transform="translate(-1514.484 -336.515)"/><path class="a" d="M1735.006,370.382a.3.3,0,0,1,.286-.286.253.253,0,0,1,.286.286v4.674c0,.859-.763,1.622-2.289,1.622-1.812,0-2.1-.954-2.1-1.145a.3.3,0,0,1,.286-.286.205.205,0,0,1,.191.191c.191.477.668.763,1.622.763,1.145,0,1.717-.572,1.717-1.145v-.572a2.135,2.135,0,0,1-1.717.858c-1.526,0-2.29-1.24-2.29-2.671a2.414,2.414,0,0,1,2.29-2.671,2.039,2.039,0,0,1,1.717.859Zm-3.339,2.289h0c0,1.145.477,2.1,1.717,2.1a1.871,1.871,0,0,0,1.717-2.1c0-1.049-.477-2.1-1.717-2.1A1.924,1.924,0,0,0,1731.668,372.671Z" transform="translate(-1566.047 -335.611)"/><path class="a" d="M26.354,16.493a1,1,0,1,1-.1-2,10.092,10.092,0,0,0,2.671-.572,4.988,4.988,0,0,0,1.622-1.145v-.1A7.844,7.844,0,0,0,31.6,10.483a14.333,14.333,0,0,0,.668-2.575H16.338a25.652,25.652,0,0,0-7.726.763h0a14.2,14.2,0,0,0-4.1,1.812,7.144,7.144,0,0,0-2.289,2.48,3.491,3.491,0,0,0-.191,3.052h0v.1A6.221,6.221,0,0,0,4.7,18.877h0A11.447,11.447,0,0,0,8.23,20.308a22.135,22.135,0,0,0,3.625.477V17.828a4.32,4.32,0,0,1-1.526-.286,4.01,4.01,0,0,1-2.1-1.335c-.1-.191-.286-.382-.382-.572a2.748,2.748,0,0,1-.1-2.289,4.112,4.112,0,0,1,1.24-1.622,3.175,3.175,0,0,1,.954-.572A10.318,10.318,0,0,1,14.43,10.1,10.953,10.953,0,0,1,19.2,11.151a9.586,9.586,0,0,1,2.289,1.526,6.141,6.141,0,0,1,1.431,2.385,3.721,3.721,0,0,1-.191,2.48L19.39,28.512c.191-.1.382-.1.572-.191.572-.191,1.049-.286,2.289-.572a6.58,6.58,0,0,0,3.911-2.575,10.027,10.027,0,0,0,1.431-2.862h-.1a7.807,7.807,0,0,1-3.243.668.954.954,0,0,1,0-1.908,5.89,5.89,0,0,0,2.385-.477,3.828,3.828,0,0,0,1.526-1.24,6.935,6.935,0,0,0,1.24-2.671c.1-.382.191-.858.286-1.24-.1,0-.191.1-.286.1a10.849,10.849,0,0,1-3.243.668Zm-22.7,4.292,8.013,22.7h0c.191.1.477.1.477.191.1,0,.382-.1.763-.191L16.433,31.66v-.191c0-.1.1-.191.1-.286l2.957-9.92a19.065,19.065,0,0,1-2,.954,16.1,16.1,0,0,1-4.579.858h-.382A20.749,20.749,0,0,1,7.753,22.6a15.338,15.338,0,0,1-4.1-1.622h-.1Zm6.391,23.943-.1-.1h0c0-.1-.1-.1-.1-.191v-.1L.217,16.97v-.1A5.417,5.417,0,0,1,.5,12.2,9.389,9.389,0,0,1,3.365,8.957a13.611,13.611,0,0,1,4.674-2.1h0A29.564,29.564,0,0,1,16.338,6H33.6a.923.923,0,0,1,.763,1.145,27.672,27.672,0,0,1-.954,4.006,10.811,10.811,0,0,1-1.24,2.575,21.369,21.369,0,0,1-.763,3.72A10.016,10.016,0,0,1,29.978,20.5a12.4,12.4,0,0,1-2.194,6.009,8.6,8.6,0,0,1-5.056,3.339,16.014,16.014,0,0,0-2.194.572c-.286.1-.572.191-.954.286a.987.987,0,0,0-.668.477,2.081,2.081,0,0,0-.382.477L14.716,44.251c0,.1,0,.1-.1.191a.093.093,0,0,1-.1.1h0c-.1.1-.1.191-.191.191a1.844,1.844,0,0,1-.858.477,9.9,9.9,0,0,0-1.145.286h-.1a3.3,3.3,0,0,1-1.145-.286H11a1.389,1.389,0,0,1-.858-.572h0ZM20.726,17.16l.1-.191c0-.1,0-.1.1-.191a1.951,1.951,0,0,0,0-1.049,2.531,2.531,0,0,0-.858-1.431,5.413,5.413,0,0,0-1.717-1.145A9.019,9.019,0,0,0,14.43,12.3a7.5,7.5,0,0,0-3.625.763,2,2,0,0,0-.572.382c-.286.286-.572.477-.668.763a.807.807,0,0,0,0,.668c0,.1.1.1.1.191a2.432,2.432,0,0,0,1.145.763,3.56,3.56,0,0,0,1.717.1h.191a.956.956,0,0,1,.954.954v3.911a10.906,10.906,0,0,0,3.052-.668,6.728,6.728,0,0,0,2.957-1.812,4.484,4.484,0,0,0,.858-1.145v-.1Z" transform="translate(0 -6.332)"/></g></svg>