<?xml version="1.0" encoding="UTF-8"?>
<!DOCTYPE svg PUBLIC "-//W3C//DTD SVG 1.1//EN" "http://www.w3.org/Graphics/SVG/1.1/DTD/svg11.dtd">
<!-- Creator: CorelDRAW 2019 (64-Bit Не для перепродажи) -->
<svg xmlns="http://www.w3.org/2000/svg" xml:space="preserve" width="100px" height="109px" version="1.1" style="shape-rendering:geometricPrecision; text-rendering:geometricPrecision; image-rendering:optimizeQuality; fill-rule:evenodd; clip-rule:evenodd"
viewBox="0 0 8400 9120"
 xmlns:xlink="http://www.w3.org/1999/xlink"
 xmlns:xodm="http://www.corel.com/coreldraw/odm/2003">
 <defs>
  <style type="text/css">
   <![CDATA[
    .str0 {stroke:white;stroke-width:230;stroke-linecap:round;stroke-linejoin:round;stroke-miterlimit:4}
    .fil2 {fill:none;fill-rule:nonzero}
    .fil0 {fill:#697C8C;fill-rule:nonzero}
    .fil1 {fill:#F96060;fill-rule:nonzero}
   ]]>
  </style>
 </defs>
 <g id="Слой_x0020_1">
  <metadata id="CorelCorpID_0Corel-Layer"/>
  <path class="fil0" d="M110 2300c0,-190 140,-410 300,-490l3490 -1750c160,-80 430,-80 600,0l3480 1750c170,80 300,300 300,490l0 4320c0,190 -130,410 -300,490l-3480 1750c-170,80 -440,80 -600,0l-3490 -1750c-160,-80 -300,-300 -300,-490l0 -4320z"/>
  <polygon class="fil1" points="1790,2800 4200,1600 6600,2800 6600,5740 4200,6950 1790,5740 "/>
  <path class="fil2 str0" d="M1790 5410c0,180 140,400 310,490"/>
  <line class="fil2 str0" x1="2100" y1="5900" x2="3900" y2= "6800" />
  <path class="fil2 str0" d="M3900 6800c160,80 430,80 600,0"/>
  <line class="fil2 str0" x1="4500" y1="6800" x2="6300" y2= "5900" />
  <path class="fil2 str0" d="M6300 5900c170,-90 300,-310 300,-490"/>
  <line class="fil2 str0" x1="6600" y1="5410" x2="6600" y2= "3140" />
  <path class="fil2 str0" d="M6600 3140c0,-180 -130,-400 -300,-490"/>
  <line class="fil2 str0" x1="6300" y1="2650" x2="4500" y2= "1750" />
  <path class="fil2 str0" d="M4500 1750c-170,-80 -440,-80 -600,0"/>
  <line class="fil2 str0" x1="3900" y1="1750" x2="2100" y2= "2650" />
  <path class="fil2 str0" d="M2100 2650c-170,90 -310,310 -310,490"/>
  <line class="fil2 str0" x1="1790" y1="3140" x2="1790" y2= "5410" />
  <line class="fil2 str0" x1="4200" y1="1600" x2="4200" y2= "4540" />
  <line class="fil2 str0" x1="6600" y1="5740" x2="4200" y2= "4540" />
  <line class="fil2 str0" x1="1790" y1="5740" x2="4200" y2= "4540" />
  <line class="fil2 str0" x1="6600" y1="5740" x2="4500" y2= "6800" />
  <path class="fil2 str0" d="M4500 6800c-170,80 -300,300 -300,490"/>
  <polygon class="fil2 str0" points="4200,7290 4200,9010 "/>
  <path class="fil2 str0" d="M4200 7290c0,-190 -140,-410 -300,-490"/>
  <line class="fil2 str0" x1="3900" y1="6800" x2="110" y2= "4900" />
  <line class="fil2 str0" x1="4200" y1="1600" x2="6300" y2= "2650" />
  <path class="fil2 str0" d="M6300 2650c170,90 440,90 600,0"/>
  <polygon class="fil2 str0" points="6900,2650 8280,1960 "/>
  <path class="fil2 str0" d="M6900 2650c-160,90 -300,310 -300,490"/>
  <line class="fil2 str0" x1="6600" y1="3140" x2="6600" y2= "7800" />
  <line class="fil2 str0" x1="1790" y1="5740" x2="1790" y2= "3140" />
  <path class="fil2 str0" d="M1790 3140c0,-180 -130,-400 -300,-490"/>
  <line class="fil2 str0" x1="1490" y1="2650" x2="110" y2= "1960" />
  <line class="fil2 str0" x1="5880" y1="760" x2="2100" y2= "2650" />
  <path class="fil2 str0" d="M2100 2650c-170,90 -440,90 -610,0"/>
  <line class="fil2 str0" x1="1490" y1="2650" x2="110" y2= "1960" />
 </g>
</svg>
