<svg xmlns="http://www.w3.org/2000/svg" width="87.043" height="100" viewBox="0 0 87.043 100"><g transform="translate(456.853 812)"><path d="M66.945,26.384a2.5,2.5,0,0,1-.352-4.982,22.018,22.018,0,0,0,6.665-1.334,9.489,9.489,0,0,0,4.011-3.009,1.744,1.744,0,0,1,.117-.136,18.8,18.8,0,0,0,2.667-5.45A56.412,56.412,0,0,0,81.706,5H43.367c-.07,0-.135,0-.2-.009L41.644,5c-7.165.035-13.086.061-19.476,1.916h0A35.364,35.364,0,0,0,11.9,11.626a17.13,17.13,0,0,0-5.668,6.251,9.289,9.289,0,0,0-.457,7.795l.017.044a1.924,1.924,0,0,1,.113.276,16.492,16.492,0,0,0,6.669,7.073l0,0,0,0a31.033,31.033,0,0,0,8.962,3.613,40.835,40.835,0,0,0,9.023,1.094v-7.6a15.159,15.159,0,0,1-3.915-.674A11.032,11.032,0,0,1,21.271,26a8.208,8.208,0,0,1-.883-1.356,6.673,6.673,0,0,1-.283-5.761,10.321,10.321,0,0,1,3.163-4.072,14.443,14.443,0,0,1,2.323-1.518A24.394,24.394,0,0,1,36.98,10.751a29.333,29.333,0,0,1,12.037,2.6,19.674,19.674,0,0,1,5.668,3.928,12.968,12.968,0,0,1,3.493,6.089,10.686,10.686,0,0,1-.47,6.382L49.348,57.611c.557-.153.992-.284,1.44-.42a56.013,56.013,0,0,1,5.886-1.5,16.8,16.8,0,0,0,9.893-6.522,22.514,22.514,0,0,0,3.511-7.2l-.161.074a19.337,19.337,0,0,1-8.083,1.583,2.5,2.5,0,0,1,0-5,14.488,14.488,0,0,0,6.043-1.133,10.222,10.222,0,0,0,3.833-3.018,19.6,19.6,0,0,0,3.219-6.789c.3-1.032.561-2.117.8-3.25-.2.092-.4.179-.6.262A26.732,26.732,0,0,1,66.945,26.384ZM9.83,37.215,29.9,94.624l.048.017a10.6,10.6,0,0,0,1.257.372,15.441,15.441,0,0,0,1.853-.394l9-30a2.47,2.47,0,0,1,.1-.529,7.668,7.668,0,0,1,.3-.8l7.543-25.16a28.717,28.717,0,0,1-5.146,2.393A41.514,41.514,0,0,1,33.287,42.7a2.114,2.114,0,0,1-.235.013h0l-.687.026a45.753,45.753,0,0,1-11.968-1.216A36.015,36.015,0,0,1,10,37.324l0,0ZM25.992,97.935a2.3,2.3,0,0,1-.213-.284l-.017-.022v0a2.114,2.114,0,0,1-.213-.42,1.609,1.609,0,0,1-.065-.188L1.251,27.71l-.083-.2A14.131,14.131,0,0,1,1.778,15.65,22.112,22.112,0,0,1,9.06,7.523,40.366,40.366,0,0,1,20.793,2.13v0l.009,0C27.858.083,34.088.052,41.627.017l1.51-.009c.078,0,.152-.009.231-.009H84.7a2.39,2.39,0,0,1,.431.039,2.5,2.5,0,0,1,2.019,2.891,72.234,72.234,0,0,1-2.4,10.122,24.184,24.184,0,0,1-3.163,6.526,70.087,70.087,0,0,1-1.9,9.492A25.488,25.488,0,0,1,76.1,36.908,30.48,30.48,0,0,1,70.53,52.161a21.764,21.764,0,0,1-12.846,8.416,52.784,52.784,0,0,0-5.46,1.378c-.761.232-1.488.455-2.393.682A4.591,4.591,0,0,0,48.043,63.8a4.779,4.779,0,0,0-.922,1.233L37.542,96.982a2.965,2.965,0,0,1-.122.363,2.216,2.216,0,0,1-.165.319l-.026.044a2.467,2.467,0,0,1-.444.529,5.386,5.386,0,0,1-2.145,1.111,23.4,23.4,0,0,1-2.967.621c-.057.009-.117.013-.174.022s-.087.009-.113.009v0l-.07,0a13.041,13.041,0,0,1-2.984-.647c-.044-.013-.091-.026-.135-.044a5.23,5.23,0,0,1-2.18-1.338ZM52.981,28.213l.178-.6a2.551,2.551,0,0,1,.161-.407,5.7,5.7,0,0,0,.022-2.708,8.059,8.059,0,0,0-2.193-3.727,14.589,14.589,0,0,0-4.233-2.909,24.257,24.257,0,0,0-9.958-2.13,19.478,19.478,0,0,0-9.075,1.973,9.225,9.225,0,0,0-1.505.993,5.365,5.365,0,0,0-1.666,2.038,1.854,1.854,0,0,0,.065,1.6,3.639,3.639,0,0,0,.361.538,6.133,6.133,0,0,0,2.984,1.855,10.072,10.072,0,0,0,4.394.359,2.709,2.709,0,0,1,.535-.057,2.491,2.491,0,0,1,2.484,2.5v9.986a34.676,34.676,0,0,0,7.691-1.71,20.152,20.152,0,0,0,7.539-4.5A10.288,10.288,0,0,0,52.9,28.4Z" transform="translate(-457 -812)" fill="#fff"/></g></svg>