<svg xmlns="http://www.w3.org/2000/svg" width="140.383" height="47" viewBox="0 0 140.383 47"><defs><style>.a{fill:#697c8c;}.b{fill:#fa6060;}.c{fill:none;stroke:#fff;stroke-linecap:round;stroke-linejoin:round;}</style></defs><g transform="translate(0.172 -0.002)"><g transform="translate(0.5 0.002)"><path class="a" d="M63.121,31.717a.5.5,0,0,1,0,.237c0,.071-.107.119-.213.166a1.731,1.731,0,0,1-.462.095,6.905,6.905,0,0,1-.794,0,5.7,5.7,0,0,1-.7,0,1.826,1.826,0,0,1-.439-.107.6.6,0,0,1-.249-.2,1.186,1.186,0,0,1-.154-.332l-1.968-5.028c-.237-.581-.474-1.1-.723-1.577a4.743,4.743,0,0,0-.877-1.245,3.664,3.664,0,0,0-1.186-.806,4.34,4.34,0,0,0-1.66-.285H51.8v9.083a.4.4,0,0,1-.071.237.486.486,0,0,1-.237.154l-.427.107a5.483,5.483,0,0,1-.688,0,5.609,5.609,0,0,1-.688,0l-.427-.107a.379.379,0,0,1-.308-.391V11.95a1.079,1.079,0,0,1,.344-.9,1.186,1.186,0,0,1,.723-.249H55.9l.961.095a7.992,7.992,0,0,1,2.182.676,5.1,5.1,0,0,1,1.6,1.186,4.743,4.743,0,0,1,.96,1.625,6.6,6.6,0,0,1,0,3.949,4.743,4.743,0,0,1-.83,1.494,5.739,5.739,0,0,1-1.3,1.186,9.486,9.486,0,0,1-1.708.806,3.914,3.914,0,0,1,.96.581,5.064,5.064,0,0,1,.806.854,9.948,9.948,0,0,1,.7,1.186c.213.427.439.913.652,1.447L62.8,30.627c.154.391.249.676.3.83A1.341,1.341,0,0,1,63.121,31.717ZM58.852,16.729a3.842,3.842,0,0,0-.557-2.134,3.166,3.166,0,0,0-1.885-1.186,4.138,4.138,0,0,0-.937-.166H51.749v7.186h2.775a5.929,5.929,0,0,0,1.933-.273,3.712,3.712,0,0,0,1.34-.818,2.8,2.8,0,0,0,.794-1.186A3.806,3.806,0,0,0,58.852,16.729Z" transform="translate(8.501 2.004)"/><path class="a" d="M76.46,22.836a1.032,1.032,0,0,1-1.067,1.186H65.622a8.513,8.513,0,0,0,.249,2.217,4.245,4.245,0,0,0,.818,1.755,3.8,3.8,0,0,0,1.518,1.091,6.071,6.071,0,0,0,2.265.379,9.13,9.13,0,0,0,1.9-.178A12.174,12.174,0,0,0,73.8,28.9l1-.379a1.529,1.529,0,0,1,.581-.178.415.415,0,0,1,.213,0,.368.368,0,0,1,.142.178,2.266,2.266,0,0,1,.071.32v1.15a.734.734,0,0,1-.083.225.984.984,0,0,1-.142.19,3.414,3.414,0,0,1-.545.3,7.008,7.008,0,0,1-1.186.4c-.474.13-1.02.249-1.648.356a11.669,11.669,0,0,1-1.98.154,9.19,9.19,0,0,1-3.214-.51,5.929,5.929,0,0,1-2.372-1.518,6.569,6.569,0,0,1-1.423-2.526A11.751,11.751,0,0,1,62.74,23.5a11.111,11.111,0,0,1,.486-3.439,7.115,7.115,0,0,1,1.435-2.585,6.107,6.107,0,0,1,2.253-1.636,7.364,7.364,0,0,1,2.953-.569,7.245,7.245,0,0,1,2.976.557,5.668,5.668,0,0,1,2.063,1.553,6.083,6.083,0,0,1,1.186,2.229,10.2,10.2,0,0,1,.368,2.739Zm-2.739-.771a4.933,4.933,0,0,0-.96-3.368,3.64,3.64,0,0,0-2.976-1.186A3.806,3.806,0,0,0,66.725,18.9a4.825,4.825,0,0,0-.794,1.459,5.728,5.728,0,0,0-.308,1.708Z" transform="translate(11.064 2.834)"/><path class="a" d="M90.6,30.9a.368.368,0,0,1-.071.225.617.617,0,0,1-.213.154,1.435,1.435,0,0,1-.415.095,5,5,0,0,1-.652,0,5.349,5.349,0,0,1-.688,0,1.435,1.435,0,0,1-.4-.095.451.451,0,0,1-.213-.154.368.368,0,0,1-.071-.225V22.212a8.644,8.644,0,0,0-.2-2.051,4.317,4.317,0,0,0-.569-1.34,2.632,2.632,0,0,0-.984-.854,3.071,3.071,0,0,0-1.4-.3,3.486,3.486,0,0,0-2.04.723,10.969,10.969,0,0,0-2.146,2.134V30.9a.368.368,0,0,1-.071.225.617.617,0,0,1-.213.154,1.435,1.435,0,0,1-.415.095,5.28,5.28,0,0,1-.676,0,4.875,4.875,0,0,1-.652,0,1.636,1.636,0,0,1-.427-.095A.368.368,0,0,1,77.8,30.9V16.046a.57.57,0,0,1,0-.213.486.486,0,0,1,.2-.166,1.328,1.328,0,0,1,.379-.107h1.21a1.186,1.186,0,0,1,.379.107.664.664,0,0,1,.19.166.415.415,0,0,1,0,.213v1.968a8.846,8.846,0,0,1,2.621-2.051,5.348,5.348,0,0,1,2.526-.652,5.609,5.609,0,0,1,2.49.5,4.518,4.518,0,0,1,1.648,1.352,5.454,5.454,0,0,1,.9,1.968,11.988,11.988,0,0,1,.273,2.715Z" transform="translate(13.861 2.842)"/><path class="a" d="M105.444,16.727a1.661,1.661,0,0,1-.154.83.462.462,0,0,1-.4.249h-2.1a3.356,3.356,0,0,1,.806,1.316,4.8,4.8,0,0,1,.237,1.494,5.929,5.929,0,0,1-.415,2.277,4.352,4.352,0,0,1-1.186,1.672,5.3,5.3,0,0,1-1.814,1.044,7.388,7.388,0,0,1-2.372.356,6.273,6.273,0,0,1-1.719-.237,3.415,3.415,0,0,1-1.269-.6,3.06,3.06,0,0,0-.486.676,2.076,2.076,0,0,0-.19.877,1.186,1.186,0,0,0,.534.96,2.7,2.7,0,0,0,1.435.415l3.878.154a8.3,8.3,0,0,1,2.028.308,5.04,5.04,0,0,1,1.6.783,3.557,3.557,0,0,1,1.055,1.186,3.7,3.7,0,0,1,.379,1.708,4.566,4.566,0,0,1-.427,1.945,4.388,4.388,0,0,1-1.316,1.625,6.463,6.463,0,0,1-2.253,1.115,11.858,11.858,0,0,1-3.237.4A13.293,13.293,0,0,1,95,36.969a6.676,6.676,0,0,1-2.063-.83,3.214,3.214,0,0,1-1.186-1.269,3.557,3.557,0,0,1-.368-1.589,4.436,4.436,0,0,1,.13-1.055,3.7,3.7,0,0,1,.415-.972,4.635,4.635,0,0,1,.676-.889,9.286,9.286,0,0,1,.925-.83,2.893,2.893,0,0,1-1.186-1.043,2.479,2.479,0,0,1-.379-1.352,3.913,3.913,0,0,1,.4-1.8A6.083,6.083,0,0,1,93.4,23.925a4.862,4.862,0,0,1-.818-1.376,5.419,5.419,0,0,1-.3-1.862,5.609,5.609,0,0,1,.427-2.194,4.743,4.743,0,0,1,1.186-1.7,5.158,5.158,0,0,1,1.826-1.067,6.9,6.9,0,0,1,2.324-.391,10.672,10.672,0,0,1,1.269.071,9.9,9.9,0,0,1,1.091.2H104.9a.463.463,0,0,1,.415.273,1.921,1.921,0,0,1,.13.842Zm-4.257,3.9a2.929,2.929,0,0,0-3.142-3.214,3.273,3.273,0,0,0-1.376.261,2.751,2.751,0,0,0-.972.723,3.107,3.107,0,0,0-.581,1.067,4.114,4.114,0,0,0-.19,1.269,2.882,2.882,0,0,0,3.119,3.142,3.557,3.557,0,0,0,1.4-.249,2.633,2.633,0,0,0,.984-.711,3,3,0,0,0,.581-1.044,3.962,3.962,0,0,0,.178-1.245ZM102.55,32.4a1.672,1.672,0,0,0-.783-1.482,3.984,3.984,0,0,0-2.111-.569l-3.854-.13a7.3,7.3,0,0,0-.866.783,4.269,4.269,0,0,0-.534.711,2.372,2.372,0,0,0-.273.676,3.108,3.108,0,0,0-.071.676,1.743,1.743,0,0,0,1.091,1.625,6.806,6.806,0,0,0,3.036.545A7.364,7.364,0,0,0,100.25,35a3.985,3.985,0,0,0,1.352-.617,2.538,2.538,0,0,0,.735-.913A2.764,2.764,0,0,0,102.55,32.4Z" transform="translate(16.385 2.848)"/><path class="a" d="M117.02,30.919a.356.356,0,0,1-.13.3.877.877,0,0,1-.368.154,3.3,3.3,0,0,1-.676,0,3.45,3.45,0,0,1-.676,0,.818.818,0,0,1-.379-.154.379.379,0,0,1-.119-.3V29.437a7.115,7.115,0,0,1-2.17,1.613,5.632,5.632,0,0,1-2.526.581,6.6,6.6,0,0,1-2.123-.308,4.589,4.589,0,0,1-1.613-.877,3.925,3.925,0,0,1-1.043-1.423,4.649,4.649,0,0,1-.368-1.909,4.4,4.4,0,0,1,.51-2.182,4.221,4.221,0,0,1,1.47-1.53,7.233,7.233,0,0,1,2.372-.925,14.74,14.74,0,0,1,3.119-.3h2.051V20.994a5.859,5.859,0,0,0-.178-1.518,2.621,2.621,0,0,0-.593-1.091,2.55,2.55,0,0,0-1.043-.664,5.076,5.076,0,0,0-1.589-.225,6.072,6.072,0,0,0-1.8.249,8.929,8.929,0,0,0-1.4.522,9.488,9.488,0,0,0-1.008.534,1.482,1.482,0,0,1-.6.237.4.4,0,0,1-.237-.071.581.581,0,0,1-.166-.2,1,1,0,0,1-.107-.332,2.669,2.669,0,0,1,0-.451,2.977,2.977,0,0,1,0-.652.937.937,0,0,1,.273-.462,3.948,3.948,0,0,1,.771-.5,9.771,9.771,0,0,1,1.257-.534,12.368,12.368,0,0,1,1.553-.391,9.024,9.024,0,0,1,1.7-.154,9.119,9.119,0,0,1,2.727.356,4.553,4.553,0,0,1,1.814,1.067,4.245,4.245,0,0,1,1.008,1.743,8.716,8.716,0,0,1,.308,2.431Zm-2.7-6.783h-2.372a9.487,9.487,0,0,0-1.957.19,4.115,4.115,0,0,0-1.364.569,2.3,2.3,0,0,0-.806.889,2.739,2.739,0,0,0-.249,1.186,2.372,2.372,0,0,0,.735,1.838,2.917,2.917,0,0,0,2.051.688,3.937,3.937,0,0,0,1.992-.545,9,9,0,0,0,1.921-1.672Z" transform="translate(18.884 2.838)"/><path class="a" d="M118.961,12.65a1.981,1.981,0,0,1-.166.794,1.909,1.909,0,0,1-1.079,1.079,2.075,2.075,0,0,1-.806.154,2.051,2.051,0,0,1-.818-.154,1.826,1.826,0,0,1-1.067-1.079,2.051,2.051,0,0,1-.154-.818,1.981,1.981,0,0,1,.154-.794,2.025,2.025,0,0,1,1.9-1.221,2.17,2.17,0,0,1,.806.142,2.016,2.016,0,0,1,.64.427,1.909,1.909,0,0,1,.427.628,2.288,2.288,0,0,1,.166.842Zm-.474,0a1.7,1.7,0,0,0-.119-.664,1.542,1.542,0,0,0-.32-.522,1.411,1.411,0,0,0-.5-.332,1.542,1.542,0,0,0-.617-.119,1.6,1.6,0,0,0-.652.13,1.447,1.447,0,0,0-.5.344,1.328,1.328,0,0,0-.32.51,1.731,1.731,0,0,0-.107.617,2,2,0,0,0,.107.664,1.707,1.707,0,0,0,.332.522,1.589,1.589,0,0,0,.5.332,1.731,1.731,0,0,0,.617.119,1.684,1.684,0,0,0,.652-.13,1.624,1.624,0,0,0,.5-.344,1.7,1.7,0,0,0,.32-.51,1.731,1.731,0,0,0,.107-.593Zm-.617.96H117.4v-.071l-.107-.356a.534.534,0,0,0-.154-.273.368.368,0,0,0-.249-.071h-.142v.806a.581.581,0,0,1-.2,0h-.213a.083.083,0,0,1,0-.083V11.737a.3.3,0,0,1,0-.178.249.249,0,0,1,.178-.059h.593a1.684,1.684,0,0,1,.368,0,.64.64,0,0,1,.273.119.51.51,0,0,1,.166.19.558.558,0,0,1,0,.285.522.522,0,0,1-.13.379.747.747,0,0,1-.368.2.557.557,0,0,1,.237.142.854.854,0,0,1,.19.3l.119.332a.781.781,0,0,1-.083.19Zm-.64-1.447a.344.344,0,0,0,0-.107.119.119,0,0,0,0-.095.225.225,0,0,0-.107,0H116.7v.581h.225a.415.415,0,0,0,.308-.083.32.32,0,0,0,0-.273Z" transform="translate(20.75 1.969)"/><path class="a" d="M.5,12.107A3.166,3.166,0,0,1,2.089,9.486L20.445.332a4,4,0,0,1,3.178,0L41.967,9.486a3.166,3.166,0,0,1,1.589,2.573V34.9a3.166,3.166,0,0,1-1.589,2.573l-18.344,9.2a4,4,0,0,1-3.178,0l-18.356-9.2A3.166,3.166,0,0,1,.5,34.9V12.107" transform="translate(-0.5 -0.002)"/><path class="b" d="M7.98,13.454,20.644,7.11l12.664,6.344v15.5L20.644,35.308,7.98,28.952v-15.5" transform="translate(0.89 1.318)"/><path class="c" d="M8,27.063a3.142,3.142,0,0,0,1.565,2.609l9.486,4.743a4,4,0,0,0,3.178,0l9.486-4.743A3.142,3.142,0,0,0,33.3,27.063V15.205a3.166,3.166,0,0,0-1.589-2.621L22.23,7.842a4,4,0,0,0-3.178,0L9.565,12.585A3.166,3.166,0,0,0,8,15.205Z" transform="translate(0.893 1.393)"/><line class="c" y2="15.487" transform="translate(21.534 8.428)"/><line class="c" x1="12.664" y1="6.356" transform="translate(21.534 23.915)"/><line class="c" y1="6.356" x2="12.664" transform="translate(8.87 23.915)"/><path class="c" d="M34.7,26.227,23.623,31.788a3.142,3.142,0,0,0-1.589,2.573h0a3.166,3.166,0,0,0-1.589-2.573L.5,21.78" transform="translate(-0.5 4.044)"/><path class="c" d="M18.66,7.11l11.075,5.55a4,4,0,0,0,3.178,0l7.281-3.652L32.913,12.66a3.166,3.166,0,0,0-1.589,2.621V39.8" transform="translate(2.874 1.318)"/><path class="c" d="M9.393,28.655V14.983A3.19,3.19,0,0,0,7.8,12.41L.5,8.71" transform="translate(-0.5 1.616)"/><path class="c" d="M30.892,3.35,10.959,13.358a4,4,0,0,1-3.178,0L.5,9.706" transform="translate(-0.5 0.62)"/></g></g></svg>