<?xml version="1.0" encoding="UTF-8"?>
<!DOCTYPE svg PUBLIC "-//W3C//DTD SVG 1.1//EN" "http://www.w3.org/Graphics/SVG/1.1/DTD/svg11.dtd">
<!-- Creator: CorelDRAW 2019 (64-Bit Не для перепродажи) -->
<svg xmlns="http://www.w3.org/2000/svg" xml:space="preserve" width="350px" height="362px" version="1.1" style="shape-rendering:geometricPrecision; text-rendering:geometricPrecision; image-rendering:optimizeQuality; fill-rule:evenodd; clip-rule:evenodd"
viewBox="0 0 93.3 96.46"
 xmlns:xlink="http://www.w3.org/1999/xlink"
 xmlns:xodm="http://www.corel.com/coreldraw/odm/2003">
 <defs>
  <style type="text/css">
   <![CDATA[
    .fil1 {fill:#2B2A29}
    .fil0 {fill:#005B83}
   ]]>
  </style>
 </defs>
 <g id="Слой_x0020_1">
  <metadata id="CorelCorpID_0Corel-Layer"/>
  <g id="_2559303250880">
   <path class="fil0" d="M6.56 71.43l-1.15 -5.1 -1.14 5.1 2.29 0zm3.86 4.85l-2.54 0 -0.7 -2.44 -3.52 0 -0.72 2.44 -2.54 0 3.81 -13.76 2.46 0 3.75 13.76z"/>
   <path class="fil0" d="M17.18 74.04c1.79,0 2.24,-0.63 2.24,-1.93l0 -5.37c0,-1.31 -0.28,-1.99 -2.2,-1.99l-2.11 0 0 9.29 2.07 0zm0 -11.54c3.33,0 4.71,1.2 4.71,4.12l0 5.61c0,2.85 -1.43,4.05 -4.71,4.05l-4.52 0 0 -13.78 4.52 0z"/>
   <polygon class="fil0" points="29.81,73.02 27.08,67.47 27.36,71.41 27.36,76.28 24.9,76.28 24.9,62.5 27.27,62.5 30.08,68.6 32.91,62.5 35.29,62.5 35.29,76.28 32.82,76.28 32.82,71.41 33.11,67.47 30.37,73.02 "/>
   <polygon class="fil0" points="41.07,76.29 38.58,76.29 38.58,62.52 41.07,62.52 "/>
   <path class="fil0" d="M47.85 69.16c1.79,0 2.29,-0.63 2.29,-1.94l0 -0.46c0,-1.31 -0.34,-1.99 -2.25,-1.99l-1.06 0 0 4.39 1.02 0zm2.65 7.12l-2.74 -4.85 -0.91 0 0 4.85 -2.47 0 0 -13.78 3.47 0c3.33,0 4.88,1.22 4.88,4.13l0 0.72c0,2.04 -0.71,3.15 -2.38,3.68l3.03 5.25 -2.88 0z"/>
   <path class="fil0" d="M60.87 71.43l-1.14 -5.1 -1.15 5.1 2.29 0zm3.87 4.85l-2.54 0 -0.7 -2.44 -3.52 0 -0.72 2.44 -2.54 0 3.81 -13.76 2.45 0 3.76 13.76z"/>
   <polygon class="fil0" points="74.76,76.28 66.96,76.28 66.96,62.5 69.44,62.5 69.44,74.02 74.76,74.02 "/>
   <polygon class="fil0" points="82.56,64.75 79.71,64.75 79.71,76.28 77.26,76.28 77.26,64.75 74.4,64.75 74.4,62.55 82.56,62.55 "/>
   <polygon class="fil0" points="92.9,62.5 89.43,70.52 89.43,76.29 86.98,76.29 86.98,70.52 83.47,62.5 86.14,62.5 87.21,65.04 88.21,67.99 89.21,64.97 90.23,62.5 "/>
   <path class="fil0" d="M4.54 84.63c-1.35,0 -1.91,0.43 -1.91,1.74 0,1.74 1.38,1.59 3.47,1.92 1.59,0.25 3.11,0.89 3.11,3.64 0,3.19 -1.37,4.53 -4.68,4.53 -3.44,0 -4.53,-1.66 -4.53,-3.88l2.49 0c0.05,1.05 0.52,1.63 2.09,1.63 1.49,0 2.17,-0.63 2.17,-2.19 0,-1.62 -1.94,-1.62 -3.4,-1.82 -1.56,-0.2 -3.21,-0.97 -3.21,-3.81 0,-2.58 1.58,-3.92 4.4,-3.92 2.49,0 4.14,0.91 4.37,3.67l-2.49 0c-0.07,-1.17 -0.68,-1.51 -1.88,-1.51z"/>
   <polygon class="fil0" points="21.31,96.32 18.86,96.32 18.86,90.65 14.56,90.65 14.56,96.33 12.08,96.33 12.08,82.54 14.56,82.54 14.56,88.39 18.86,88.39 18.86,82.54 21.31,82.54 "/>
   <polygon class="fil0" points="27.09,96.33 24.6,96.33 24.6,82.56 27.09,82.56 "/>
   <path class="fil0" d="M33.87 89.72c1.79,0 2.38,-0.61 2.38,-1.92l0 -1.02c0,-1.3 -0.43,-1.99 -2.35,-1.99l-1 0 0 4.93 0.97 0zm0 -7.18c3.33,0 4.88,1.2 4.88,4.12l0 1.27c0,2.84 -1.61,4.16 -4.88,4.16l-0.95 0 0 4.23 -2.52 0 0 -13.78 3.47 0z"/>
   <polygon class="fil0" points="49.36,82.54 45.89,90.56 45.89,96.33 43.44,96.33 43.44,90.56 39.93,82.54 42.6,82.54 43.67,85.08 44.67,88.03 45.68,85.01 46.7,82.54 "/>
   <path class="fil0" d="M55.14 91.47l-1.14 -5.1 -1.15 5.1 2.29 0zm3.86 4.85l-2.54 0 -0.69 -2.44 -3.53 0 -0.71 2.44 -2.54 0 3.81 -13.76 2.45 0 3.75 13.76z"/>
   <path class="fil0" d="M64.69 89.2c1.79,0 2.29,-0.63 2.29,-1.93l0 -0.47c0,-1.31 -0.34,-1.99 -2.25,-1.99l-1.06 0 0 4.39 1.02 0zm2.65 7.12l-2.74 -4.85 -0.91 0 0 4.85 -2.47 0 0 -13.78 3.47 0c3.33,0 4.89,1.22 4.89,4.13l0 0.72c0,2.04 -0.72,3.15 -2.38,3.68l3.02 5.25 -2.88 0z"/>
   <path class="fil0" d="M77.2 94.08c1.79,0 2.23,-0.62 2.23,-1.93l0 -5.37c0,-1.3 -0.28,-1.99 -2.19,-1.99l-2.12 0 0 9.29 2.08 0zm0 -11.54c3.33,0 4.7,1.2 4.7,4.12l0 5.61c0,2.85 -1.43,4.05 -4.7,4.05l-4.53 0 0 -13.78 4.53 0z"/>
   <path class="fil0" d="M88.63 84.63c-1.36,0 -1.91,0.43 -1.91,1.74 0,1.74 1.38,1.59 3.47,1.92 1.59,0.25 3.11,0.89 3.11,3.64 0,3.19 -1.38,4.53 -4.69,4.53 -3.43,0 -4.52,-1.66 -4.52,-3.88l2.48 0c0.06,1.05 0.52,1.63 2.1,1.63 1.48,0 2.16,-0.63 2.16,-2.19 0,-1.62 -1.93,-1.62 -3.4,-1.82 -1.55,-0.2 -3.2,-0.97 -3.2,-3.81 0,-2.58 1.58,-3.92 4.4,-3.92 2.49,0 4.13,0.91 4.37,3.67l-2.49 0c-0.07,-1.17 -0.68,-1.51 -1.88,-1.51z"/>
   <path class="fil1" d="M41.65 31.06l0.2 -0.65c0.27,-0.87 0.25,-1.41 -0.1,-1.62 -0.34,-0.22 -0.91,-0.33 -1.72,-0.34l-1.78 0c-0.87,0 -1.5,0.13 -1.88,0.41 -0.38,0.27 -0.67,0.78 -0.9,1.55l-0.46 1.57 -0.13 0.43c-0.22,0.76 -0.22,1.27 0,1.55 0.23,0.28 0.84,0.41 1.83,0.4l1.59 0c0.21,0.01 0.39,0.04 0.55,0.11 0.16,0.07 0.19,0.24 0.12,0.52 0,0 -0.07,0.24 -0.21,0.74 -0.13,0.49 -0.2,0.73 -0.2,0.73 -0.1,0.36 -0.28,0.58 -0.53,0.65 -0.26,0.08 -0.47,0.13 -0.66,0.13l-0.6 0c-0.09,-0.01 -0.29,-0.01 -0.57,-0.01 -0.35,0.03 -0.65,0 -0.88,-0.09 -0.23,-0.1 -0.3,-0.32 -0.19,-0.68l0.11 -0.38 -1.47 0 -0.18 0.65c-0.23,0.73 -0.23,1.24 -0.03,1.54 0.21,0.28 0.82,0.43 1.83,0.42l0.57 0 1.03 0c0.98,0.01 1.66,-0.12 2.04,-0.4 0.39,-0.28 0.7,-0.8 0.92,-1.56 0,0 0.04,-0.12 0.12,-0.38 0.08,-0.25 0.23,-0.76 0.46,-1.53 0.12,-0.41 0.19,-0.79 0.16,-1.18 -0.09,-0.5 -0.41,-0.73 -0.94,-0.72 -0.54,0.01 -2.57,-0.01 -2.57,-0.01 -0.19,0 -0.38,-0.05 -0.59,-0.12 -0.21,-0.08 -0.26,-0.3 -0.16,-0.65 0.01,0 0.47,-1.56 0.48,-1.56 0.12,-0.35 0.31,-0.54 0.58,-0.57 0.28,-0.03 1.84,-0.07 1.84,-0.07 0.75,0 1.12,0.04 0.97,0.64l-0.14 0.48 1.49 0z"/>
   <path class="fil0" d="M75.01 39.61c-4.82,-2.19 -9.19,-2.84 -14.23,-2.43 -7.19,0.6 -13.35,3.21 -20.3,4.6 -4.41,0.89 -10.48,1.36 -14.92,0.28 -0.32,-0.08 -3.54,-0.82 -3.56,-0.87 1.06,0.89 8.11,8.76 21.85,4.53 5.64,-1.73 11.9,-4.74 17.67,-5.91 3.93,-0.79 9.58,-1.13 13.49,-0.2z"/>
   <path class="fil0" d="M72.67 43.58c-4.17,-1.77 -7.79,-2.05 -11.82,-1.22 -5.73,1.19 -10.4,4.29 -15.85,6.26 -3.46,1.25 -8.31,2.22 -12.03,1.52 -0.27,-0.05 -2.97,-0.52 -2.99,-0.57 0.96,0.8 1.89,1.31 2.65,1.6 1.58,0.61 2.72,0.99 4.33,1.27 3.98,0.69 8.5,1.03 12.12,-0.68 4.39,-2.08 8.18,-5.21 12.7,-6.85 3.08,-1.12 7.6,-1.92 10.89,-1.33z"/>
   <path class="fil1" d="M43.8 23.1l3.62 -11.74c0,0 -2.9,-0.23 -8.83,1.52l0 -12.88 -1.7 0.68 0 12.73c-0.57,0.19 -1.17,0.4 -1.79,0.62l0 -12.64 -1.71 0.98 0 12.3c-2.56,0.99 -5.48,2.29 -8.77,3.96 0,0 13.54,-3.36 18.22,-2.4l-1.91 6.83c-1.93,-0.01 -3.95,0.02 -6.07,0.1 0,0 -8.5,0.66 -16.38,2.61 0,0.55 -0.08,-0.09 0,0.49 9.06,-1.09 15.59,-1.2 15.59,-1.2 17.63,-0.49 31.55,3.18 33.92,10.5 0,0 1.95,0.3 3.97,0.7 2.33,0.46 4.02,1.46 4.02,1.46 -0.86,-7.72 -9.57,-14.08 -32.18,-14.62z"/>
   <path class="fil0" d="M58.69 49.02c-3.2,2.03 -6.3,6.17 -12.32,6.81 0.79,0.09 6.52,2.1 11.39,-2.47 8.03,-7.55 11.68,-5.84 11.68,-5.84 -0.14,-0.07 -0.29,-0.13 -0.44,-0.19 -3.18,-1.3 -7.77,0.09 -10.31,1.69z"/>
   <path class="fil1" d="M30.27 35.86l-3.23 0 0.74 -1 3.82 -5 0.52 0 -1.85 6zm2.43 -7.43l-1.63 0 -7.89 10.27 1.66 0 1.07 -1.4 3.92 0 -0.42 1.39 1.36 0 3.18 -10.26 -1.25 0z"/>
  </g>
 </g>
</svg>
