<?xml version="1.0" encoding="UTF-8"?>
<!DOCTYPE svg PUBLIC "-//W3C//DTD SVG 1.1//EN" "http://www.w3.org/Graphics/SVG/1.1/DTD/svg11.dtd">
<!-- Creator: CorelDRAW 2019 (64-Bit Не для перепродажи) -->
<svg xmlns="http://www.w3.org/2000/svg" xml:space="preserve" width="300px" height="125px" version="1.1" style="shape-rendering:geometricPrecision; text-rendering:geometricPrecision; image-rendering:optimizeQuality; fill-rule:evenodd; clip-rule:evenodd"
viewBox="0 0 288.56 119.88"
 xmlns:xlink="http://www.w3.org/1999/xlink"
 xmlns:xodm="http://www.corel.com/coreldraw/odm/2003">
 <defs>
  <style type="text/css">
   <![CDATA[
    .fil0 {fill:#2D509F}
   ]]>
  </style>
 </defs>
 <g id="Слой_x0020_1">
  <metadata id="CorelCorpID_0Corel-Layer"/>
  <path class="fil0" d="M200.22 18.27c0,0 -0.07,7.09 -2.41,13.55 -2.24,6.14 -7.14,13.77 -13.95,20.28 -9.73,9.31 -21.12,17.5 -28.37,21.73 -7.24,4.22 -18.95,9.83 -23.48,11.34 -4.36,1.45 -15.17,4.19 -21.43,3.02 -8.11,-1.51 -8.46,-7.55 -6.04,-15.7 2.41,-8.15 16.9,-58.57 16.9,-58.57 -55.41,4.08 -96.24,22.94 -96.24,45.95 0,25.98 53.42,47.04 119.31,47.04 65.89,0 119.31,-21.06 119.31,-47.04 0,-18.04 -25.78,-33.71 -63.6,-41.6l0 0zm-17.8 65.19c0,0 -7.38,-0.04 -10.62,0.07 -3.08,0.11 -0.73,2.65 4.48,5.63 2.94,1.69 2.94,4.3 2.52,5.97 -0.37,1.49 -3.44,3.27 -6.76,3.88 -3.26,0.59 -12.03,1.39 -16.86,1.69 -4.83,0.3 -15.12,0.31 -20.86,0.31 -5.73,0 -15.1,-0.92 -20.83,-1.53 -5.19,-0.54 -16.09,-2.35 -16.09,-2.35l1.29 -4.91c0,0 3.97,0.97 10.91,1.88 6.94,0.9 13.79,1.24 24.66,1.34 8.76,0.08 17.16,-2.03 20.69,-4.23 2.99,-1.87 3.01,-4.57 0.91,-6.04 -3.14,-2.2 -5.08,-2.4 -4.53,-4.53 0.73,-2.82 3.73,-3.58 7.24,-3.62 4.53,-0.05 23.86,-0.02 23.86,-0.02l-0.01 6.46 0 0z"/>
  <path class="fil0" d="M144.28 0c-79.68,0 -144.28,26.83 -144.28,59.94 0,33.1 64.6,59.94 144.28,59.94 79.69,0 144.28,-26.84 144.28,-59.94 0,-33.11 -64.59,-59.94 -144.28,-59.94zm0.01 114.33c-76.44,0 -138.41,-24.35 -138.41,-54.38 0,-28.15 54.52,-51.28 124.33,-54.07 -1.42,4.69 -14.63,50.69 -17.22,59.36 -3.88,12.95 -0.01,14.91 8.23,9.1 7.39,-5.21 13.61,-11.04 19.37,-18.4 5.87,-7.5 9.45,-14.92 10.56,-20.22 1.26,-5.95 0.83,-13.38 -2.22,-20.44 -1.63,-3.77 -3.99,-8.34 -4.69,-9.68 76.47,0 138.47,24.32 138.47,54.35 0,30.03 -61.97,54.38 -138.42,54.38z"/>
 </g>
</svg>
